<svg xmlns:xlink="http://www.w3.org/1999/xlink" xmlns="http://www.w3.org/2000/svg" fill="none" viewBox="0 0 188 24" focusable="false" class="chakra-icon css-km7l4u" width="188"  height="24" ><path fill="#FFFFFF" d="M0 0h188v24H0z"></path><path fill="#0184D8" fill-rule="evenodd" d="M11.861.31a2.32 2.32 0 0 0-2.317 0L1.16 5.152A2.32 2.32 0 0 0 0 7.159v9.682c0 .828.442 1.593 1.159 2.007l8.385 4.842c.717.413 1.6.413 2.317 0l8.386-4.842a2.32 2.32 0 0 0 1.159-2.007V7.16c0-.828-.442-1.593-1.16-2.007zM9.005 6.304a.54.54 0 0 1 .537.543v1.287c0 .3-.24.543-.537.543H7.81a.54.54 0 0 0-.537.543v7.933c0 .3-.241.544-.538.544H5.462a.54.54 0 0 1-.538-.544V9.22c0-.3.24-.543.538-.543h1.193a.54.54 0 0 0 .538-.543V6.847c0-.3.24-.543.538-.543zm4.699 0a.54.54 0 0 1 .537.543v1.287c0 .3.241.543.538.543h1.194a.54.54 0 0 1 .537.543v7.933c0 .3-.24.544-.538.544h-1.274a.54.54 0 0 1-.537-.544V9.22a.54.54 0 0 0-.538-.543H12.43a.54.54 0 0 1-.538-.543V6.847c0-.3.24-.543.538-.543zm-2.35 4.543a.54.54 0 0 1 .538.543v3.525c0 .3-.24.544-.538.544H10.08a.54.54 0 0 1-.538-.544V11.39c0-.3.241-.543.538-.543z" clip-rule="evenodd"></path><path fill="url(&quot;#a&quot;)" d="M30 18.807V5.637h5.11q1.447 0 2.404.45.965.443 1.44 1.215.483.772.483 1.75 0 .803-.313 1.376a2.6 2.6 0 0 1-.84.92 3.6 3.6 0 0 1-1.18.507v.129q.711.04 1.362.43.658.386 1.075 1.094.418.708.418 1.71 0 1.023-.502 1.84-.502.81-1.512 1.28t-2.542.47zm2.418-1.993h2.6q1.317 0 1.897-.496.586-.501.587-1.286 0-.585-.294-1.055a2 2 0 0 0-.834-.745q-.54-.277-1.29-.277h-2.666zm0-5.576h2.392q.626 0 1.127-.225.502-.232.789-.65a1.72 1.72 0 0 0 .293-1.003q0-.765-.547-1.26-.541-.495-1.61-.495h-2.444z"></path><path fill="url(&quot;#b&quot;)" d="M44.317 5.637v13.17h-2.36V5.637z"></path><path fill="url(&quot;#c&quot;)" d="M51.11 19q-1.467 0-2.542-.637a4.35 4.35 0 0 1-1.668-1.781q-.588-1.145-.587-2.675 0-1.53.587-2.682a4.34 4.34 0 0 1 1.668-1.788q1.075-.636 2.542-.636t2.541.636a4.3 4.3 0 0 1 1.662 1.788q.593 1.151.593 2.682t-.593 2.675a4.3 4.3 0 0 1-1.662 1.781Q52.576 19 51.11 19m.013-1.865q.795 0 1.33-.43.533-.438.794-1.171a4.7 4.7 0 0 0 .268-1.634q0-.905-.268-1.64-.26-.74-.795-1.176-.534-.438-1.33-.438-.813 0-1.355.438-.534.437-.802 1.176a4.9 4.9 0 0 0-.26 1.64q0 .9.26 1.634.268.733.802 1.17.54.43 1.356.431"></path><path fill="url(&quot;#d&quot;)" d="M62.276 19q-1.5 0-2.575-.65a4.36 4.36 0 0 1-1.649-1.794q-.573-1.15-.573-2.65 0-1.505.586-2.655a4.34 4.34 0 0 1 1.656-1.8q1.075-.65 2.542-.65 1.218 0 2.157.443.945.438 1.505 1.242.561.797.639 1.864h-2.255a2.12 2.12 0 0 0-.652-1.19q-.508-.481-1.362-.482a2.15 2.15 0 0 0-1.27.386q-.548.38-.855 1.094-.3.713-.3 1.71 0 1.01.3 1.736.3.72.841 1.113.547.386 1.284.386.521 0 .932-.193.417-.2.697-.572.28-.373.385-.907h2.255a3.84 3.84 0 0 1-.626 1.858q-.54.804-1.473 1.26-.93.45-2.19.451"></path><path fill="url(&quot;#e&quot;)" d="m70.652 15.707-.007-2.81h.378l3.598-3.968h2.757l-4.425 4.862h-.49zm-2.15 3.1V5.637h2.359v13.17zm6.282 0-3.259-4.495 1.59-1.64 4.49 6.135z"></path><path fill="url(&quot;#f&quot;)" d="m86.862 11.54-2.15.232a1.7 1.7 0 0 0-.32-.605 1.6 1.6 0 0 0-.6-.456q-.378-.174-.925-.174-.736 0-1.238.315-.495.315-.489.817a.85.85 0 0 0 .32.7q.331.27 1.094.444l1.708.36q1.42.303 2.111.959.698.656.704 1.717a2.66 2.66 0 0 1-.554 1.646q-.54.707-1.505 1.106T82.802 19q-1.838 0-2.959-.759-1.121-.766-1.336-2.128l2.3-.22q.157.67.665 1.01.51.342 1.323.341.84 0 1.35-.34.514-.342.514-.843a.87.87 0 0 0-.332-.7q-.326-.278-1.017-.425l-1.707-.354q-1.44-.296-2.131-.997-.692-.706-.685-1.788-.006-.912.502-1.582.515-.675 1.427-1.041.92-.373 2.119-.373 1.76 0 2.77.74 1.016.738 1.257 2"></path><path fill="url(&quot;#g&quot;)" d="M93.39 19q-1.5 0-2.575-.65a4.36 4.36 0 0 1-1.649-1.794q-.573-1.15-.573-2.65 0-1.505.586-2.655a4.34 4.34 0 0 1 1.656-1.8q1.075-.65 2.541-.65 1.22 0 2.157.443.945.438 1.506 1.242.561.797.639 1.864h-2.255a2.12 2.12 0 0 0-.652-1.19q-.509-.481-1.362-.482a2.15 2.15 0 0 0-1.271.386q-.548.38-.854 1.094-.3.713-.3 1.71 0 1.01.3 1.736.3.72.841 1.113.547.386 1.284.386.52 0 .932-.193.417-.2.697-.572.28-.373.385-.907h2.255a3.84 3.84 0 0 1-.626 1.858q-.54.804-1.473 1.26-.932.45-2.19.451"></path><path fill="url(&quot;#h&quot;)" d="M103.982 19q-1.467 0-2.542-.637a4.35 4.35 0 0 1-1.669-1.781q-.585-1.145-.586-2.675 0-1.53.586-2.682a4.34 4.34 0 0 1 1.669-1.788q1.075-.636 2.542-.636t2.541.636a4.3 4.3 0 0 1 1.662 1.788q.593 1.151.593 2.682t-.593 2.675a4.3 4.3 0 0 1-1.662 1.781q-1.075.637-2.541.637m.013-1.865q.795 0 1.329-.43.535-.438.795-1.171a4.8 4.8 0 0 0 .268-1.634q0-.905-.268-1.64-.26-.74-.795-1.176-.534-.438-1.329-.438-.815 0-1.356.438-.534.437-.802 1.176a4.9 4.9 0 0 0-.26 1.64q0 .9.26 1.634.268.733.802 1.17.541.43 1.356.431"></path><path fill="url(&quot;#i&quot;)" d="M117.161 14.653V8.929h2.36v9.878h-2.288v-1.756h-.104a3 3 0 0 1-1.115 1.357q-.769.528-1.896.528-.984 0-1.74-.431a3 3 0 0 1-1.174-1.267q-.423-.835-.423-2.02V8.93h2.359v5.93q0 .939.522 1.492.52.552 1.368.553.522 0 1.01-.251.489-.252.802-.746.32-.503.319-1.254"></path><path fill="url(&quot;#j&quot;)" d="M126.946 8.93v1.8h-5.755v-1.8zm-4.335-2.367h2.36v9.273q0 .47.143.72.15.245.391.335t.535.09q.22 0 .404-.032.189-.033.286-.058l.398 1.82q-.189.064-.541.141-.346.077-.847.09-.886.026-1.597-.264a2.47 2.47 0 0 1-1.127-.913q-.411-.617-.405-1.543z"></path><path fill="url(&quot;#k&quot;)" d="M133.575 5.637h2.959l3.963 9.543h.156l3.963-9.543h2.959v13.17h-2.321V9.76h-.123l-3.689 9.01h-1.734l-3.689-9.03h-.124v9.068h-2.32z"></path><path fill="url(&quot;#l&quot;)" d="M154.535 19q-1.506 0-2.6-.617a4.2 4.2 0 0 1-1.675-1.762q-.587-1.146-.587-2.695 0-1.524.587-2.675a4.4 4.4 0 0 1 1.655-1.8q1.062-.65 2.496-.65.925 0 1.747.295a4 4 0 0 1 1.46.9q.639.612 1.003 1.557.366.939.365 2.238v.714h-8.205v-1.57h5.944a2.5 2.5 0 0 0-.293-1.189 2.1 2.1 0 0 0-.802-.83q-.508-.302-1.186-.302-.723 0-1.271.347-.548.342-.854.9-.3.555-.306 1.216v1.37q0 .862.319 1.479.32.61.893.939.573.322 1.343.322.515 0 .932-.142a2.1 2.1 0 0 0 .723-.43q.307-.284.463-.702l2.203.245a3.4 3.4 0 0 1-.795 1.504q-.58.637-1.486.99-.906.348-2.073.348"></path><path fill="url(&quot;#m&quot;)" d="M160.982 18.807V8.93h2.288v1.647h.104q.274-.855.939-1.319.671-.47 1.531-.47.196 0 .437.02.248.014.411.045v2.142a2.5 2.5 0 0 0-.476-.09 4.5 4.5 0 0 0-.619-.046 2.4 2.4 0 0 0-1.16.277q-.509.27-.802.752a2.1 2.1 0 0 0-.293 1.113v5.807z"></path><path fill="url(&quot;#n&quot;)" d="M168.259 18.807V8.93h2.359v9.878zm1.186-11.28q-.56 0-.964-.366a1.17 1.17 0 0 1-.405-.894q0-.528.405-.894a1.37 1.37 0 0 1 .964-.373q.567 0 .965.373.404.366.404.894 0 .52-.404.894a1.37 1.37 0 0 1-.965.366"></path><path fill="url(&quot;#o&quot;)" d="M178.043 8.93v1.8h-5.755v-1.8zm-4.334-2.367h2.359v9.273q0 .47.144.72.15.245.391.335t.534.09q.222 0 .404-.032a4 4 0 0 0 .287-.058l.398 1.82q-.19.064-.541.141a4.5 4.5 0 0 1-.848.09q-.886.026-1.596-.264a2.48 2.48 0 0 1-1.128-.913q-.41-.617-.404-1.543z"></path><path fill="url(&quot;#p&quot;)" d="m187.785 11.54-2.151.232a1.7 1.7 0 0 0-.319-.605 1.6 1.6 0 0 0-.6-.456q-.378-.174-.925-.174-.737 0-1.239.315-.495.315-.488.817a.85.85 0 0 0 .319.7q.333.27 1.095.444l1.707.36q1.422.303 2.112.959.698.656.704 1.717a2.66 2.66 0 0 1-.554 1.646q-.541.707-1.505 1.106-.966.399-2.216.399-1.839 0-2.959-.759-1.122-.766-1.336-2.128l2.3-.22q.157.67.665 1.01.508.342 1.323.341.841 0 1.349-.34.515-.342.515-.843a.87.87 0 0 0-.332-.7q-.326-.278-1.017-.425l-1.708-.354q-1.44-.296-2.131-.997-.69-.706-.684-1.788-.006-.912.502-1.582.515-.675 1.427-1.041.92-.373 2.118-.373 1.76 0 2.77.74 1.017.738 1.258 2"></path><defs><linearGradient id="a" x1="27.974" x2="188.408" y1="12" y2="12" gradientUnits="userSpaceOnUse"><stop stop-color="#0184D8"></stop><stop offset="1" stop-color="#49AEEF"></stop></linearGradient><linearGradient id="b" x1="27.974" x2="188.408" y1="12" y2="12" gradientUnits="userSpaceOnUse"><stop stop-color="#0184D8"></stop><stop offset="1" stop-color="#49AEEF"></stop></linearGradient><linearGradient id="c" x1="27.974" x2="188.408" y1="12" y2="12" gradientUnits="userSpaceOnUse"><stop stop-color="#0184D8"></stop><stop offset="1" stop-color="#49AEEF"></stop></linearGradient><linearGradient id="d" x1="27.974" x2="188.408" y1="12" y2="12" gradientUnits="userSpaceOnUse"><stop stop-color="#0184D8"></stop><stop offset="1" stop-color="#49AEEF"></stop></linearGradient><linearGradient id="e" x1="27.974" x2="188.408" y1="12" y2="12" gradientUnits="userSpaceOnUse"><stop stop-color="#0184D8"></stop><stop offset="1" stop-color="#49AEEF"></stop></linearGradient><linearGradient id="f" x1="27.974" x2="188.408" y1="12" y2="12" gradientUnits="userSpaceOnUse"><stop stop-color="#0184D8"></stop><stop offset="1" stop-color="#49AEEF"></stop></linearGradient><linearGradient id="g" x1="27.974" x2="188.408" y1="12" y2="12" gradientUnits="userSpaceOnUse"><stop stop-color="#0184D8"></stop><stop offset="1" stop-color="#49AEEF"></stop></linearGradient><linearGradient id="h" x1="27.974" x2="188.408" y1="12" y2="12" gradientUnits="userSpaceOnUse"><stop stop-color="#0184D8"></stop><stop offset="1" stop-color="#49AEEF"></stop></linearGradient><linearGradient id="i" x1="27.974" x2="188.408" y1="12" y2="12" gradientUnits="userSpaceOnUse"><stop stop-color="#0184D8"></stop><stop offset="1" stop-color="#49AEEF"></stop></linearGradient><linearGradient id="j" x1="27.974" x2="188.408" y1="12" y2="12" gradientUnits="userSpaceOnUse"><stop stop-color="#0184D8"></stop><stop offset="1" stop-color="#49AEEF"></stop></linearGradient><linearGradient id="k" x1="27.974" x2="188.408" y1="12" y2="12" gradientUnits="userSpaceOnUse"><stop stop-color="#0184D8"></stop><stop offset="1" stop-color="#49AEEF"></stop></linearGradient><linearGradient id="l" x1="27.974" x2="188.408" y1="12" y2="12" gradientUnits="userSpaceOnUse"><stop stop-color="#0184D8"></stop><stop offset="1" stop-color="#49AEEF"></stop></linearGradient><linearGradient id="m" x1="27.974" x2="188.408" y1="12" y2="12" gradientUnits="userSpaceOnUse"><stop stop-color="#0184D8"></stop><stop offset="1" stop-color="#49AEEF"></stop></linearGradient><linearGradient id="n" x1="27.974" x2="188.408" y1="12" y2="12" gradientUnits="userSpaceOnUse"><stop stop-color="#0184D8"></stop><stop offset="1" stop-color="#49AEEF"></stop></linearGradient><linearGradient id="o" x1="27.974" x2="188.408" y1="12" y2="12" gradientUnits="userSpaceOnUse"><stop stop-color="#0184D8"></stop><stop offset="1" stop-color="#49AEEF"></stop></linearGradient><linearGradient id="p" x1="27.974" x2="188.408" y1="12" y2="12" gradientUnits="userSpaceOnUse"><stop stop-color="#0184D8"></stop><stop offset="1" stop-color="#49AEEF"></stop></linearGradient><linearGradient id="a" x1="27.974" x2="188.408" y1="12" y2="12" gradientUnits="userSpaceOnUse"><stop stop-color="#0184D8"></stop><stop offset="1" stop-color="#49AEEF"></stop></linearGradient><linearGradient id="b" x1="27.974" x2="188.408" y1="12" y2="12" gradientUnits="userSpaceOnUse"><stop stop-color="#0184D8"></stop><stop offset="1" stop-color="#49AEEF"></stop></linearGradient><linearGradient id="c" x1="27.974" x2="188.408" y1="12" y2="12" gradientUnits="userSpaceOnUse"><stop stop-color="#0184D8"></stop><stop offset="1" stop-color="#49AEEF"></stop></linearGradient><linearGradient id="d" x1="27.974" x2="188.408" y1="12" y2="12" gradientUnits="userSpaceOnUse"><stop stop-color="#0184D8"></stop><stop offset="1" stop-color="#49AEEF"></stop></linearGradient><linearGradient id="e" x1="27.974" x2="188.408" y1="12" y2="12" gradientUnits="userSpaceOnUse"><stop stop-color="#0184D8"></stop><stop offset="1" stop-color="#49AEEF"></stop></linearGradient><linearGradient id="f" x1="27.974" x2="188.408" y1="12" y2="12" gradientUnits="userSpaceOnUse"><stop stop-color="#0184D8"></stop><stop offset="1" stop-color="#49AEEF"></stop></linearGradient><linearGradient id="g" x1="27.974" x2="188.408" y1="12" y2="12" gradientUnits="userSpaceOnUse"><stop stop-color="#0184D8"></stop><stop offset="1" stop-color="#49AEEF"></stop></linearGradient><linearGradient id="h" x1="27.974" x2="188.408" y1="12" y2="12" gradientUnits="userSpaceOnUse"><stop stop-color="#0184D8"></stop><stop offset="1" stop-color="#49AEEF"></stop></linearGradient><linearGradient id="i" x1="27.974" x2="188.408" y1="12" y2="12" gradientUnits="userSpaceOnUse"><stop stop-color="#0184D8"></stop><stop offset="1" stop-color="#49AEEF"></stop></linearGradient><linearGradient id="j" x1="27.974" x2="188.408" y1="12" y2="12" gradientUnits="userSpaceOnUse"><stop stop-color="#0184D8"></stop><stop offset="1" stop-color="#49AEEF"></stop></linearGradient><linearGradient id="k" x1="27.974" x2="188.408" y1="12" y2="12" gradientUnits="userSpaceOnUse"><stop stop-color="#0184D8"></stop><stop offset="1" stop-color="#49AEEF"></stop></linearGradient><linearGradient id="l" x1="27.974" x2="188.408" y1="12" y2="12" gradientUnits="userSpaceOnUse"><stop stop-color="#0184D8"></stop><stop offset="1" stop-color="#49AEEF"></stop></linearGradient><linearGradient id="m" x1="27.974" x2="188.408" y1="12" y2="12" gradientUnits="userSpaceOnUse"><stop stop-color="#0184D8"></stop><stop offset="1" stop-color="#49AEEF"></stop></linearGradient><linearGradient id="n" x1="27.974" x2="188.408" y1="12" y2="12" gradientUnits="userSpaceOnUse"><stop stop-color="#0184D8"></stop><stop offset="1" stop-color="#49AEEF"></stop></linearGradient><linearGradient id="o" x1="27.974" x2="188.408" y1="12" y2="12" gradientUnits="userSpaceOnUse"><stop stop-color="#0184D8"></stop><stop offset="1" stop-color="#49AEEF"></stop></linearGradient><linearGradient id="p" x1="27.974" x2="188.408" y1="12" y2="12" gradientUnits="userSpaceOnUse"><stop stop-color="#0184D8"></stop><stop offset="1" stop-color="#49AEEF"></stop></linearGradient></defs></svg>