<?xml version="1.0" encoding="UTF-8" standalone="no"?>
<!-- Generator: Adobe Illustrator 16.0.0, SVG Export Plug-In . SVG Version: 6.00 Build 0)  -->

<svg
   xmlns:dc="http://purl.org/dc/elements/1.1/"
   xmlns:cc="http://creativecommons.org/ns#"
   xmlns:rdf="http://www.w3.org/1999/02/22-rdf-syntax-ns#"
   xmlns:svg="http://www.w3.org/2000/svg"
   xmlns="http://www.w3.org/2000/svg"
   xmlns:sodipodi="http://sodipodi.sourceforge.net/DTD/sodipodi-0.dtd"
   xmlns:inkscape="http://www.inkscape.org/namespaces/inkscape"
   version="1.1"
   id="Capa_1"
   x="0px"
   y="0px"
   width="1024"
   height="500"
   viewBox="0 0 1024 500"
   enable-background="new 0 0 792 232"
   xml:space="preserve"
   sodipodi:docname="brightid-feature-graphic.svg"
   inkscape:version="0.92.3 (2405546, 2018-03-11)"
   inkscape:export-filename="C:\Users\Adam\Pictures\BrightID\brightid-feature-graphic.png"
   inkscape:export-xdpi="96"
   inkscape:export-ydpi="96"><metadata
   id="metadata39"><rdf:RDF><cc:Work
       rdf:about=""><dc:format>image/svg+xml</dc:format><dc:type
         rdf:resource="http://purl.org/dc/dcmitype/StillImage" /><dc:title></dc:title></cc:Work></rdf:RDF></metadata><defs
   id="defs37" /><sodipodi:namedview
   pagecolor="#ffffff"
   bordercolor="#666666"
   borderopacity="1"
   objecttolerance="10"
   gridtolerance="10"
   guidetolerance="10"
   inkscape:pageopacity="1"
   inkscape:pageshadow="2"
   inkscape:window-width="1920"
   inkscape:window-height="1058"
   id="namedview35"
   showgrid="false"
   inkscape:zoom="2.2605338"
   inkscape:cx="94.694187"
   inkscape:cy="222.59244"
   inkscape:window-x="1912"
   inkscape:window-y="-8"
   inkscape:window-maximized="1"
   inkscape:current-layer="Capa_1" />
<g
   id="g32"
   transform="matrix(1.2355631,0,0,1.2355631,-3.0035932,97.741999)">
	<path
   d="m 251.571,70.591 h 14.457 v 35.844 h 0.591 c 2.654,-2.212 9.292,-5.752 18.438,-5.752 17.406,0 31.272,10.621 31.272,39.09 0,25.814 -13.424,44.253 -40.418,44.253 -11.062,0 -18.881,-1.917 -24.339,-4.573 V 70.591 Z m 50.154,70.805 c 0,-21.979 -9.588,-28.322 -20.356,-28.322 -6.048,0 -12.096,2.655 -15.194,6.933 v 49.858 c 2.95,1.18 7.081,1.917 11.506,1.917 14.456,10e-4 24.044,-9.882 24.044,-30.386 z"
   id="path2"
   inkscape:connector-curvature="0"
   style="opacity:0.5" />
	<path
   d="m 374.747,115.583 c -2.95,-0.738 -6.195,-1.181 -9.146,-1.181 -7.523,0 -15.489,3.098 -19.619,9.293 v 58.857 h -14.456 v -81.13 h 11.211 l 3.098,9.883 h 0.589 c 3.541,-6.491 10.769,-11.358 20.505,-11.358 3.392,0 6.047,0.294 7.817,0.737 v 14.899 z"
   id="path4"
   inkscape:connector-curvature="0"
   style="opacity:0.5" />
	<path
   d="m 393.187,68.673 c 5.605,0 9.735,4.131 9.735,9.884 0,5.31 -4.13,9.44 -9.735,9.44 -5.311,0 -9.589,-4.131 -9.589,-9.44 0,-5.753 4.278,-9.884 9.589,-9.884 z m -6.786,32.748 h 14.604 v 81.13 h -14.604 z"
   id="path6"
   inkscape:connector-curvature="0"
   style="opacity:0.5" />
	<path
   d="m 483.169,181.961 c 0,21.537 -13.866,32.158 -34.518,32.158 -16.669,0 -24.781,-5.458 -28.469,-9.293 l 8.408,-11.358 c 3.983,4.574 10.916,8.261 21.094,8.261 13.57,0 19.176,-6.195 19.176,-19.915 v -6.49 h -0.59 c -2.655,2.361 -9.146,5.9 -18.586,5.9 -16.816,0 -31.272,-9.734 -31.272,-37.91 0,-24.93 12.833,-42.778 39.533,-42.778 11.505,0 19.619,1.77 25.224,4.425 z m -26.403,-69.182 c -14.31,0 -23.602,9.587 -23.602,29.355 0,21.241 9.292,26.847 20.062,26.847 6.047,0 11.948,-2.508 15.488,-6.933 v -47.204 c -3.245,-1.327 -7.228,-2.065 -11.948,-2.065 z"
   id="path8"
   inkscape:connector-curvature="0"
   style="opacity:0.5" />
	<path
   d="m 566.222,126.792 v 55.76 h -14.603 v -53.104 c 0,-9.736 -4.869,-16.374 -14.899,-16.374 -9.44,0 -16.522,6.195 -19.325,12.686 v 56.791 H 502.791 V 70.591 h 14.604 v 39.533 h 0.59 c 2.95,-3.394 10.474,-9.884 22.864,-9.884 15.637,0 25.373,9.589 25.373,26.552 z"
   id="path10"
   inkscape:connector-curvature="0"
   style="opacity:0.5" />
	<path
   d="m 587.614,159.688 v -46.761 h -11.505 v -9.146 l 11.505,-2.95 4.72,-20.504 h 9.736 v 21.095 h 21.685 v 11.505 H 602.07 v 46.466 c 0,7.966 4.13,11.506 10.769,11.506 5.751,0 9.587,-1.328 12.095,-3.098 l 3.836,11.359 c -2.951,1.917 -8.556,4.129 -19.472,4.129 -13.57,0 -21.684,-7.08 -21.684,-23.601 z"
   id="path12"
   inkscape:connector-curvature="0"
   style="opacity:0.5" />
	<path
   d="m 641.164,79.146 h 18.438 v 103.406 h -18.438 z"
   id="path14"
   inkscape:connector-curvature="0" />
	<path
   d="m 682.616,79.146 h 30.239 c 32.748,0 47.499,16.227 47.499,49.86 0,29.207 -11.653,53.546 -47.351,53.546 H 682.615 V 79.146 Z m 18.439,87.916 h 10.767 c 21.685,0 29.503,-12.686 29.503,-36.288 0,-27.141 -11.359,-36.14 -29.797,-36.14 h -10.473 z"
   id="path16"
   inkscape:connector-curvature="0" />
	<g
   id="g30">
		<g
   id="g26">
			<g
   id="g24">
				<g
   id="g22">
					<path
   d="m 87.738,86.593 v 31.632 c 0,17.472 14.163,31.635 31.634,31.635 17.471,0 31.633,-14.163 31.633,-31.635 0,-17.471 -14.162,-31.634 -31.633,-31.634 -0.039,0 -0.077,0.003 -0.116,0.003 v -10e-4 z"
   id="path18"
   inkscape:connector-curvature="0"
   style="fill:#fb8a61" />
					<path
   d="m 124.364,18.356 h -12.75 -23.876 v 36.601 h 31.518 v 0.003 c 0.039,0 0.077,-0.003 0.116,-0.003 34.941,0 63.268,28.325 63.268,63.269 0,34.943 -28.327,63.268 -63.268,63.268 -34.942,0 -63.269,-28.325 -63.269,-63.268 V 86.593 h -35.68 v 28.949 h 0.233 c 0.043,53.72 43.604,97.254 97.333,97.254 53.756,0 97.336,-43.578 97.336,-97.335 0,-51.614 -40.179,-93.818 -90.961,-97.105 z"
   id="path20"
   inkscape:connector-curvature="0"
   style="fill:#fb8a61" />
				</g>
			</g>
		</g>
		<rect
   x="20.646999"
   y="18.356001"
   width="35.355999"
   height="36.868999"
   id="rect28"
   style="fill:#fb8a61" />
	</g>
</g>
</svg>