<svg width="163" height="102" viewBox="0 0 163 102" fill="none" xmlns="http://www.w3.org/2000/svg">
<path d="M48.0689 82.4191C70.7507 82.4191 89.1378 63.969 89.1378 41.2096C89.1378 18.4501 70.7507 0 48.0689 0C25.3872 0 7 18.4501 7 41.2096C7 63.969 25.3872 82.4191 48.0689 82.4191Z" fill="#FAE230"/>
<path d="M145.845 76.0606C144.551 76.0606 143.258 76.2036 141.965 76.6327C142.109 75.0594 142.252 73.4861 142.252 71.7697C142.252 46.4533 119.118 26 90.5242 26C62.6484 26 42.3882 49.6 38.796 71.7697C37.2154 81.6388 39.6581 90.9358 39.6581 90.9358C40.3766 93.7964 41.095 95.9418 41.6698 97.5152C49.2853 97.5152 57.0445 97.5152 64.6601 97.5152C93.3979 97.5152 106.33 98.8024 135.068 98.9455C143.977 98.9455 151.017 98.9455 155.184 98.9455C156.046 98.6594 158.202 97.6582 159.639 95.5127C160.788 93.6533 160.932 91.937 160.932 91.0788C160.932 82.783 154.179 76.0606 145.845 76.0606Z" fill="#78B7E5" stroke="#4599D4" stroke-width="4" stroke-miterlimit="10"/>
<path d="M89.9492 28.0024C62.9357 28.0024 43.2502 48.8849 39.9454 68.337C39.5143 70.4824 39.5143 72.4849 39.3706 74.3443C41.2386 74.4873 42.9628 74.6303 44.8308 74.6303C60.924 74.6303 74.7182 68.0509 84.7764 58.754C92.9667 62.4727 102.594 64.6182 112.652 64.6182C122.136 64.6182 130.901 62.3297 138.516 58.4679C133.056 41.0182 113.371 28.0024 89.9492 28.0024Z" fill="white"/>
<path d="M7.1847 93.6303C7.1847 96.777 9.77111 99.3515 12.9323 99.3515H94.8352C97.9964 99.3515 100.583 96.777 100.583 93.6303C100.583 91.9139 99.8643 90.4836 98.7148 89.4824C99.8643 87.0509 100.583 84.3333 100.583 81.4727C100.583 71.6036 92.5362 63.5939 82.6216 63.5939C78.5983 63.5939 74.8624 65.0242 71.8449 67.3127C71.1264 54.8691 60.7808 45 48.1362 45C44.2565 45 40.6643 46.0012 37.3595 47.5745C34.0546 45.8582 30.4624 45 26.5828 45C13.507 45 2.87402 55.5842 2.87402 68.6C2.87402 76.6097 6.89732 83.6182 12.9323 87.9091C9.77111 87.9091 7.1847 90.4836 7.1847 93.6303Z" fill="#78B7E5" stroke="#4599D4" stroke-width="4" stroke-miterlimit="10"/>
<path d="M70.5519 91.0558C67.2471 92.7721 63.6548 93.6303 59.7752 93.6303C47.1306 93.6303 36.7849 83.7612 36.0665 71.3176C33.049 73.6061 29.3131 75.0364 25.2898 75.0364C15.3752 75.0364 7.32861 67.0267 7.32861 57.1576C7.32861 55.8703 7.4723 54.583 7.75968 53.4388C12.0704 49.1479 17.9616 46.4303 24.5713 46.4303C28.4509 46.4303 32.0432 47.4315 35.348 49.0048C38.6529 47.2885 42.2451 46.4303 46.1247 46.4303C58.7694 46.4303 69.115 56.2994 69.8335 68.743C72.8509 66.4545 76.5869 65.0242 80.6102 65.0242C90.5247 65.0242 98.5713 73.0339 98.5713 82.903C98.5713 84.1903 98.4277 85.4776 98.1403 86.6218C93.8296 90.9127 87.9383 93.6303 81.3286 93.6303C77.449 93.6303 73.8568 92.7721 70.5519 91.0558Z" fill="white"/>
</svg>
