<svg width="100%" height="100%" viewBox="0 0 154 88" fill="none" xmlns="http://www.w3.org/2000/svg">
  <path
    d="M153.3 67C153.3 78.6 144 87.9 132.6 87.9H20.7C9.3 87.9 0 78.5 0 67V21C0 9.39998 9.3 0.0999756 20.7 0.0999756H132.6C144 0.0999756 153.3 9.49998 153.3 21V67Z"
    fill="#279DC1" />
  <path
    d="M132.6 0H20.7C9.3 0 0 9.4 0 20.9V43.2C0 54.8 9.3 64.1 20.7 64.1H132.6C144 64.1 153.3 54.7 153.3 43.2V20.9C153.3 9.4 144 0 132.6 0Z"
    fill="#4DAFD6" />
  <path
    d="M33 32.1C33 34.4 31.1 36.3 28.9 36.3H14C11.7 36.3 9.90002 34.4 9.90002 32.1C9.90002 29.8 11.8 27.9 14 27.9H28.8C31.1 27.9 33 29.8 33 32.1Z"
    fill="#73D2EF" />
  <path
    d="M51.6 51.7C51.6 54 49.7 55.9 47.5 55.9H32.7C30.4 55.9 28.6 54 28.6 51.7C28.6 49.4 30.5 47.5 32.7 47.5H47.5C49.8 47.5 51.6 49.3 51.6 51.7Z"
    fill="#73D2EF" />
  <path
    d="M108.3 36.3C108.3 38.6 106.4 40.5 104.2 40.5H89.4C87.1 40.5 85.3 38.6 85.3 36.3C85.3 34 87.2 32.1 89.4 32.1H104.2C106.5 32.1 108.3 34 108.3 36.3Z"
    fill="#2297B2" />
  <path
    d="M141.7 40.5C141.7 42.8 140.5 44.7001 139.1 44.7001H129.7C128.2 44.7001 127.1 42.8 127.1 40.5C127.1 38.2 128.3 36.3 129.7 36.3H139.1C140.5 36.3 141.7 38.2 141.7 40.5Z"
    fill="#2297B2" />
  <path
    d="M57 21C57 23.3 55.6 25.2001 54 25.2001H43.1C41.4 25.2001 40.1 23.3 40.1 21C40.1 18.7 41.5 16.8 43.1 16.8H54C55.6 16.8 57 18.6 57 21Z"
    fill="#73D2EF" />
</svg>