<svg width="186" height="78" viewBox="0 0 186 78" fill="none" xmlns="http://www.w3.org/2000/svg">
<path d="M146.621 52.0606C145.328 52.0606 144.035 52.2036 142.742 52.6327C142.885 51.0594 143.029 49.4861 143.029 47.7697C143.029 22.4533 119.895 2 91.301 2C63.4253 2 43.1651 25.6 39.5729 47.7697C37.9923 57.6388 40.435 66.9358 40.435 66.9358C41.1534 69.7964 41.8719 71.9418 42.4466 73.5152C50.0622 73.5152 57.8214 73.5152 65.4369 73.5152C94.1748 73.5152 107.107 74.8024 135.845 74.9455C144.753 74.9455 151.794 74.9455 155.961 74.9455C156.823 74.6594 158.979 73.6582 160.416 71.5127C161.565 69.6533 161.709 67.937 161.709 67.0788C161.709 58.783 154.955 52.0606 146.621 52.0606Z" fill="#78B7E5" stroke="#4599D4" stroke-width="4" stroke-miterlimit="10"/>
<path d="M90.7261 4.00244C63.7125 4.00244 44.0271 24.8849 40.7222 44.337C40.2912 46.4824 40.2912 48.4849 40.1475 50.3443C42.0154 50.4873 43.7397 50.6303 45.6077 50.6303C61.7009 50.6303 75.495 44.0509 85.5533 34.754C93.7436 38.4727 103.371 40.6182 113.429 40.6182C122.913 40.6182 131.678 38.3297 139.293 34.4679C133.833 17.0182 114.147 4.00244 90.7261 4.00244Z" fill="white"/>
<path d="M83.3978 5C70.8969 5 59.9765 11.7224 54.0852 21.8776C48.625 16.7285 41.1532 13.5818 33.1066 13.5818C16.0076 13.5818 2.21338 27.3127 2.21338 44.3333C2.21338 61.3539 16.0076 75.0848 33.1066 75.0848C33.2503 75.0848 33.394 75.0848 33.5377 75.0848C33.6813 75.0848 33.6813 75.0848 33.825 75.0848H85.5532C87.9959 75.0848 90.1512 73.5115 90.8697 71.3661C105.957 67.9333 117.165 54.6315 117.165 38.6121C117.165 20.0182 102.077 5 83.3978 5Z" fill="#78B7E5" stroke="#4599D4" stroke-width="4" stroke-miterlimit="10"/>
<path d="M111.13 20.1612C104.951 11.8654 95.0365 6.4303 83.9724 6.4303C71.4714 6.4303 60.5511 13.1527 54.6598 23.3079C49.1996 18.1588 41.7277 15.0121 33.6811 15.0121C17.1569 15.0121 3.65009 27.8848 2.93164 44.1903C9.11028 52.4861 19.0248 57.9212 30.0889 57.9212C42.5899 57.9212 53.5103 51.1988 59.4015 41.0436C64.8617 46.1927 72.3336 49.3394 80.3802 49.3394C96.9044 49.3394 110.411 36.4667 111.13 20.1612Z" fill="white"/>
<path d="M173.204 63.9091C179.239 59.6182 183.262 52.6097 183.262 44.6C183.262 31.5842 172.629 21 159.553 21C155.674 21 152.081 22.0012 148.777 23.5745C145.472 21.8582 141.879 21 138 21C125.355 21 115.01 30.8691 114.291 43.3127C111.274 41.0242 107.538 39.5939 103.514 39.5939C93.5998 39.5939 85.5532 47.6036 85.5532 57.4727C85.5532 60.3333 86.2717 63.0509 87.4212 65.4824C86.2717 66.4836 85.5532 68.057 85.5532 69.6303C85.5532 72.777 88.1396 75.3515 91.3008 75.3515H173.204C176.365 75.3515 178.951 72.777 178.951 69.6303C178.951 66.4836 176.365 63.9091 173.204 63.9091Z" fill="#78B7E5" stroke="#4599D4" stroke-width="4" stroke-miterlimit="10"/>
<path d="M115.584 67.0558C118.889 68.7721 122.481 69.6303 126.361 69.6303C139.006 69.6303 149.351 59.7612 150.07 47.3176C153.087 49.6061 156.823 51.0364 160.846 51.0364C170.761 51.0364 178.808 43.0267 178.808 33.1576C178.808 31.8703 178.664 30.583 178.377 29.4388C174.066 25.1479 168.175 22.4303 161.565 22.4303C157.685 22.4303 154.093 23.4315 150.788 25.0048C147.483 23.2885 143.891 22.4303 140.012 22.4303C127.367 22.4303 117.021 32.2994 116.303 44.743C113.285 42.4545 109.549 41.0242 105.526 41.0242C95.6115 41.0242 87.5649 49.0339 87.5649 58.903C87.5649 60.1903 87.7086 61.4776 87.996 62.6218C92.3067 66.9127 98.198 69.6303 104.808 69.6303C108.687 69.6303 112.28 68.6291 115.584 67.0558Z" fill="white"/>
</svg>
