<svg width="100%" height="100%" viewBox="0 0 200 152" fill="none" xmlns="http://www.w3.org/2000/svg">
  <path d="M196 49C196 76 174.1 98 147 98C120 98 98 76.1 98 49C98 21.9 119.9 0 147 0C174 0 196 21.9 196 49Z"
    fill="#FFE236" />
  <path
    d="M135.1 36.0999C135.1 38.1999 133.4 39.8999 131.4 39.8999H118C115.9 39.8999 114.3 38.1999 114.3 36.0999C114.3 33.9999 116 32.2999 118 32.2999H131.4C133.5 32.2999 135.1 33.9999 135.1 36.0999Z"
    fill="#FFF2BD" />
  <path
    d="M151.9 53.5999C151.9 55.6999 150.2 57.3999 148.2 57.3999H134.8C132.7 57.3999 131.1 55.6999 131.1 53.5999C131.1 51.4999 132.8 49.7999 134.8 49.7999H148.2C150.3 49.8999 151.9 51.5999 151.9 53.5999Z"
    fill="#FFF2BD" />
  <path
    d="M156.7 26C156.7 28.1 155.5 29.8 154 29.8H144.2C142.7 29.8 141.5 28.1 141.5 26C141.5 23.9 142.7 22.2 144.2 22.2H154C155.5 22.2 156.7 23.9 156.7 26Z"
    fill="#FFF2BD" />
  <path
    d="M137.9 112.3C137.9 122.7 129.6 131.1 119.3 131.1H18.6C8.30001 131.1 0 122.7 0 112.3V70.9C0 60.5 8.30001 52.1 18.6 52.1H119.3C129.6 52.1 137.9 60.5 137.9 70.9V112.3Z"
    fill="#279DC1" />
  <path
    d="M119.2 52H18.6C8.30001 52 0 60.4 0 70.8V90.9C0 101.3 8.30001 109.7 18.6 109.7H119.3C129.6 109.7 137.9 101.3 137.9 90.9V70.9C137.9 60.5 129.5 52 119.2 52Z"
    fill="#4DAFD6" />
  <path
    d="M29.6001 80.9C29.6001 83 27.9 84.7 25.9 84.7H12.5C10.4 84.7 8.80005 83 8.80005 80.9C8.80005 78.8 10.5 77.1 12.5 77.1H25.9C27.9 77.1 29.6001 78.8 29.6001 80.9Z"
    fill="#73D2EF" />
  <path
    d="M46.4001 98.5C46.4001 100.6 44.7001 102.3 42.7001 102.3H29.3001C27.2001 102.3 25.6001 100.6 25.6001 98.5C25.6001 96.4 27.3001 94.7 29.3001 94.7H42.7001C44.7001 94.7 46.4001 96.4 46.4001 98.5Z"
    fill="#73D2EF" />
  <path
    d="M51.2 70.9C51.2 73 50 74.7 48.5 74.7H38.7C37.2 74.7 36 73 36 70.9C36 68.8 37.2 67.1 38.7 67.1H48.5C50 67.1 51.2 68.8 51.2 70.9Z"
    fill="#73D2EF" />
  <path
    d="M199.2 128.5C199.2 141 189.2 151.1 176.9 151.1H117.3C105 151.1 95 141 95 128.5V111.2C95 98.7 105 88.6 117.3 88.6H176.9C189.2 88.6 199.2 98.7 199.2 111.2V128.5Z"
    fill="#279DC1" />
  <path
    d="M117.2 88.6C105.1 88.6 95.3 98.3 94.9 110.4C95.3 122.5 105.1 132.2 117.2 132.2H176.8C188.9 132.2 198.7 122.5 199.1 110.4C198.7 98.3 188.9 88.6 176.8 88.6H117.2Z"
    fill="#4DAFD6" />
  <path
    d="M153.5 113.8C153.5 116.3 151.5 118.3 149 118.3H133C130.5 118.3 128.5 116.3 128.5 113.8C128.5 111.3 130.5 109.3 133 109.3H149C151.5 109.3 153.5 111.3 153.5 113.8Z"
    fill="#73D2EF" />
  <path
    d="M133.8 99.9C133.8 102.4 132.3 104.4 130.5 104.4H118.8C117 104.4 115.5 102.4 115.5 99.9C115.5 97.4 117 95.4 118.8 95.4H130.5C132.3 95.4 133.8 97.4 133.8 99.9Z"
    fill="#73D2EF" />
  <path
    d="M81.6 84.7C81.6 87 79.7 88.9 77.5 88.9H62.7C60.4 88.9 58.6 87 58.6 84.7C58.6 82.4 60.5 80.5 62.7 80.5H77.5C79.7 80.5 81.6 82.4 81.6 84.7Z"
    fill="#2297B2" />
  <path
    d="M113.8 67.1C113.8 69.4 111.9 71.3 109.7 71.3H94.9001C92.6001 71.3 90.8 69.4 90.8 67.1C90.8 64.8 92.7001 62.9 94.9001 62.9H109.7C111.9 62.9 113.8 64.8 113.8 67.1Z"
    fill="#2297B2" />
  <path
    d="M181.3 102.3C181.3 104.6 179.4 106.5 177.2 106.5H162.4C160.1 106.5 158.3 104.6 158.3 102.3C158.3 100 160.2 98.1 162.4 98.1H177.2C179.4 98.1 181.3 100 181.3 102.3Z"
    fill="#2297B2" />
</svg>