<svg width="133" height="105" viewBox="0 0 133 105" fill="none" xmlns="http://www.w3.org/2000/svg">
<path d="M132.388 67.4672H0V104.283H132.388V67.4672Z" fill="#7C4D29"/>
<path d="M127.972 78.2606C127.972 81.0305 126.488 83.2764 124.658 83.2764H117.735C115.905 83.2764 114.422 81.0305 114.422 78.2606C114.422 75.4908 115.905 73.17 117.735 73.17H124.658C126.488 73.2449 127.972 75.4908 127.972 78.2606Z" fill="#56331B"/>
<path d="M58.2145 92.3347C58.2145 94.9067 56.0716 96.9921 53.4286 96.9921H43.4283C40.7853 96.9921 38.6424 94.9067 38.6424 92.3347C38.6424 89.7626 40.7853 87.6077 43.4283 87.6077H53.4286C56.0716 87.6772 58.2145 89.7626 58.2145 92.3347Z" fill="#56331B"/>
<path d="M70.7608 77.1751C70.7608 79.7472 69.202 81.8326 67.2275 81.8326H53.7182C51.7957 81.8326 50.1849 79.7472 50.1849 77.1751C50.1849 74.6031 51.7437 72.4481 53.7182 72.4481H67.2275C69.202 72.5176 70.7608 74.6031 70.7608 77.1751Z" fill="#56331B"/>
<path d="M33.6239 77.5387C33.6239 80.3086 31.7182 82.5545 29.3677 82.5545H12.8512C10.5007 82.5545 8.53143 80.3086 8.53143 77.5387C8.53143 74.7688 10.4372 72.4481 12.8512 72.4481H29.3677C31.7182 72.4481 33.6239 74.694 33.6239 77.5387Z" fill="#56331B"/>
<path d="M107.396 78.2606C107.396 81.0305 105.206 83.2764 102.432 83.2764H92.2125C89.5117 83.2764 87.3218 81.0305 87.3218 78.2606C87.3218 75.4908 89.5117 73.17 92.2125 73.17H102.432C105.206 73.17 107.396 75.4159 107.396 78.2606Z" fill="#56331B"/>
<path d="M97.3588 92.3347C97.3588 94.9067 95.6678 96.9921 93.5258 96.9921H85.6344C83.5488 96.9921 81.8015 94.9067 81.8015 92.3347C81.8015 89.7626 83.4925 87.6077 85.6344 87.6077H93.5258C95.6678 87.6772 97.3588 89.7626 97.3588 92.3347Z" fill="#56331B"/>
<path d="M132.388 58.3715H0V67.4672H132.388V58.3715Z" fill="#56331B"/>
<path d="M132.388 50.7916H0V59.8874H132.388V50.7916Z" fill="#7FC62E"/>
<path d="M64.8452 42.9978C62.7329 48.6757 62.8769 54.3536 65.1332 55.6685C67.3896 56.9833 70.9902 53.3973 73.1026 47.7194C75.2149 42.0415 75.0709 36.3636 72.8145 35.0488C70.5101 33.7339 66.9576 37.3199 64.8452 42.9978Z" fill="#65AD18"/>
<path d="M63.8851 55.8549V24.5828C63.8851 23.8934 63.3262 23.3346 62.6368 23.3346C61.9475 23.3346 61.3886 23.8934 61.3886 24.5828V55.8549C61.3886 56.5442 61.9475 57.1031 62.6368 57.1031C63.3262 57.1031 63.8851 56.5442 63.8851 55.8549Z" fill="#65AD18"/>
<path d="M71.2302 6.36065C71.2302 6.30088 71.2302 6.24111 71.2302 6.18135C71.2302 4.08949 69.934 2.41602 68.3498 2.41602C66.7655 2.41602 65.4693 4.08949 65.4693 6.18135C65.4693 4.08949 64.1731 2.41602 62.5888 2.41602C61.0046 2.41602 59.7084 4.08949 59.7084 6.18135C59.7084 4.08949 58.4121 2.41602 56.8279 2.41602C55.2436 2.41602 53.9474 4.08949 53.9474 6.18135C53.9474 6.24111 53.9474 6.30088 53.9474 6.36065C54.0914 16.5211 57.8841 24.7092 62.5888 24.7092C67.2936 24.7092 71.0862 16.5211 71.2302 6.36065Z" fill="#E8401F"/>
<path d="M15.3971 42.9982C17.5095 48.6761 17.3654 54.3539 15.1091 55.6688C12.8527 56.9837 9.2521 53.3977 7.13976 47.7198C5.02741 42.0419 5.17144 36.364 7.42781 35.0491C9.73218 33.7342 13.2848 37.3203 15.3971 42.9982Z" fill="#65AD18"/>
<path d="M18.8537 55.8549V24.5828C18.8537 23.8934 18.2948 23.3346 17.6055 23.3346C16.9161 23.3346 16.3573 23.8934 16.3573 24.5828V55.8549C16.3573 56.5442 16.9161 57.1031 17.6055 57.1031C18.2948 57.1031 18.8537 56.5442 18.8537 55.8549Z" fill="#65AD18"/>
<path d="M11.3788 19.148C13.6316 19.0701 15.4071 16.7334 15.3446 13.9288C15.282 11.1242 13.405 8.91378 11.1522 8.99167C8.89946 9.06955 7.12393 11.4063 7.18649 14.2109C7.24905 17.0155 9.12601 19.2259 11.3788 19.148Z" fill="#73D2EF"/>
<path d="M17.7015 16.7003C19.9579 16.7003 21.7822 18.9715 21.7822 21.7805C21.7822 24.5896 19.9579 26.8607 17.7015 26.8607C15.4451 26.8607 13.6208 24.5896 13.6208 21.7805C13.6208 19.0312 15.4451 16.7003 17.7015 16.7003Z" fill="#73D2EF"/>
<path d="M19.8618 13.8316C19.8618 11.0225 21.6861 8.75134 23.9425 8.75134C26.1989 8.75134 28.0232 11.0225 28.0232 13.8316C28.0232 16.6406 26.1989 18.9118 23.9425 18.9118C21.6861 18.9118 19.8618 16.6406 19.8618 13.8316Z" fill="#73D2EF"/>
<path d="M17.5095 11.1421C15.2531 11.1421 13.4288 8.87096 13.4288 6.0619C13.4288 3.25284 15.2531 0.981689 17.5095 0.981689C19.7658 0.981689 21.5901 3.25284 21.5901 6.0619C21.5901 8.87096 19.8138 11.1421 17.5095 11.1421Z" fill="#73D2EF"/>
<path d="M17.6055 19.0316C15.3491 19.0316 13.5248 16.7605 13.5248 13.9514C13.5248 11.1424 15.3491 8.87122 17.6055 8.87122C19.8618 8.87122 21.6861 11.1424 21.6861 13.9514C21.7342 16.7605 19.8618 19.0316 17.6055 19.0316Z" fill="#FFE236"/>
<path d="M119.286 42.9982C117.174 48.6761 117.318 54.3539 119.574 55.6688C121.831 56.9837 125.431 53.3977 127.543 47.7198C129.656 42.0419 129.512 36.364 127.255 35.0491C124.951 33.7342 121.398 37.3203 119.286 42.9982Z" fill="#65AD18"/>
<path d="M118.326 55.8549V24.5828C118.326 23.8934 117.767 23.3346 117.078 23.3346C116.388 23.3346 115.83 23.8934 115.83 24.5828V55.8549C115.83 56.5442 116.388 57.1031 117.078 57.1031C117.767 57.1031 118.326 56.5442 118.326 55.8549Z" fill="#65AD18"/>
<path d="M127.501 14.1689C127.554 11.364 125.771 9.03604 123.518 8.96927C121.265 8.90249 119.395 11.1222 119.342 13.927C119.288 16.7319 121.071 19.0599 123.324 19.1266C125.577 19.1934 127.447 16.9737 127.501 14.1689Z" fill="#279DC1"/>
<path d="M116.982 16.7003C114.725 16.7003 112.901 18.9715 112.901 21.7805C112.901 24.5896 114.725 26.8607 116.982 26.8607C119.238 26.8607 121.062 24.5896 121.062 21.7805C121.062 19.0312 119.238 16.7003 116.982 16.7003Z" fill="#279DC1"/>
<path d="M114.821 13.8316C114.821 11.0225 112.997 8.75134 110.741 8.75134C108.484 8.75134 106.66 11.0225 106.66 13.8316C106.66 16.6406 108.484 18.9118 110.741 18.9118C112.997 18.9118 114.821 16.6406 114.821 13.8316Z" fill="#279DC1"/>
<path d="M117.174 11.1421C119.43 11.1421 121.254 8.87096 121.254 6.0619C121.254 3.25284 119.43 0.981689 117.174 0.981689C114.917 0.981689 113.093 3.25284 113.093 6.0619C113.093 8.87096 114.869 11.1421 117.174 11.1421Z" fill="#279DC1"/>
<path d="M117.078 19.0316C119.334 19.0316 121.158 16.7605 121.158 13.9514C121.158 11.1424 119.334 8.87122 117.078 8.87122C114.821 8.87122 112.997 11.1424 112.997 13.9514C112.949 16.7605 114.821 19.0316 117.078 19.0316Z" fill="#FFE236"/>
<path d="M39.113 42.9977C41.2253 48.6756 41.0813 54.3535 38.8249 55.6683C36.5686 56.9832 32.968 53.3972 30.8556 47.7193C28.7433 42.0414 28.8873 36.3635 31.1437 35.0486C33.4 33.7338 37.0006 37.3198 39.113 42.9977Z" fill="#65AD18"/>
<path d="M43.0496 42.9976C40.9373 48.6754 41.0813 54.3533 43.3377 55.6682C45.5941 56.9831 49.1946 53.3971 51.307 47.7192C53.4193 42.0413 53.2753 36.3634 51.0189 35.0485C48.7146 33.7336 45.162 37.3197 43.0496 42.9976Z" fill="#65AD18"/>
<path d="M42.3295 55.8548V28.6469C42.3295 27.9575 41.7707 27.3987 41.0813 27.3987C40.392 27.3987 39.8331 27.9575 39.8331 28.6469V55.8548C39.8331 56.5441 40.392 57.103 41.0813 57.103C41.7707 57.103 42.3295 56.5441 42.3295 55.8548Z" fill="#65AD18"/>
<path d="M34.8538 29.7857C37.1066 29.7078 38.8821 27.3711 38.8195 24.5665C38.757 21.7619 36.88 19.5515 34.6272 19.6294C32.3744 19.7072 30.5989 22.044 30.6615 24.8486C30.724 27.6532 32.601 29.8636 34.8538 29.7857Z" fill="#73D2EF"/>
<path d="M41.1774 27.3987C43.4337 27.3987 45.258 29.6698 45.258 32.4789C45.258 35.288 43.4337 37.5591 41.1774 37.5591C38.921 37.5591 37.0967 35.288 37.0967 32.4789C37.0967 29.6698 38.873 27.3987 41.1774 27.3987Z" fill="#73D2EF"/>
<path d="M43.2897 24.47C43.2897 21.6609 45.114 19.3898 47.3703 19.3898C49.6267 19.3898 51.451 21.6609 51.451 24.47C51.451 27.279 49.6267 29.5502 47.3703 29.5502C45.162 29.61 43.2897 27.3388 43.2897 24.47Z" fill="#73D2EF"/>
<path d="M40.9853 21.8405C38.7289 21.8405 36.9046 19.5693 36.9046 16.7603C36.9046 13.9512 38.7289 11.6801 40.9853 11.6801C43.2417 11.6801 45.066 13.9512 45.066 16.7603C45.066 19.5096 43.2417 21.8405 40.9853 21.8405Z" fill="#73D2EF"/>
<path d="M41.0813 29.7298C38.8249 29.7298 37.0006 27.4586 37.0006 24.6495C37.0006 21.8405 38.8249 19.5693 41.0813 19.5693C43.3377 19.5693 45.162 21.8405 45.162 24.6495C45.162 27.3988 43.3377 29.7298 41.0813 29.7298Z" fill="#FFE236"/>
<path d="M89.7612 42.998C91.8736 48.6759 91.7296 54.3538 89.4732 55.6687C87.2168 56.9836 83.6162 53.3975 81.5039 47.7197C79.3916 42.0418 79.5356 36.3639 81.7919 35.049C84.0483 33.7341 87.6489 37.3202 89.7612 42.998Z" fill="#65AD18"/>
<path d="M93.6979 42.998C91.5855 48.6759 91.7296 54.3538 93.986 55.6687C96.2423 56.9836 99.8429 53.3975 101.955 47.7197C104.068 42.0418 103.924 36.3639 101.667 35.049C99.3628 33.7341 95.8102 37.3202 93.6979 42.998Z" fill="#65AD18"/>
<path d="M92.9778 55.8548V28.6469C92.9778 27.9575 92.4189 27.3987 91.7296 27.3987C91.0402 27.3987 90.4814 27.9575 90.4814 28.6469V55.8548C90.4814 56.5441 91.0402 57.103 91.7296 57.103C92.4189 57.103 92.9778 56.5441 92.9778 55.8548Z" fill="#65AD18"/>
<path d="M99.8429 13.2936C99.8429 13.2339 99.8429 13.1741 99.8429 13.1143C99.8429 11.0225 98.5467 9.349 96.9624 9.349C95.3782 9.349 94.082 11.0225 94.082 13.1143C94.082 11.0225 92.7858 9.349 91.2015 9.349C89.6172 9.349 88.321 11.0225 88.321 13.1143C88.321 11.0225 87.0248 9.349 85.4406 9.349C83.8563 9.349 82.5601 11.0225 82.5601 13.1143C82.5601 13.1741 82.5601 13.2339 82.5601 13.2936C82.7041 23.4541 86.4967 31.6422 91.2015 31.6422C95.9543 31.6422 99.7469 23.4541 99.8429 13.2936Z" fill="#FFE236"/>
<path d="M129.081 53.2183H6.41784C4.53635 53.2183 3.01111 54.7435 3.01111 56.625C3.01111 58.5065 4.53635 60.0317 6.41784 60.0317H129.081C130.963 60.0317 132.488 58.5065 132.488 56.625C132.488 54.7435 130.963 53.2183 129.081 53.2183Z" fill="#7FC62E"/>
</svg>
