<svg width="175" height="133" viewBox="0 0 175 133" fill="none" xmlns="http://www.w3.org/2000/svg">
<g clip-path="url(#clip0_126_506)">
<path d="M139.875 0C146.734 0 153.223 1.61828 158.98 4.49121C144.902 11.5137 135.25 26.0472 135.25 42.875C135.25 59.6964 144.939 74.2255 159.003 81.251C153.247 84.1273 146.753 85.75 139.875 85.75C116.25 85.75 97 66.5875 97 42.875C97 19.1625 116.163 0 139.875 0Z" fill="#FFF2BD"/>
<path d="M120.662 98.2624C120.662 107.362 113.4 114.712 104.388 114.712H16.275C7.26251 114.712 0 107.362 0 98.2624V62.0374C0 52.9374 7.26251 45.5874 16.275 45.5874H104.388C113.4 45.5874 120.662 52.9374 120.662 62.0374V98.2624Z" fill="#279DC1"/>
<path d="M104.3 45.5H16.275C7.26251 45.5 0 52.85 0 61.95V79.5375C0 88.6375 7.26251 95.9875 16.275 95.9875H104.388C113.4 95.9875 120.662 88.6375 120.662 79.5375V62.0375C120.662 52.9375 113.312 45.5 104.3 45.5Z" fill="#4DAFD6"/>
<path d="M25.9002 70.7874C25.9002 72.6249 24.4127 74.1124 22.6627 74.1124H10.9377C9.10015 74.1124 7.7002 72.6249 7.7002 70.7874C7.7002 68.9499 9.18765 67.4624 10.9377 67.4624H22.6627C24.4127 67.4624 25.9002 68.9499 25.9002 70.7874Z" fill="#73D2EF"/>
<path d="M40.5999 86.1874C40.5999 88.0249 39.1124 89.5124 37.3624 89.5124H25.6374C23.7999 89.5124 22.3999 88.0249 22.3999 86.1874C22.3999 84.3499 23.8874 82.8623 25.6374 82.8623H37.3624C39.1124 82.8623 40.5999 84.3499 40.5999 86.1874Z" fill="#73D2EF"/>
<path d="M44.8 62.0374C44.8 63.8749 43.75 65.3624 42.4375 65.3624H33.8625C32.55 65.3624 31.5 63.8749 31.5 62.0374C31.5 60.1999 32.55 58.7124 33.8625 58.7124H42.4375C43.75 58.7124 44.8 60.1999 44.8 62.0374Z" fill="#73D2EF"/>
<path d="M174.3 112.437C174.3 123.375 165.55 132.212 154.787 132.212H102.638C91.875 132.212 83.125 123.375 83.125 112.437V97.2999C83.125 86.3624 91.875 77.5249 102.638 77.5249H154.787C165.55 77.5249 174.3 86.3624 174.3 97.2999V112.437Z" fill="#279DC1"/>
<path d="M102.55 77.5249C91.9626 77.5249 83.3876 86.0124 83.0376 96.5999C83.3876 107.187 91.9626 115.675 102.55 115.675H154.7C165.288 115.675 173.863 107.187 174.213 96.5999C173.863 86.0124 165.288 77.5249 154.7 77.5249H102.55Z" fill="#4DAFD6"/>
<path d="M134.312 99.5752C134.312 101.762 132.562 103.512 130.375 103.512H116.375C114.188 103.512 112.438 101.762 112.438 99.5752C112.438 97.3877 114.188 95.6377 116.375 95.6377H130.375C132.562 95.6377 134.312 97.3877 134.312 99.5752Z" fill="#73D2EF"/>
<path d="M117.075 87.4126C117.075 89.6001 115.762 91.3501 114.188 91.3501H103.95C102.375 91.3501 101.062 89.6001 101.062 87.4126C101.062 85.2251 102.375 83.4751 103.95 83.4751H114.188C115.762 83.4751 117.075 85.2251 117.075 87.4126Z" fill="#73D2EF"/>
<path d="M71.3999 74.1125C71.3999 76.125 69.7374 77.7875 67.8124 77.7875H54.8624C52.8499 77.7875 51.2749 76.125 51.2749 74.1125C51.2749 72.1 52.9374 70.4375 54.8624 70.4375H67.8124C69.7374 70.4375 71.3999 72.1 71.3999 74.1125Z" fill="#2297B2"/>
<path d="M99.5752 58.7126C99.5752 60.7251 97.9127 62.3876 95.9877 62.3876H83.0378C81.0253 62.3876 79.4502 60.7251 79.4502 58.7126C79.4502 56.7001 81.1128 55.0376 83.0378 55.0376H95.9877C97.9127 55.0376 99.5752 56.7001 99.5752 58.7126Z" fill="#2297B2"/>
<path d="M158.638 89.5124C158.638 91.5249 156.975 93.1874 155.05 93.1874H142.1C140.088 93.1874 138.513 91.5249 138.513 89.5124C138.513 87.4999 140.175 85.8374 142.1 85.8374H155.05C156.975 85.8374 158.638 87.4999 158.638 89.5124Z" fill="#2297B2"/>
<path d="M131.675 58H128.325C126.489 58 125 59.4887 125 61.325C125 63.1613 126.489 64.65 128.325 64.65H131.675C133.511 64.65 135 63.1613 135 61.325C135 59.4887 133.511 58 131.675 58Z" fill="white"/>
<path d="M114.675 34H111.325C109.489 34 108 35.4887 108 37.325C108 39.1613 109.489 40.65 111.325 40.65H114.675C116.511 40.65 118 39.1613 118 37.325C118 35.4887 116.511 34 114.675 34Z" fill="white"/>
<path d="M126.675 21H123.325C121.489 21 120 22.4887 120 24.325C120 26.1613 121.489 27.65 123.325 27.65H126.675C128.511 27.65 130 26.1613 130 24.325C130 22.4887 128.511 21 126.675 21Z" fill="white"/>
</g>
<defs>
<clipPath id="clip0_126_506">
<rect width="175" height="133" fill="white"/>
</clipPath>
</defs>
</svg>
