<svg width="708" height="71" viewBox="0 0 708 71" fill="none" xmlns="http://www.w3.org/2000/svg">
  <path
    d="M350.5 50.3766C347.342 57.1843 347.558 63.992 350.93 65.5685C354.303 67.145 359.686 62.8455 362.843 56.0378C366.001 49.2301 365.786 42.4224 362.413 40.8459C358.968 39.2694 353.657 43.569 350.5 50.3766Z"
    fill="#65AD18" />
  <path d="M349.064 26.8007H345.333V67.2885H349.064V26.8007Z" fill="#65AD18" />
  <path
    d="M360.044 6.44928C360.044 6.37762 360.044 6.30595 360.044 6.23429C360.044 3.7262 358.107 1.71973 355.739 1.71973C353.37 1.71973 351.433 3.7262 351.433 6.23429C351.433 3.7262 349.495 1.71973 347.127 1.71973C344.759 1.71973 342.821 3.7262 342.821 6.23429C342.821 3.7262 340.883 1.71973 338.515 1.71973C336.147 1.71973 334.209 3.7262 334.209 6.23429C334.209 6.30595 334.209 6.37762 334.209 6.44928C334.425 18.6314 340.094 28.4488 347.127 28.4488C354.16 28.4488 359.829 18.6314 360.044 6.44928Z"
    fill="#E8401F" />
  <path
    d="M276.583 50.3771C279.741 57.1848 279.525 63.9924 276.152 65.569C272.78 67.1455 267.397 62.8459 264.24 56.0382C261.082 49.2305 261.297 42.4228 264.67 40.8463C268.115 39.2698 273.425 43.5694 276.583 50.3771Z"
    fill="#65AD18" />
  <path d="M281.75 26.8007H278.018V67.2885H281.75V26.8007Z" fill="#65AD18" />
  <path
    d="M270.576 21.7812C273.943 21.6878 276.598 18.8862 276.504 15.5235C276.411 12.1608 273.605 9.51054 270.237 9.60392C266.87 9.69731 264.216 12.499 264.309 15.8617C264.403 19.2243 267.208 21.8746 270.576 21.7812Z"
    fill="#73D2EF" />
  <path
    d="M280.028 18.8464C283.4 18.8464 286.127 21.5695 286.127 24.9375C286.127 28.3055 283.4 31.0286 280.028 31.0286C276.655 31.0286 273.928 28.3055 273.928 24.9375C273.928 21.6412 276.655 18.8464 280.028 18.8464Z"
    fill="#73D2EF" />
  <path
    d="M283.257 15.4068C283.257 12.0388 285.984 9.31573 289.356 9.31573C292.729 9.31573 295.456 12.0388 295.456 15.4068C295.456 18.7748 292.729 21.4979 289.356 21.4979C285.984 21.4979 283.257 18.7748 283.257 15.4068Z"
    fill="#73D2EF" />
  <path
    d="M279.74 12.1822C276.367 12.1822 273.64 9.4591 273.64 6.09109C273.64 2.72307 276.367 0 279.74 0C283.113 0 285.84 2.72307 285.84 6.09109C285.84 9.4591 283.185 12.1822 279.74 12.1822Z"
    fill="#73D2EF" />
  <path
    d="M279.884 21.6415C276.511 21.6415 273.784 18.9184 273.784 15.5504C273.784 12.1824 276.511 9.45935 279.884 9.45935C283.257 9.45935 285.984 12.1824 285.984 15.5504C286.055 18.9184 283.257 21.6415 279.884 21.6415Z"
    fill="#FFE236" />
  <path
    d="M431.88 50.3771C428.722 57.1848 428.937 63.9924 432.31 65.569C435.683 67.1455 441.066 62.8459 444.223 56.0382C447.381 49.2305 447.165 42.4228 443.793 40.8463C440.348 39.2698 435.037 43.5694 431.88 50.3771Z"
    fill="#65AD18" />
  <path d="M430.444 26.8007H426.713V67.2885H430.444V26.8007Z" fill="#65AD18" />
  <path
    d="M444.159 15.8112C444.239 12.4482 441.574 9.65705 438.206 9.57698C434.838 9.49692 432.043 12.1583 431.963 15.5213C431.883 18.8843 434.548 21.6754 437.916 21.7555C441.284 21.8356 444.079 19.1742 444.159 15.8112Z"
    fill="#279DC1" />
  <path
    d="M428.435 18.8464C425.062 18.8464 422.335 21.5695 422.335 24.9375C422.335 28.3055 425.062 31.0286 428.435 31.0286C431.808 31.0286 434.535 28.3055 434.535 24.9375C434.535 21.6412 431.808 18.8464 428.435 18.8464Z"
    fill="#279DC1" />
  <path
    d="M425.206 15.4068C425.206 12.0388 422.479 9.31573 419.106 9.31573C415.733 9.31573 413.006 12.0388 413.006 15.4068C413.006 18.7748 415.733 21.4979 419.106 21.4979C422.479 21.4979 425.206 18.7748 425.206 15.4068Z"
    fill="#279DC1" />
  <path
    d="M428.722 12.1822C432.095 12.1822 434.822 9.4591 434.822 6.09109C434.822 2.72307 432.095 0 428.722 0C425.349 0 422.622 2.72307 422.622 6.09109C422.622 9.4591 425.277 12.1822 428.722 12.1822Z"
    fill="#279DC1" />
  <path
    d="M428.579 21.6415C431.952 21.6415 434.679 18.9184 434.679 15.5504C434.679 12.1824 431.952 9.45935 428.579 9.45935C425.206 9.45935 422.479 12.1824 422.479 15.5504C422.407 18.9184 425.206 21.6415 428.579 21.6415Z"
    fill="#FFE236" />
  <path
    d="M312.034 50.3767C315.192 57.1844 314.977 63.9921 311.604 65.5686C308.231 67.1451 302.848 62.8455 299.691 56.0378C296.533 49.2301 296.749 42.4225 300.121 40.8459C303.494 39.2694 308.877 43.569 312.034 50.3767Z"
    fill="#65AD18" />
  <path
    d="M317.919 50.3766C314.762 57.1843 314.977 63.992 318.35 65.5685C321.723 67.145 327.105 62.8455 330.262 56.0378C333.42 49.2301 333.205 42.4224 329.832 40.8459C326.387 39.2694 321.077 43.569 317.919 50.3766Z"
    fill="#65AD18" />
  <path d="M316.843 31.6735H313.111V67.2885H316.843V31.6735Z" fill="#65AD18" />
  <path
    d="M305.668 34.5356C309.035 34.4422 311.689 31.6405 311.596 28.2778C311.502 24.9152 308.696 22.2649 305.329 22.3583C301.961 22.4516 299.307 25.2533 299.401 28.616C299.494 31.9787 302.3 34.6289 305.668 34.5356Z"
    fill="#73D2EF" />
  <path
    d="M315.12 31.6735C318.493 31.6735 321.22 34.3966 321.22 37.7646C321.22 41.1326 318.493 43.8557 315.12 43.8557C311.747 43.8557 309.02 41.1326 309.02 37.7646C309.02 34.3966 311.675 31.6735 315.12 31.6735Z"
    fill="#73D2EF" />
  <path
    d="M318.278 28.1623C318.278 24.7942 321.005 22.0712 324.378 22.0712C327.751 22.0712 330.478 24.7942 330.478 28.1623C330.478 31.5303 327.751 34.2533 324.378 34.2533C321.077 34.325 318.278 31.6019 318.278 28.1623Z"
    fill="#73D2EF" />
  <path
    d="M314.833 25.0093C311.46 25.0093 308.733 22.2862 308.733 18.9182C308.733 15.5502 311.46 12.8271 314.833 12.8271C318.206 12.8271 320.933 15.5502 320.933 18.9182C320.933 22.2146 318.206 25.0093 314.833 25.0093Z"
    fill="#73D2EF" />
  <path
    d="M314.977 34.4684C311.604 34.4684 308.877 31.7454 308.877 28.3773C308.877 25.0093 311.604 22.2863 314.977 22.2863C318.35 22.2863 321.077 25.0093 321.077 28.3773C321.077 31.6737 318.35 34.4684 314.977 34.4684Z"
    fill="#FFE236" />
  <path
    d="M387.745 50.377C390.903 57.1846 390.688 63.9923 387.315 65.5688C383.942 67.1454 378.559 62.8458 375.402 56.0381C372.244 49.2304 372.46 42.4227 375.832 40.8462C379.205 39.2697 384.588 43.5693 387.745 50.377Z"
    fill="#65AD18" />
  <path
    d="M393.63 50.377C390.473 57.1846 390.688 63.9923 394.061 65.5688C397.434 67.1454 402.816 62.8458 405.974 56.0381C409.131 49.2304 408.916 42.4227 405.543 40.8462C402.098 39.2697 396.788 43.5693 393.63 50.377Z"
    fill="#65AD18" />
  <path d="M392.554 31.6736H388.822V67.2886H392.554V31.6736Z" fill="#65AD18" />
  <path
    d="M402.816 14.7619C402.816 14.6902 402.816 14.6186 402.816 14.5469C402.816 12.0388 400.878 10.0323 398.51 10.0323C396.142 10.0323 394.204 12.0388 394.204 14.5469C394.204 12.0388 392.266 10.0323 389.898 10.0323C387.53 10.0323 385.592 12.0388 385.592 14.5469C385.592 12.0388 383.655 10.0323 381.286 10.0323C378.918 10.0323 376.981 12.0388 376.981 14.5469C376.981 14.6186 376.981 14.6902 376.981 14.7619C377.196 26.9441 382.865 36.7615 389.898 36.7615C397.003 36.7615 402.672 26.9441 402.816 14.7619Z"
    fill="#FFE236" />
  <path d="M708 63H0V71H708V63Z" fill="#7FC62E" />
  <path d="M487.4 63.6V37.6C487.4 33.6 484.2 30.4 480.2 30.4C476.2 30.4 473 33.6 473 37.6V63.6H487.4Z" fill="#7FC62E" />
  <path d="M515.4 63.6V37.6C515.4 33.6 512.2 30.4 508.2 30.4C504.2 30.4 501 33.6 501 37.6V63.6H515.4Z" fill="#7FC62E" />
  <path d="M539.2 63.6V37.6C539.2 33.6 536 30.4 532 30.4C528 30.4 524.8 33.6 524.8 37.6V63.6H539.2Z" fill="#7FC62E" />
  <path d="M501.7 63.6V49.6C501.7 45.6 498.5 42.4 494.5 42.4C490.5 42.4 487.3 45.6 487.3 49.6V63.6H501.7Z"
    fill="#65AD18" />
  <path d="M591.2 63.6V37.6C591.2 33.6 588 30.4 584 30.4C580 30.4 576.8 33.6 576.8 37.6V63.6H591.2Z" fill="#7FC62E" />
  <path d="M620.3 63.6V37.6C620.3 33.6 617.1 30.4 613.1 30.4C609.1 30.4 605.9 33.6 605.9 37.6V63.6H620.3Z"
    fill="#7FC62E" />
  <path d="M605.6 63.6V49.6C605.6 45.6 602.4 42.4 598.4 42.4C594.4 42.4 591.2 45.6 591.2 49.6V63.6H605.6Z"
    fill="#65AD18" />
  <path d="M647.2 63.6V49.6C647.2 45.6 644 42.4 640 42.4C636 42.4 632.8 45.6 632.8 49.6V63.6H647.2Z" fill="#65AD18" />
  <path d="M553.7 63.6V39.8C553.7 35.8 550.5 32.6 546.5 32.6C542.5 32.6 539.3 35.8 539.3 39.8V63.6H553.7Z"
    fill="#65AD18" />
  <path d="M568.2 63.6V32.2C568.2 28.2 565 25 561 25C557 25 553.8 28.2 553.8 32.2V63.6H568.2Z" fill="#7FC62E" />
  <path d="M676.1 63.6V37.6C676.1 33.6 672.9 30.4 668.9 30.4C664.9 30.4 661.7 33.6 661.7 37.6V63.6H676.1Z"
    fill="#7FC62E" />
  <path d="M690.6 63.6V39.8C690.6 35.8 687.4 32.6 683.4 32.6C679.4 32.6 676.2 35.8 676.2 39.8V63.6H690.6Z"
    fill="#65AD18" />
  <path d="M705 63.6V32.2C705 28.2 701.8 25 697.8 25C693.8 25 690.6 28.2 690.6 32.2V63.6H705Z" fill="#7FC62E" />
  <path d="M19.4 66.6V40.6C19.4 36.6 16.2 33.4 12.2 33.4C8.19998 33.4 5 36.6 5 40.6V66.6H19.4Z" fill="#7FC62E" />
  <path d="M47.4 66.6V40.6C47.4 36.6 44.2 33.4 40.2 33.4C36.2 33.4 33 36.6 33 40.6V66.6H47.4Z" fill="#7FC62E" />
  <path d="M71.2 66.6V40.6C71.2 36.6 68 33.4 64 33.4C60 33.4 56.8 36.6 56.8 40.6V66.6H71.2Z" fill="#7FC62E" />
  <path d="M33.7 66.6V52.6C33.7 48.6 30.5001 45.4 26.5001 45.4C22.5001 45.4 19.3 48.6 19.3 52.6V66.6H33.7Z"
    fill="#65AD18" />
  <path d="M123.2 66.6V40.6C123.2 36.6 120 33.4 116 33.4C112 33.4 108.8 36.6 108.8 40.6V66.6H123.2Z" fill="#7FC62E" />
  <path d="M152.3 66.6V40.6C152.3 36.6 149.1 33.4 145.1 33.4C141.1 33.4 137.9 36.6 137.9 40.6V66.6H152.3Z"
    fill="#7FC62E" />
  <path d="M137.6 66.6V52.6C137.6 48.6 134.4 45.4 130.4 45.4C126.4 45.4 123.2 48.6 123.2 52.6V66.6H137.6Z"
    fill="#65AD18" />
  <path d="M179.2 66.6V52.6C179.2 48.6 176 45.4 172 45.4C168 45.4 164.8 48.6 164.8 52.6V66.6H179.2Z" fill="#65AD18" />
  <path d="M85.7 66.6V42.8C85.7 38.8 82.5 35.6 78.5 35.6C74.5 35.6 71.3 38.8 71.3 42.8V66.6H85.7Z" fill="#65AD18" />
  <path d="M100.2 66.6V35.2C100.2 31.2 97 28 93 28C89 28 85.8 31.2 85.8 35.2V66.6H100.2Z" fill="#7FC62E" />
  <path d="M208.1 66.6V40.6C208.1 36.6 204.9 33.4 200.9 33.4C196.9 33.4 193.7 36.6 193.7 40.6V66.6H208.1Z"
    fill="#7FC62E" />
  <path d="M222.6 66.6V42.8C222.6 38.8 219.4 35.6 215.4 35.6C211.4 35.6 208.2 38.8 208.2 42.8V66.6H222.6Z"
    fill="#65AD18" />
  <path d="M237 66.6V35.2C237 31.2 233.8 28 229.8 28C225.8 28 222.6 31.2 222.6 35.2V66.6H237Z" fill="#7FC62E" />
</svg>