<svg width="734" height="105" viewBox="0 0 734 105" fill="none" xmlns="http://www.w3.org/2000/svg">
<path d="M704.047 100.506H29.7583C15.9173 100.506 4.61377 89.9153 4.61377 76.9468V31.1245C4.61377 18.1559 15.9173 7.56494 29.7583 7.56494H703.816C717.657 7.56494 728.96 18.1559 728.96 31.1245V76.9468C729.191 89.9153 717.888 100.506 704.047 100.506Z" fill="#7C4D29" stroke="#422918" stroke-width="4" stroke-miterlimit="10"/>
<path d="M47.29 41.9316L71.7424 15.346C75.664 11.0232 72.4345 4.32275 66.4367 4.32275H17.3011C11.0726 4.32275 7.84307 11.0232 11.9954 15.346L36.4478 41.7154C39.216 44.9576 44.2911 44.9576 47.29 41.9316Z" fill="#80BA36" stroke="#39A935" stroke-width="4" stroke-miterlimit="10"/>
<path d="M100.116 41.9316L124.569 15.346C128.49 11.0232 125.261 4.32275 119.263 4.32275H70.3582C64.1298 4.32275 60.9002 11.0232 65.0525 15.346L89.505 41.7154C92.2732 44.9576 97.3482 44.9576 100.116 41.9316Z" fill="#80BA36" stroke="#39A935" stroke-width="4" stroke-miterlimit="10"/>
<path d="M153.174 41.9316L177.626 15.346C181.548 11.0232 178.318 4.32275 172.32 4.32275H123.185C116.956 4.32275 113.727 11.0232 117.879 15.346L142.332 41.7154C145.1 44.9576 150.406 44.9576 153.174 41.9316Z" fill="#80BA36" stroke="#39A935" stroke-width="4" stroke-miterlimit="10"/>
<path d="M206.231 41.9316L230.683 15.346C234.605 11.0232 231.375 4.32275 225.378 4.32275H176.242C170.014 4.32275 166.784 11.0232 170.936 15.346L195.389 41.7154C198.157 44.9576 203.232 44.9576 206.231 41.9316Z" fill="#80BA36" stroke="#39A935" stroke-width="4" stroke-miterlimit="10"/>
<path d="M259.057 41.9318L283.51 15.5623C287.431 11.2395 284.202 4.53906 278.204 4.53906H229.299C223.071 4.53906 219.841 11.2395 223.993 15.5623L248.446 41.9318C251.214 44.9578 256.289 44.9578 259.057 41.9318Z" fill="#80BA36" stroke="#39A935" stroke-width="4" stroke-miterlimit="10"/>
<path d="M305.425 41.9316L329.877 15.346C333.799 11.0232 330.57 4.32275 324.572 4.32275H275.667C269.438 4.32275 266.209 11.0232 270.361 15.346L294.814 41.7154C297.582 44.9576 302.657 44.9576 305.425 41.9316Z" fill="#80BA36" stroke="#39A935" stroke-width="4" stroke-miterlimit="10"/>
<path d="M351.792 41.9318L376.245 15.5623C380.166 11.2395 376.937 4.53906 370.939 4.53906H322.034C315.806 4.53906 312.576 11.2395 316.728 15.5623L341.181 41.9318C343.949 44.9578 349.024 44.9578 351.792 41.9318Z" fill="#80BA36" stroke="#39A935" stroke-width="4" stroke-miterlimit="10"/>
<path d="M397.929 41.9318L422.382 15.5623C426.303 11.2395 423.074 4.53906 417.076 4.53906H368.171C361.943 4.53906 358.713 11.2395 362.865 15.5623L387.318 41.9318C389.855 44.9578 394.931 44.9578 397.929 41.9318Z" fill="#80BA36" stroke="#39A935" stroke-width="4" stroke-miterlimit="10"/>
<path d="M450.756 41.9316L475.209 15.346C479.13 11.0232 475.901 4.32275 469.903 4.32275H420.998C414.769 4.32275 411.54 11.0232 415.692 15.346L440.145 41.7154C442.913 44.9576 447.988 44.9576 450.756 41.9316Z" fill="#80BA36" stroke="#39A935" stroke-width="4" stroke-miterlimit="10"/>
<path d="M503.813 41.9316L528.266 15.346C532.187 11.0232 528.958 4.32275 522.96 4.32275H474.055C467.827 4.32275 464.597 11.0232 468.749 15.346L493.202 41.7154C495.739 44.9576 501.045 44.9576 503.813 41.9316Z" fill="#80BA36" stroke="#39A935" stroke-width="4" stroke-miterlimit="10"/>
<path d="M556.87 41.9316L581.323 15.346C585.244 11.0232 582.015 4.32275 576.017 4.32275H527.112C520.884 4.32275 517.654 11.0232 521.806 15.346L546.259 41.7154C548.796 44.9576 553.871 44.9576 556.87 41.9316Z" fill="#80BA36" stroke="#39A935" stroke-width="4" stroke-miterlimit="10"/>
<path d="M609.697 41.9318L634.149 15.5623C638.071 11.2395 634.842 4.53906 628.844 4.53906H579.939C573.71 4.53906 570.481 11.2395 574.633 15.5623L599.086 41.9318C601.854 44.9578 606.929 44.9578 609.697 41.9318Z" fill="#80BA36" stroke="#39A935" stroke-width="4" stroke-miterlimit="10"/>
<path d="M656.065 41.9316L680.517 15.346C684.439 11.0232 681.209 4.32275 675.211 4.32275H626.306C620.078 4.32275 616.848 11.0232 621.001 15.346L645.453 41.7154C648.221 44.9576 653.296 44.9576 656.065 41.9316Z" fill="#80BA36" stroke="#39A935" stroke-width="4" stroke-miterlimit="10"/>
<path d="M702.432 41.9318L726.884 15.5623C730.806 11.2395 727.576 4.53906 721.579 4.53906H672.674C666.445 4.53906 663.216 11.2395 667.368 15.5623L691.82 41.9318C694.589 44.9578 699.664 44.9578 702.432 41.9318Z" fill="#80BA36" stroke="#39A935" stroke-width="4" stroke-miterlimit="10"/>
<path d="M166.323 85.3766H122.493C118.11 85.3766 114.419 81.9183 114.419 77.8116C114.419 73.7049 118.11 70.2466 122.493 70.2466H166.323C170.706 70.2466 174.397 73.7049 174.397 77.8116C174.397 81.9183 170.706 85.3766 166.323 85.3766Z" fill="#422918"/>
<path d="M124.8 65.9234H80.9699C76.5869 65.9234 72.896 62.4652 72.896 58.3585C72.896 54.2517 76.5869 50.7935 80.9699 50.7935H124.8C129.183 50.7935 132.874 54.2517 132.874 58.3585C132.874 62.4652 129.183 65.9234 124.8 65.9234Z" fill="#422918"/>
<path d="M280.511 70.2464H238.988C235.067 70.2464 232.068 67.4365 232.068 63.7621C232.068 60.0877 235.067 57.2778 238.988 57.2778H280.511C284.433 57.2778 287.432 60.0877 287.432 63.7621C287.432 67.4365 284.433 70.2464 280.511 70.2464Z" fill="#422918"/>
<path d="M388.933 83.2151H361.251C357.329 83.2151 354.33 80.4053 354.33 76.7309C354.33 73.0564 357.329 70.2466 361.251 70.2466H388.933C392.854 70.2466 395.853 73.0564 395.853 76.7309C395.853 80.4053 392.854 83.2151 388.933 83.2151Z" fill="#422918"/>
<path d="M496.201 68.0851H452.371C447.988 68.0851 444.297 64.6268 444.297 60.5201C444.297 56.4134 447.988 52.9551 452.371 52.9551H496.201C500.584 52.9551 504.275 56.4134 504.275 60.5201C504.275 64.6268 500.584 68.0851 496.201 68.0851Z" fill="#422918"/>
<path d="M594.241 85.3763H552.718C548.796 85.3763 545.797 82.5664 545.797 78.892C545.797 75.2176 548.796 72.4077 552.718 72.4077H594.241C598.163 72.4077 601.161 75.2176 601.161 78.892C601.161 82.5664 598.163 85.3763 594.241 85.3763Z" fill="#422918"/>
<path d="M691.128 68.0848H663.446C659.524 68.0848 656.525 65.2749 656.525 61.6005C656.525 57.9261 659.524 55.1162 663.446 55.1162H691.128C695.05 55.1162 698.048 57.9261 698.048 61.6005C698.048 65.2749 695.05 68.0848 691.128 68.0848Z" fill="#422918"/>
</svg>
