<svg width="356" height="95" viewBox="0 0 356 95" fill="none" xmlns="http://www.w3.org/2000/svg">
<path d="M355.8 45.2002H0.400391V94.2002H355.8V45.2002Z" fill="#C1A36F"/>
<path d="M38.7008 61.2998C38.7008 64.8998 35.8008 67.7998 32.2008 67.7998H18.8008C15.2008 67.7998 12.3008 64.8998 12.3008 61.2998C12.3008 57.6998 15.2008 54.7998 18.8008 54.7998H32.2008C35.8008 54.7998 38.7008 57.6998 38.7008 61.2998Z" fill="#B58A4D"/>
<path d="M141.3 59.3999C141.3 62.9999 138.4 65.8999 134.8 65.8999H121.4C117.8 65.8999 114.9 62.9999 114.9 59.3999C114.9 55.7999 117.8 52.8999 121.4 52.8999H134.8C138.4 52.8999 141.3 55.7999 141.3 59.3999Z" fill="#B58A4D"/>
<path d="M167.701 78.2998C167.701 81.8998 164.801 84.7998 161.201 84.7998H147.801C144.201 84.7998 141.301 81.8998 141.301 78.2998C141.301 74.6998 144.201 71.7999 147.801 73.6999H161.201C164.801 71.7999 167.701 74.6998 167.701 78.2998Z" fill="#B58A4D"/>
<path d="M294.3 78.2998C294.3 81.8998 291.4 84.7998 287.8 84.7998H274.4C270.8 84.7998 267.9 81.8998 267.9 78.2998C267.9 74.6998 270.8 71.7998 274.4 71.7998H287.8C291.4 71.7998 294.3 74.6998 294.3 78.2998Z" fill="#B58A4D"/>
<path d="M69.4004 80.2002C69.4004 83.8002 66.5004 86.7002 62.9004 86.7002H37.9004C34.3004 86.7002 31.4004 83.8002 31.4004 80.2002C31.4004 76.6002 34.3004 73.7002 37.9004 73.7002H62.9004C66.5004 73.7002 69.4004 76.6002 69.4004 80.2002Z" fill="#B58A4D"/>
<path d="M340.9 59.3999C340.9 62.9999 338 65.8999 334.4 65.8999H309.4C305.8 65.8999 302.9 62.9999 302.9 59.3999C302.9 55.7999 305.8 52.8999 309.4 52.8999H334.4C338 52.8999 340.9 55.7999 340.9 59.3999Z" fill="#B58A4D"/>
<path d="M226.101 65.8999C226.101 69.4999 223.201 72.3999 219.601 72.3999H194.601C191.001 72.3999 188.101 69.4999 188.101 65.8999C188.101 62.2999 191.001 59.3999 194.601 59.3999H219.601C223.201 59.3999 226.101 62.2999 226.101 65.8999Z" fill="#B58A4D"/>
<path d="M355.8 33.2002H0.400391V45.3002H355.8V33.2002Z" fill="#A07138"/>
<path d="M355.8 23H0.400391V35.1H355.8V23Z" fill="#C1A36F"/>
<path d="M68.3004 12.2998C68.3004 18.8998 62.9004 24.2998 56.3004 24.2998H28.9004C22.3004 24.2998 16.9004 18.8998 16.9004 12.2998C16.9004 5.6998 22.3004 0.299805 28.9004 0.299805H56.3004C62.9004 0.299805 68.3004 5.6998 68.3004 12.2998Z" fill="#A07138"/>
<path d="M116.701 14.4C116.701 19.9 112.301 24.3 106.801 24.3H84.2008C78.7008 24.3 74.3008 19.9 74.3008 14.4C74.3008 8.90002 78.7008 4.5 84.2008 4.5H106.801C112.301 4.5 116.701 8.90002 116.701 14.4Z" fill="#BA8C5A"/>
<path d="M227.3 15.6996C227.3 20.4996 223.4 24.2996 218.7 24.2996H199.1C194.3 24.2996 190.5 20.3996 190.5 15.6996C190.5 10.8996 194.4 7.09961 199.1 7.09961H218.7C223.5 7.09961 227.3 10.8996 227.3 15.6996Z" fill="#A07138"/>
<path d="M329.3 17C329.3 21 326 24.2999 322 24.2999H305.3C301.3 24.2999 298 21 298 17C298 13 301.3 9.69997 305.3 9.69997H322C326 9.59997 329.3 12.9 329.3 17Z" fill="#A07138"/>
<path d="M283.9 12.9C283.9 19.2 278.8 24.3 272.5 24.3H246.6C240.3 24.3 235.2 19.2 235.2 12.9C235.2 6.60002 240.3 1.5 246.6 1.5H272.5C278.9 1.6 283.9 6.70002 283.9 12.9Z" fill="#BA8C5A"/>
</svg>
