<svg width="363" height="92" viewBox="0 0 363 92" fill="none" xmlns="http://www.w3.org/2000/svg">
<path d="M345.845 30.8926V21.3166L337.529 5.69263H341.885L347.753 17.2846L353.621 5.69263H357.977L349.661 21.3166V30.8926H345.845Z" fill="#00433B"/>
<path d="M313.783 30.8926V5.69263H322.783C325.399 5.69263 327.379 6.29263 328.723 7.49263C330.067 8.69263 330.739 10.2406 330.739 12.1366C330.739 13.6006 330.355 14.7886 329.587 15.7006C328.819 16.6126 327.931 17.2726 326.923 17.6806V17.9326C328.123 18.3646 329.155 19.0726 330.019 20.0566C330.883 21.0166 331.315 22.2886 331.315 23.8726C331.315 25.1686 330.991 26.3566 330.343 27.4366C329.719 28.4926 328.795 29.3326 327.571 29.9566C326.347 30.5806 324.847 30.8926 323.071 30.8926H313.783ZM317.599 16.2046H322.315C323.779 16.2046 324.895 15.9166 325.663 15.3406C326.431 14.7406 326.815 13.8406 326.815 12.6406C326.815 10.2646 325.291 9.07663 322.243 9.07663H317.599V16.2046ZM317.599 27.3646H322.567C324.127 27.3646 325.327 27.0286 326.167 26.3566C327.007 25.6846 327.427 24.7006 327.427 23.4046C327.427 22.1326 326.983 21.1606 326.095 20.4886C325.207 19.7926 324.007 19.4446 322.495 19.4446H317.599V27.3646Z" fill="#00433B"/>
<path d="M274.246 30.8926V5.69263H280.294C284.35 5.69263 287.362 6.82063 289.33 9.07663C291.298 11.3086 292.282 14.3806 292.282 18.2926C292.282 22.2046 291.298 25.2886 289.33 27.5446C287.362 29.7766 284.35 30.8926 280.294 30.8926H274.246ZM278.062 27.3646H280.15C283.078 27.3646 285.19 26.5486 286.486 24.9166C287.782 23.2606 288.43 21.0526 288.43 18.2926C288.43 15.5326 287.782 13.3366 286.486 11.7046C285.19 10.0486 283.078 9.22063 280.15 9.22063H278.062V27.3646Z" fill="#00433B"/>
<path d="M249.889 30.8926V5.69263H265.981V9.11263H253.705V16.4566H264.901V19.8406H253.705V27.4726H265.981V30.8926H249.889Z" fill="#00433B"/>
<path d="M223.299 30.8926V5.69263H227.115V16.1326H238.131V5.69263H241.947V30.8926H238.131V19.6246H227.115V30.8926H223.299Z" fill="#00433B"/>
<path d="M207.508 31.3247C205.396 31.3247 203.596 30.7847 202.108 29.7047C200.644 28.6247 199.516 27.1127 198.724 25.1687C197.956 23.2007 197.572 20.9207 197.572 18.3287C197.572 15.7127 197.956 13.4327 198.724 11.4887C199.516 9.52074 200.656 7.99674 202.144 6.91674C203.632 5.81274 205.42 5.26074 207.508 5.26074C210.22 5.26074 212.38 6.00474 213.988 7.49274C215.596 8.95674 216.532 10.9487 216.796 13.4687H212.584C212.368 12.1487 211.828 11.0567 210.964 10.1927C210.124 9.30474 208.96 8.86074 207.472 8.86074C205.576 8.86074 204.1 9.70074 203.044 11.3807C201.988 13.0607 201.46 15.3767 201.46 18.3287C201.46 21.2567 201.988 23.5607 203.044 25.2407C204.1 26.8967 205.576 27.7247 207.472 27.7247C209.008 27.7247 210.184 27.3287 211 26.5367C211.816 25.7207 212.344 24.6527 212.584 23.3327H216.796C216.412 25.8047 215.44 27.7607 213.88 29.2007C212.32 30.6167 210.196 31.3247 207.508 31.3247Z" fill="#00433B"/>
<path d="M180.342 30.8926V9.11263H173.574V5.69263H190.926V9.11263H184.158V30.8926H180.342Z" fill="#00433B"/>
<path d="M147.273 30.8926L154.797 5.69263H159.333L166.857 30.8926H162.717L161.025 24.8446H153.105L151.413 30.8926H147.273ZM156.957 11.0926L153.969 21.7846H160.161L157.173 11.0926H156.957Z" fill="#00433B"/>
<path d="M122.627 30.8926V5.69263H126.659L131.879 17.0686L137.099 5.69263H141.131V30.8926H137.495V12.9646L133.391 21.9646H130.367L126.263 13.0006V30.8926H122.627Z" fill="#00433B"/>
<path d="M195.576 83.8404V53.2338H186.475V44.2581H214.885V53.236H205.783V83.8425H195.578L195.576 83.8404Z" fill="#00433B"/>
<path d="M121 64.2076C121 51.9225 130.874 43.5227 143.342 43.5227C150.844 43.5227 157.629 46.4091 161.987 52.6048L152.995 57.0661C150.567 53.9162 147.422 52.2371 143.451 52.2371C136.445 52.2371 131.535 57.4338 131.535 64.2586C131.535 71.0835 136.887 76.1761 143.121 76.1761C148.251 76.1761 151.947 73.2365 152.609 69.3512V69.2981H143.893V61.8441H164.028V63.5232C164.028 76.4375 155.919 84.5227 143.011 84.5227C130.818 84.5227 121 76.176 121 64.2076Z" fill="#00433B"/>
<path d="M171.027 83.8404V44.2581H181.232V83.8404H171.027Z" fill="#00433B"/>
<path d="M304.832 83.8404V44.2581H315.037V83.8404H304.832Z" fill="#00433B"/>
<path d="M353.013 44.2581H362.999V83.8404H354.724L333.872 58.9046L334.038 83.8404H323.998V44.2581H332.494L353.346 69.0366L353.016 44.2581H353.013Z" fill="#00433B"/>
<path d="M239.609 75.547C233.266 75.547 227.915 70.8221 227.915 64.0504C227.915 57.6464 233.045 52.5538 239.721 52.5538C243.009 52.5538 245.879 53.7377 247.967 55.6974C248.974 52.6367 250.542 49.7738 252.626 47.2147C248.977 44.8958 244.536 43.5759 239.774 43.5759C227.528 43.5759 217.377 52.2903 217.377 63.9973C217.377 76.2824 227.582 84.5228 239.609 84.5228C244.411 84.5228 248.885 83.2433 252.555 80.969C250.495 78.4121 248.943 75.5321 247.949 72.4332C245.83 74.3844 242.917 75.547 239.609 75.547Z" fill="#00433B"/>
<path d="M276.191 43.5759C268.505 43.5759 261.646 47.0085 257.601 52.4582C255.202 55.6931 253.793 59.638 253.793 63.9973C253.793 68.3566 255.198 72.5522 257.579 75.7829C261.615 81.2602 268.46 84.5228 276.025 84.5228C288.327 84.5228 298.479 76.123 298.479 64.1014C298.479 52.0799 288.383 43.5759 276.191 43.5759ZM276.025 75.547C269.682 75.547 264.331 70.8221 264.331 64.0504C264.331 57.6464 269.461 52.5538 276.137 52.5538C282.813 52.5538 287.943 57.5933 287.943 64.1036C287.943 70.6138 282.813 75.547 276.027 75.547H276.025Z" fill="#00433B"/>
<path d="M75.5743 65.5284C62.419 88.314 36.5278 97.9942 17.7446 87.1498C-1.03855 76.3053 -5.60085 49.0427 7.55445 26.2571C20.7097 3.47144 46.601 -6.2088 65.3842 4.63567C84.1673 15.4801 88.7296 42.7427 75.5743 65.5284Z" fill="#D3F0ED"/>
<path fill-rule="evenodd" clip-rule="evenodd" d="M104.655 36.7622L85.0274 17.1349C79.1487 11.253 69.1008 15.4191 69.1008 23.7322V28.2908C69.1008 31.5546 66.4543 34.2011 63.1841 34.2011H41.0464C36.092 34.2011 31.6474 37.9145 31.3878 42.8657C31.1124 48.1461 35.3133 52.5147 40.5304 52.5147H63.1841C66.4543 52.5147 69.1008 55.1612 69.1008 58.4282V62.9837C69.1008 71.2968 79.1487 75.4629 85.0274 69.581L104.655 49.9568C108.298 46.3131 108.298 40.4028 104.655 36.7622" fill="#00433B"/>
</svg>
