<svg width="271" height="49" viewBox="0 0 271 49" fill="none" xmlns="http://www.w3.org/2000/svg">
<path d="M34.0006 38.8001V12.8001C34.0006 8.8001 30.8006 5.6001 26.8006 5.6001C22.8006 5.6001 19.6006 8.8001 19.6006 12.8001V38.8001H34.0006Z" fill="#7FC62E"/>
<path d="M62.0006 38.8001V12.8001C62.0006 8.8001 58.8006 5.6001 54.8006 5.6001C50.8006 5.6001 47.6006 8.8001 47.6006 12.8001V38.8001H62.0006Z" fill="#7FC62E"/>
<path d="M85.8004 38.8001V12.8001C85.8004 8.8001 82.6003 5.6001 78.6003 5.6001C74.6003 5.6001 71.4004 8.8001 71.4004 12.8001V38.8001H85.8004Z" fill="#7FC62E"/>
<path d="M48.3004 38.8001V24.8001C48.3004 20.8001 45.1004 17.6001 41.1004 17.6001C37.1004 17.6001 33.9004 20.8001 33.9004 24.8001V38.8001H48.3004Z" fill="#65AD18"/>
<path d="M137.8 38.8001V12.8001C137.8 8.8001 134.6 5.6001 130.6 5.6001C126.6 5.6001 123.4 8.8001 123.4 12.8001V38.8001H137.8Z" fill="#7FC62E"/>
<path d="M166.901 38.8001V12.8001C166.901 8.8001 163.701 5.6001 159.701 5.6001C155.701 5.6001 152.501 8.8001 152.501 12.8001V38.8001H166.901Z" fill="#7FC62E"/>
<path d="M152.201 38.8001V24.8001C152.201 20.8001 149.001 17.6001 145.001 17.6001C141.001 17.6001 137.801 20.8001 137.801 24.8001V38.8001H152.201Z" fill="#65AD18"/>
<path d="M193.8 38.8001V24.8001C193.8 20.8001 190.6 17.6001 186.6 17.6001C182.6 17.6001 179.4 20.8001 179.4 24.8001V38.8001H193.8Z" fill="#65AD18"/>
<path d="M100.3 38.8003V15.0003C100.3 11.0003 97.1003 7.80029 93.1003 7.80029C89.1003 7.80029 85.9004 11.0003 85.9004 15.0003V38.8003H100.3Z" fill="#65AD18"/>
<path d="M114.8 38.8002V7.4002C114.8 3.4002 111.6 0.200195 107.6 0.200195C103.6 0.200195 100.4 3.4002 100.4 7.4002V38.8002H114.8Z" fill="#7FC62E"/>
<path d="M222.701 38.8001V12.8001C222.701 8.8001 219.501 5.6001 215.501 5.6001C211.501 5.6001 208.301 8.8001 208.301 12.8001V38.8001H222.701Z" fill="#7FC62E"/>
<path d="M237.201 38.8003V15.0003C237.201 11.0003 234.001 7.80029 230.001 7.80029C226.001 7.80029 222.801 11.0003 222.801 15.0003V38.8003H237.201Z" fill="#65AD18"/>
<path d="M251.6 38.8002V7.4002C251.6 3.4002 248.4 0.200195 244.4 0.200195C240.4 0.200195 237.2 3.4002 237.2 7.4002V38.8002H251.6Z" fill="#7FC62E"/>
<path d="M270.6 37.6001H0.900391V49.0001H270.6V37.6001Z" fill="#4D8907"/>
</svg>
