<svg width="356" height="72" viewBox="0 0 356 72" fill="none" xmlns="http://www.w3.org/2000/svg">
<path d="M355.4 22.2002H0V71.2002H355.4V22.2002Z" fill="#C1A36F"/>
<path d="M38.3004 38.2998C38.3004 41.8998 35.4004 44.7998 31.8004 44.7998H18.4004C14.8004 44.7998 11.9004 41.8998 11.9004 38.2998C11.9004 34.6998 14.8004 31.7998 18.4004 31.7998H31.8004C35.4004 31.7998 38.3004 34.6998 38.3004 38.2998Z" fill="#B58A4D"/>
<path d="M140.9 36.3999C140.9 39.9999 138 42.8999 134.4 42.8999H121C117.4 42.8999 114.5 39.9999 114.5 36.3999C114.5 32.7999 117.4 29.8999 121 29.8999H134.4C138 29.8999 140.9 32.7999 140.9 36.3999Z" fill="#B58A4D"/>
<path d="M167.3 55.2998C167.3 58.8998 164.4 61.7998 160.8 61.7998H147.4C143.8 61.7998 140.9 58.8998 140.9 55.2998C140.9 51.6998 143.8 48.7999 147.4 50.6999H160.8C164.4 48.7999 167.3 51.6998 167.3 55.2998Z" fill="#B58A4D"/>
<path d="M293.9 55.2998C293.9 58.8998 291 61.7998 287.4 61.7998H274C270.4 61.7998 267.5 58.8998 267.5 55.2998C267.5 51.6998 270.4 48.7998 274 48.7998H287.4C291 48.7998 293.9 51.6998 293.9 55.2998Z" fill="#B58A4D"/>
<path d="M69 57.2002C69 60.8002 66.1 63.7002 62.5 63.7002H37.5C33.9 63.7002 31 60.8002 31 57.2002C31 53.6002 33.9 50.7002 37.5 50.7002H62.5C66.1 50.7002 69 53.6002 69 57.2002Z" fill="#B58A4D"/>
<path d="M340.5 36.3999C340.5 39.9999 337.6 42.8999 334 42.8999H309C305.4 42.8999 302.5 39.9999 302.5 36.3999C302.5 32.7999 305.4 29.8999 309 29.8999H334C337.6 29.8999 340.5 32.7999 340.5 36.3999Z" fill="#B58A4D"/>
<path d="M225.7 42.8999C225.7 46.4999 222.8 49.3999 219.2 49.3999H194.2C190.6 49.3999 187.7 46.4999 187.7 42.8999C187.7 39.2999 190.6 36.3999 194.2 36.3999H219.2C222.8 36.3999 225.7 39.2999 225.7 42.8999Z" fill="#B58A4D"/>
<path d="M355.4 10.2002H0V22.3002H355.4V10.2002Z" fill="#A07138"/>
<path d="M355.4 0H0V12.1H355.4V0Z" fill="#C1A36F"/>
</svg>
