<svg width="1249" height="49" viewBox="0 0 1249 49" fill="none" xmlns="http://www.w3.org/2000/svg">
<path d="M33.1002 38.5999V12.5999C33.1002 8.5999 29.9002 5.3999 25.9002 5.3999C21.9002 5.3999 18.7002 8.5999 18.7002 12.5999V38.5999H33.1002Z" fill="#7FC62E"/>
<path d="M61.1002 38.5999V12.5999C61.1002 8.5999 57.9002 5.3999 53.9002 5.3999C49.9002 5.3999 46.7002 8.5999 46.7002 12.5999V38.5999H61.1002Z" fill="#7FC62E"/>
<path d="M84.9 38.5999V12.5999C84.9 8.5999 81.7 5.3999 77.7 5.3999C73.7 5.3999 70.5 8.5999 70.5 12.5999V38.5999H84.9Z" fill="#7FC62E"/>
<path d="M47.4 38.5999V24.5999C47.4 20.5999 44.2 17.3999 40.2 17.3999C36.2 17.3999 33 20.5999 33 24.5999V38.5999H47.4Z" fill="#65AD18"/>
<path d="M136.9 38.5999V12.5999C136.9 8.5999 133.7 5.3999 129.7 5.3999C125.7 5.3999 122.5 8.5999 122.5 12.5999V38.5999H136.9Z" fill="#7FC62E"/>
<path d="M166.001 38.5999V12.5999C166.001 8.5999 162.801 5.3999 158.801 5.3999C154.801 5.3999 151.601 8.5999 151.601 12.5999V38.5999H166.001Z" fill="#7FC62E"/>
<path d="M151.3 38.5999V24.5999C151.3 20.5999 148.1 17.3999 144.1 17.3999C140.1 17.3999 136.9 20.5999 136.9 24.5999V38.5999H151.3Z" fill="#65AD18"/>
<path d="M192.9 38.5999V24.5999C192.9 20.5999 189.7 17.3999 185.7 17.3999C181.7 17.3999 178.5 20.5999 178.5 24.5999V38.5999H192.9Z" fill="#65AD18"/>
<path d="M99.4 38.6001V14.8001C99.4 10.8001 96.2 7.6001 92.2 7.6001C88.2 7.6001 85 10.8001 85 14.8001V38.6001H99.4Z" fill="#65AD18"/>
<path d="M113.9 38.6V7.2C113.9 3.2 110.7 0 106.7 0C102.7 0 99.5 3.2 99.5 7.2V38.6H113.9Z" fill="#7FC62E"/>
<path d="M221.8 38.5999V12.5999C221.8 8.5999 218.6 5.3999 214.6 5.3999C210.6 5.3999 207.4 8.5999 207.4 12.5999V38.5999H221.8Z" fill="#7FC62E"/>
<path d="M236.3 38.6001V14.8001C236.3 10.8001 233.1 7.6001 229.1 7.6001C225.1 7.6001 221.9 10.8001 221.9 14.8001V38.6001H236.3Z" fill="#65AD18"/>
<path d="M250.7 38.6V7.2C250.7 3.2 247.5 0 243.5 0C239.5 0 236.3 3.2 236.3 7.2V38.6H250.7Z" fill="#7FC62E"/>
<path d="M269.7 37.3999H0V48.7999H269.7V37.3999Z" fill="#4D8907"/>
<path d="M278.1 38.5999V12.5999C278.1 8.5999 274.9 5.3999 270.9 5.3999C266.9 5.3999 263.7 8.5999 263.7 12.5999V38.5999H278.1Z" fill="#7FC62E"/>
<path d="M306.1 38.5999V12.5999C306.1 8.5999 302.9 5.3999 298.9 5.3999C294.9 5.3999 291.7 8.5999 291.7 12.5999V38.5999H306.1Z" fill="#7FC62E"/>
<path d="M329.9 38.5999V12.5999C329.9 8.5999 326.7 5.3999 322.7 5.3999C318.7 5.3999 315.5 8.5999 315.5 12.5999V38.5999H329.9Z" fill="#7FC62E"/>
<path d="M292.4 38.5999V24.5999C292.4 20.5999 289.2 17.3999 285.2 17.3999C281.2 17.3999 278 20.5999 278 24.5999V38.5999H292.4Z" fill="#65AD18"/>
<path d="M381.9 38.5999V12.5999C381.9 8.5999 378.7 5.3999 374.7 5.3999C370.7 5.3999 367.5 8.5999 367.5 12.5999V38.5999H381.9Z" fill="#7FC62E"/>
<path d="M411.001 38.5999V12.5999C411.001 8.5999 407.801 5.3999 403.801 5.3999C399.801 5.3999 396.601 8.5999 396.601 12.5999V38.5999H411.001Z" fill="#7FC62E"/>
<path d="M396.3 38.5999V24.5999C396.3 20.5999 393.1 17.3999 389.1 17.3999C385.1 17.3999 381.9 20.5999 381.9 24.5999V38.5999H396.3Z" fill="#65AD18"/>
<path d="M437.9 38.5999V24.5999C437.9 20.5999 434.7 17.3999 430.7 17.3999C426.7 17.3999 423.5 20.5999 423.5 24.5999V38.5999H437.9Z" fill="#65AD18"/>
<path d="M344.4 38.6001V14.8001C344.4 10.8001 341.2 7.6001 337.2 7.6001C333.2 7.6001 330 10.8001 330 14.8001V38.6001H344.4Z" fill="#65AD18"/>
<path d="M358.9 38.6V7.2C358.9 3.2 355.7 0 351.7 0C347.7 0 344.5 3.2 344.5 7.2V38.6H358.9Z" fill="#7FC62E"/>
<path d="M466.8 38.5999V12.5999C466.8 8.5999 463.6 5.3999 459.6 5.3999C455.6 5.3999 452.4 8.5999 452.4 12.5999V38.5999H466.8Z" fill="#7FC62E"/>
<path d="M481.3 38.6001V14.8001C481.3 10.8001 478.1 7.6001 474.1 7.6001C470.1 7.6001 466.9 10.8001 466.9 14.8001V38.6001H481.3Z" fill="#65AD18"/>
<path d="M495.7 38.6V7.2C495.7 3.2 492.5 0 488.5 0C484.5 0 481.3 3.2 481.3 7.2V38.6H495.7Z" fill="#7FC62E"/>
<path d="M514.7 37.3999H245V48.7999H514.7V37.3999Z" fill="#4D8907"/>
<path d="M523.1 38.5999V12.5999C523.1 8.5999 519.9 5.3999 515.9 5.3999C511.9 5.3999 508.7 8.5999 508.7 12.5999V38.5999H523.1Z" fill="#7FC62E"/>
<path d="M551.1 38.5999V12.5999C551.1 8.5999 547.9 5.3999 543.9 5.3999C539.9 5.3999 536.7 8.5999 536.7 12.5999V38.5999H551.1Z" fill="#7FC62E"/>
<path d="M574.9 38.5999V12.5999C574.9 8.5999 571.7 5.3999 567.7 5.3999C563.7 5.3999 560.5 8.5999 560.5 12.5999V38.5999H574.9Z" fill="#7FC62E"/>
<path d="M537.4 38.5999V24.5999C537.4 20.5999 534.2 17.3999 530.2 17.3999C526.2 17.3999 523 20.5999 523 24.5999V38.5999H537.4Z" fill="#65AD18"/>
<path d="M626.9 38.5999V12.5999C626.9 8.5999 623.7 5.3999 619.7 5.3999C615.7 5.3999 612.5 8.5999 612.5 12.5999V38.5999H626.9Z" fill="#7FC62E"/>
<path d="M656.001 38.5999V12.5999C656.001 8.5999 652.801 5.3999 648.801 5.3999C644.801 5.3999 641.601 8.5999 641.601 12.5999V38.5999H656.001Z" fill="#7FC62E"/>
<path d="M641.3 38.5999V24.5999C641.3 20.5999 638.1 17.3999 634.1 17.3999C630.1 17.3999 626.9 20.5999 626.9 24.5999V38.5999H641.3Z" fill="#65AD18"/>
<path d="M682.9 38.5999V24.5999C682.9 20.5999 679.7 17.3999 675.7 17.3999C671.7 17.3999 668.5 20.5999 668.5 24.5999V38.5999H682.9Z" fill="#65AD18"/>
<path d="M589.4 38.6001V14.8001C589.4 10.8001 586.2 7.6001 582.2 7.6001C578.2 7.6001 575 10.8001 575 14.8001V38.6001H589.4Z" fill="#65AD18"/>
<path d="M603.9 38.6V7.2C603.9 3.2 600.7 0 596.7 0C592.7 0 589.5 3.2 589.5 7.2V38.6H603.9Z" fill="#7FC62E"/>
<path d="M711.8 38.5999V12.5999C711.8 8.5999 708.6 5.3999 704.6 5.3999C700.6 5.3999 697.4 8.5999 697.4 12.5999V38.5999H711.8Z" fill="#7FC62E"/>
<path d="M726.3 38.6001V14.8001C726.3 10.8001 723.1 7.6001 719.1 7.6001C715.1 7.6001 711.9 10.8001 711.9 14.8001V38.6001H726.3Z" fill="#65AD18"/>
<path d="M740.7 38.6V7.2C740.7 3.2 737.5 0 733.5 0C729.5 0 726.3 3.2 726.3 7.2V38.6H740.7Z" fill="#7FC62E"/>
<path d="M759.7 37.3999H490V48.7999H759.7V37.3999Z" fill="#4D8907"/>
<path d="M768.1 38.5999V12.5999C768.1 8.5999 764.9 5.3999 760.9 5.3999C756.9 5.3999 753.7 8.5999 753.7 12.5999V38.5999H768.1Z" fill="#7FC62E"/>
<path d="M796.1 38.5999V12.5999C796.1 8.5999 792.9 5.3999 788.9 5.3999C784.9 5.3999 781.7 8.5999 781.7 12.5999V38.5999H796.1Z" fill="#7FC62E"/>
<path d="M819.9 38.5999V12.5999C819.9 8.5999 816.7 5.3999 812.7 5.3999C808.7 5.3999 805.5 8.5999 805.5 12.5999V38.5999H819.9Z" fill="#7FC62E"/>
<path d="M782.4 38.5999V24.5999C782.4 20.5999 779.2 17.3999 775.2 17.3999C771.2 17.3999 768 20.5999 768 24.5999V38.5999H782.4Z" fill="#65AD18"/>
<path d="M871.9 38.5999V12.5999C871.9 8.5999 868.7 5.3999 864.7 5.3999C860.7 5.3999 857.5 8.5999 857.5 12.5999V38.5999H871.9Z" fill="#7FC62E"/>
<path d="M901.001 38.5999V12.5999C901.001 8.5999 897.801 5.3999 893.801 5.3999C889.801 5.3999 886.601 8.5999 886.601 12.5999V38.5999H901.001Z" fill="#7FC62E"/>
<path d="M886.3 38.5999V24.5999C886.3 20.5999 883.1 17.3999 879.1 17.3999C875.1 17.3999 871.9 20.5999 871.9 24.5999V38.5999H886.3Z" fill="#65AD18"/>
<path d="M927.9 38.5999V24.5999C927.9 20.5999 924.7 17.3999 920.7 17.3999C916.7 17.3999 913.5 20.5999 913.5 24.5999V38.5999H927.9Z" fill="#65AD18"/>
<path d="M834.4 38.6001V14.8001C834.4 10.8001 831.2 7.6001 827.2 7.6001C823.2 7.6001 820 10.8001 820 14.8001V38.6001H834.4Z" fill="#65AD18"/>
<path d="M848.9 38.6V7.2C848.9 3.2 845.7 0 841.7 0C837.7 0 834.5 3.2 834.5 7.2V38.6H848.9Z" fill="#7FC62E"/>
<path d="M956.8 38.5999V12.5999C956.8 8.5999 953.6 5.3999 949.6 5.3999C945.6 5.3999 942.4 8.5999 942.4 12.5999V38.5999H956.8Z" fill="#7FC62E"/>
<path d="M971.3 38.6001V14.8001C971.3 10.8001 968.1 7.6001 964.1 7.6001C960.1 7.6001 956.9 10.8001 956.9 14.8001V38.6001H971.3Z" fill="#65AD18"/>
<path d="M985.7 38.6V7.2C985.7 3.2 982.5 0 978.5 0C974.5 0 971.3 3.2 971.3 7.2V38.6H985.7Z" fill="#7FC62E"/>
<path d="M1004.7 37.3999H735V48.7999H1004.7V37.3999Z" fill="#4D8907"/>
<path d="M1012.1 38.5999V12.5999C1012.1 8.5999 1008.9 5.3999 1004.9 5.3999C1000.9 5.3999 997.7 8.5999 997.7 12.5999V38.5999H1012.1Z" fill="#7FC62E"/>
<path d="M1040.1 38.5999V12.5999C1040.1 8.5999 1036.9 5.3999 1032.9 5.3999C1028.9 5.3999 1025.7 8.5999 1025.7 12.5999V38.5999H1040.1Z" fill="#7FC62E"/>
<path d="M1063.9 38.5999V12.5999C1063.9 8.5999 1060.7 5.3999 1056.7 5.3999C1052.7 5.3999 1049.5 8.5999 1049.5 12.5999V38.5999H1063.9Z" fill="#7FC62E"/>
<path d="M1026.4 38.5999V24.5999C1026.4 20.5999 1023.2 17.3999 1019.2 17.3999C1015.2 17.3999 1012 20.5999 1012 24.5999V38.5999H1026.4Z" fill="#65AD18"/>
<path d="M1115.9 38.5999V12.5999C1115.9 8.5999 1112.7 5.3999 1108.7 5.3999C1104.7 5.3999 1101.5 8.5999 1101.5 12.5999V38.5999H1115.9Z" fill="#7FC62E"/>
<path d="M1145 38.5999V12.5999C1145 8.5999 1141.8 5.3999 1137.8 5.3999C1133.8 5.3999 1130.6 8.5999 1130.6 12.5999V38.5999H1145Z" fill="#7FC62E"/>
<path d="M1130.3 38.5999V24.5999C1130.3 20.5999 1127.1 17.3999 1123.1 17.3999C1119.1 17.3999 1115.9 20.5999 1115.9 24.5999V38.5999H1130.3Z" fill="#65AD18"/>
<path d="M1171.9 38.5999V24.5999C1171.9 20.5999 1168.7 17.3999 1164.7 17.3999C1160.7 17.3999 1157.5 20.5999 1157.5 24.5999V38.5999H1171.9Z" fill="#65AD18"/>
<path d="M1078.4 38.6001V14.8001C1078.4 10.8001 1075.2 7.6001 1071.2 7.6001C1067.2 7.6001 1064 10.8001 1064 14.8001V38.6001H1078.4Z" fill="#65AD18"/>
<path d="M1092.9 38.6V7.2C1092.9 3.2 1089.7 0 1085.7 0C1081.7 0 1078.5 3.2 1078.5 7.2V38.6H1092.9Z" fill="#7FC62E"/>
<path d="M1200.8 38.5999V12.5999C1200.8 8.5999 1197.6 5.3999 1193.6 5.3999C1189.6 5.3999 1186.4 8.5999 1186.4 12.5999V38.5999H1200.8Z" fill="#7FC62E"/>
<path d="M1215.3 38.6001V14.8001C1215.3 10.8001 1212.1 7.6001 1208.1 7.6001C1204.1 7.6001 1200.9 10.8001 1200.9 14.8001V38.6001H1215.3Z" fill="#65AD18"/>
<path d="M1229.7 38.6V7.2C1229.7 3.2 1226.5 0 1222.5 0C1218.5 0 1215.3 3.2 1215.3 7.2V38.6H1229.7Z" fill="#7FC62E"/>
<path d="M1248.7 37.3999H979V48.7999H1248.7V37.3999Z" fill="#4D8907"/>
</svg>
