<svg width="266" height="71" viewBox="0 0 266 71" fill="none" xmlns="http://www.w3.org/2000/svg">
<path d="M103.322 50.4467C99.7978 57.2544 100.038 64.0621 103.802 65.6386C107.566 67.2151 113.573 62.9155 117.097 56.1078C120.621 49.3002 120.381 42.4925 116.616 40.916C112.772 39.3394 106.846 43.639 103.322 50.4467Z" fill="#65AD18"/>
<path d="M101.72 26.8708H97.5552V67.3587H101.72V26.8708Z" fill="#65AD18"/>
<path d="M113.973 6.51934C113.973 6.44768 113.973 6.37602 113.973 6.30436C113.973 3.79627 111.811 1.78979 109.168 1.78979C106.525 1.78979 104.363 3.79627 104.363 6.30436C104.363 3.79627 102.2 1.78979 99.5574 1.78979C96.9144 1.78979 94.752 3.79627 94.752 6.30436C94.752 3.79627 92.5896 1.78979 89.9467 1.78979C87.3038 1.78979 85.1414 3.79627 85.1414 6.30436C85.1414 6.37602 85.1414 6.44768 85.1414 6.51934C85.3816 18.7015 91.7087 28.5189 99.5574 28.5189C107.406 28.5189 113.733 18.7015 113.973 6.51934Z" fill="#E8401F"/>
<path d="M237.322 50.4467C233.798 57.2544 234.038 64.0621 237.802 65.6386C241.567 67.2151 247.573 62.9155 251.097 56.1078C254.621 49.3002 254.381 42.4925 250.617 40.916C246.772 39.3394 240.846 43.639 237.322 50.4467Z" fill="#65AD18"/>
<path d="M235.72 26.8708H231.555V67.3587H235.72V26.8708Z" fill="#65AD18"/>
<path d="M247.974 6.51934C247.974 6.44768 247.974 6.37602 247.974 6.30436C247.974 3.79627 245.811 1.78979 243.168 1.78979C240.525 1.78979 238.363 3.79627 238.363 6.30436C238.363 3.79627 236.201 1.78979 233.558 1.78979C230.915 1.78979 228.752 3.79627 228.752 6.30436C228.752 3.79627 226.59 1.78979 223.947 1.78979C221.304 1.78979 219.142 3.79627 219.142 6.30436C219.142 6.37602 219.142 6.44768 219.142 6.51934C219.382 18.7015 225.709 28.5189 233.558 28.5189C241.406 28.5189 247.733 18.7015 247.974 6.51934Z" fill="#73D2EF"/>
<path d="M20.8299 50.4471C24.3539 57.2548 24.1136 64.0624 20.3494 65.639C16.5852 67.2155 10.5785 62.9159 7.05462 56.1082C3.53071 49.3005 3.77098 42.4928 7.53516 40.9163C11.3794 39.3398 17.306 43.6394 20.8299 50.4471Z" fill="#65AD18"/>
<path d="M26.5965 26.8708H22.4319V67.3587H26.5965V26.8708Z" fill="#65AD18"/>
<path d="M14.1264 21.8512C17.8846 21.7578 20.8466 18.9562 20.7423 15.5935C20.6379 12.2308 17.5067 9.58055 13.7484 9.67393C9.99024 9.76732 7.02821 12.569 7.13258 15.9317C7.23695 19.2943 10.3682 21.9446 14.1264 21.8512Z" fill="#73D2EF"/>
<path d="M24.6743 18.9165C28.4384 18.9165 31.4818 21.6396 31.4818 25.0076C31.4818 28.3756 28.4384 31.0987 24.6743 31.0987C20.9101 31.0987 17.8667 28.3756 17.8667 25.0076C17.8667 21.7112 20.9101 18.9165 24.6743 18.9165Z" fill="#73D2EF"/>
<path d="M28.2783 15.4768C28.2783 12.1088 31.3217 9.38574 35.0859 9.38574C38.8501 9.38574 41.8934 12.1088 41.8934 15.4768C41.8934 18.8448 38.8501 21.5679 35.0859 21.5679C31.3217 21.5679 28.2783 18.8448 28.2783 15.4768Z" fill="#73D2EF"/>
<path d="M24.354 12.2522C20.5898 12.2522 17.5464 9.52917 17.5464 6.16115C17.5464 2.79314 20.5898 0.0700684 24.354 0.0700684C28.1181 0.0700684 31.1615 2.79314 31.1615 6.16115C31.1615 9.52917 28.1982 12.2522 24.354 12.2522Z" fill="#73D2EF"/>
<path d="M24.5141 21.7116C20.7499 21.7116 17.7065 18.9885 17.7065 15.6205C17.7065 12.2525 20.7499 9.52942 24.5141 9.52942C28.2783 9.52942 31.3217 12.2525 31.3217 15.6205C31.4018 18.9885 28.2783 21.7116 24.5141 21.7116Z" fill="#FFE236"/>
<path d="M194.143 50.4471C190.619 57.2548 190.859 64.0624 194.623 65.639C198.387 67.2155 204.394 62.9159 207.918 56.1082C211.442 49.3005 211.201 42.4928 207.437 40.9163C203.593 39.3398 197.666 43.6394 194.143 50.4471Z" fill="#65AD18"/>
<path d="M192.541 26.8708H188.376V67.3587H192.541V26.8708Z" fill="#65AD18"/>
<path d="M207.846 15.8812C207.936 12.5182 204.961 9.72705 201.203 9.64699C197.444 9.56693 194.325 12.2283 194.235 15.5913C194.146 18.9543 197.12 21.7454 200.879 21.8255C204.637 21.9056 207.757 19.2442 207.846 15.8812Z" fill="#279DC1"/>
<path d="M190.298 18.9165C186.534 18.9165 183.491 21.6396 183.491 25.0076C183.491 28.3756 186.534 31.0987 190.298 31.0987C194.062 31.0987 197.106 28.3756 197.106 25.0076C197.106 21.7112 194.062 18.9165 190.298 18.9165Z" fill="#279DC1"/>
<path d="M186.694 15.4768C186.694 12.1088 183.651 9.38574 179.887 9.38574C176.122 9.38574 173.079 12.1088 173.079 15.4768C173.079 18.8448 176.122 21.5679 179.887 21.5679C183.651 21.5679 186.694 18.8448 186.694 15.4768Z" fill="#279DC1"/>
<path d="M190.619 12.2522C194.383 12.2522 197.426 9.52917 197.426 6.16115C197.426 2.79314 194.383 0.0700684 190.619 0.0700684C186.854 0.0700684 183.811 2.79314 183.811 6.16115C183.811 9.52917 186.774 12.2522 190.619 12.2522Z" fill="#279DC1"/>
<path d="M190.458 21.7116C194.223 21.7116 197.266 18.9885 197.266 15.6205C197.266 12.2525 194.223 9.52942 190.458 9.52942C186.694 9.52942 183.651 12.2525 183.651 15.6205C183.571 18.9885 186.694 21.7116 190.458 21.7116Z" fill="#FFE236"/>
<path d="M60.3939 50.4467C63.9178 57.2544 63.6775 64.0621 59.9134 65.6386C56.1492 67.2151 50.1425 62.9155 46.6186 56.1078C43.0947 49.3002 43.3349 42.4925 47.0991 40.916C50.8633 39.3394 56.87 43.639 60.3939 50.4467Z" fill="#65AD18"/>
<path d="M66.9611 50.4467C63.4372 57.2544 63.6775 64.0621 67.4417 65.6386C71.2059 67.2151 77.2125 62.9155 80.7364 56.1078C84.2603 49.3002 84.0201 42.4925 80.2559 40.916C76.4116 39.3394 70.485 43.639 66.9611 50.4467Z" fill="#65AD18"/>
<path d="M65.7599 31.7437H61.5952V67.3586H65.7599V31.7437Z" fill="#65AD18"/>
<path d="M53.2885 34.6056C57.0467 34.5122 60.0087 31.7106 59.9044 28.3479C59.8 24.9852 56.6688 22.3349 52.9106 22.4283C49.1523 22.5217 46.1903 25.3234 46.2947 28.6861C46.3991 32.0487 49.5303 34.699 53.2885 34.6056Z" fill="#73D2EF"/>
<path d="M63.8378 31.7437C67.602 31.7437 70.6454 34.4667 70.6454 37.8347C70.6454 41.2028 67.602 43.9258 63.8378 43.9258C60.0737 43.9258 57.0303 41.2028 57.0303 37.8347C57.0303 34.4667 59.9936 31.7437 63.8378 31.7437Z" fill="#73D2EF"/>
<path d="M67.3618 28.2323C67.3618 24.8643 70.4052 22.1412 74.1694 22.1412C77.9336 22.1412 80.9769 24.8643 80.9769 28.2323C80.9769 31.6003 77.9336 34.3234 74.1694 34.3234C70.4853 34.3951 67.3618 31.672 67.3618 28.2323Z" fill="#73D2EF"/>
<path d="M63.5175 25.0794C59.7533 25.0794 56.71 22.3563 56.71 18.9883C56.71 15.6203 59.7533 12.8972 63.5175 12.8972C67.2817 12.8972 70.3251 15.6203 70.3251 18.9883C70.3251 22.2847 67.2817 25.0794 63.5175 25.0794Z" fill="#73D2EF"/>
<path d="M63.6777 34.5385C59.9135 34.5385 56.8701 31.8154 56.8701 28.4474C56.8701 25.0794 59.9135 22.3563 63.6777 22.3563C67.4419 22.3563 70.4852 25.0794 70.4852 28.4474C70.4852 31.7438 67.4419 34.5385 63.6777 34.5385Z" fill="#FFE236"/>
<path d="M144.888 50.447C148.412 57.2546 148.171 64.0623 144.407 65.6388C140.643 67.2154 134.636 62.9158 131.112 56.1081C127.589 49.3004 127.829 42.4927 131.593 40.9162C135.357 39.3397 141.364 43.6393 144.888 50.447Z" fill="#65AD18"/>
<path d="M151.455 50.447C147.931 57.2546 148.171 64.0623 151.936 65.6388C155.7 67.2154 161.706 62.9158 165.23 56.1081C168.754 49.3004 168.514 42.4927 164.75 40.9162C160.906 39.3397 154.979 43.6393 151.455 50.447Z" fill="#65AD18"/>
<path d="M150.254 31.7437H146.089V67.3586H150.254V31.7437Z" fill="#65AD18"/>
<path d="M161.707 14.8318C161.707 14.7602 161.707 14.6885 161.707 14.6169C161.707 12.1088 159.544 10.1023 156.901 10.1023C154.258 10.1023 152.096 12.1088 152.096 14.6169C152.096 12.1088 149.933 10.1023 147.291 10.1023C144.648 10.1023 142.485 12.1088 142.485 14.6169C142.485 12.1088 140.323 10.1023 137.68 10.1023C135.037 10.1023 132.875 12.1088 132.875 14.6169C132.875 14.6885 132.875 14.7602 132.875 14.8318C133.115 27.014 139.442 36.8314 147.291 36.8314C155.219 36.8314 161.546 27.014 161.707 14.8318Z" fill="#FFE236"/>
<path d="M265.5 62.6892H0.5V70.6892H265.5V62.6892Z" fill="#7FC62E"/>
</svg>
