<svg width="48" height="48" viewBox="0 0 48 48" fill="none" xmlns="http://www.w3.org/2000/svg">
<g clip-path="url(#clip0_63_5303)">
<path d="M35.2764 32.6713L25.7808 38.1086C25.2252 38.428 24.5952 38.5951 23.9544 38.593C23.3136 38.5909 22.6847 38.4198 22.1312 38.0969L12.6704 32.594C12.118 32.2716 11.6596 31.81 11.341 31.2553C11.0224 30.7006 10.8546 30.0722 10.8545 29.4325L10.8916 18.4858C10.8954 17.8448 11.0673 17.216 11.3899 16.6622C11.7126 16.1083 12.1748 15.6487 12.7304 15.3291L22.2233 9.89322C22.7791 9.57337 23.4095 9.40589 24.0508 9.4077C24.6921 9.40951 25.3216 9.58055 25.8757 9.90354L35.3391 15.408C35.8899 15.7329 36.3463 16.196 36.6632 16.7515C36.98 17.3069 37.1464 17.9355 37.1457 18.575L37.1085 29.5215C37.1038 30.1606 36.9324 30.7874 36.611 31.3399C36.2897 31.8924 35.8296 32.3513 35.2764 32.6713Z" fill="#FFF19F"/>
<path d="M30.9694 29.3593L25.1006 32.7199C24.7572 32.9173 24.3678 33.0205 23.9718 33.0193C23.5757 33.018 23.187 32.9122 22.8449 32.7127L16.9978 29.3116C16.6563 29.1123 16.3729 28.827 16.176 28.484C15.9791 28.1411 15.8755 27.7525 15.8755 27.3571L15.8984 20.5916C15.9006 20.1953 16.0067 19.8065 16.206 19.4641C16.4054 19.1216 16.6911 18.8374 17.0346 18.6398L22.9017 15.28C23.2453 15.0824 23.6349 14.9789 24.0313 14.98C24.4277 14.9811 24.8167 15.0868 25.1591 15.2865L31.0079 18.6885C31.3485 18.8894 31.6307 19.1757 31.8266 19.5192C32.0225 19.8627 32.1252 20.2513 32.1247 20.6467L32.1017 27.4123C32.099 27.8073 31.993 28.1948 31.7944 28.5363C31.5958 28.8778 31.3114 29.1615 30.9694 29.3593Z" fill="#FFDD0F"/>
<path d="M28.3074 27.3125L24.6802 29.3894C24.468 29.5114 24.2274 29.5752 23.9826 29.5745C23.7379 29.5737 23.4977 29.5083 23.2863 29.3849L19.6731 27.2828C19.462 27.1596 19.2869 26.9833 19.1652 26.7714C19.0435 26.5595 18.9795 26.3194 18.9795 26.075L18.9937 21.8935C18.9952 21.6487 19.0608 21.4085 19.184 21.1969C19.3072 20.9853 19.4838 20.8097 19.696 20.6876L23.3221 18.6113C23.5344 18.4891 23.7752 18.4252 24.0201 18.4258C24.2651 18.4265 24.5055 18.4918 24.7172 18.6152L28.3321 20.7178C28.5425 20.8419 28.7168 21.0188 28.8379 21.231C28.959 21.4432 29.0226 21.6833 29.0224 21.9276L29.0081 26.109C29.0063 26.3533 28.9407 26.5928 28.8178 26.8039C28.6949 27.015 28.519 27.1903 28.3074 27.3125Z" fill="#FFDD0F"/>
<path d="M64.5335 32.7707L55.0378 38.2079C54.4822 38.5273 53.8522 38.6944 53.2114 38.6924C52.5705 38.6903 51.9416 38.5192 51.3881 38.1963L41.9274 32.6933C41.3748 32.3708 40.9164 31.9091 40.5978 31.3542C40.2792 30.7994 40.1116 30.1708 40.1116 29.5309L40.1487 18.5845C40.1525 17.9434 40.3243 17.3146 40.647 16.7607C40.9696 16.2068 41.4318 15.7471 41.9875 15.4276L51.4805 9.9917C52.0364 9.67185 52.6668 9.50437 53.3081 9.50618C53.9494 9.50799 54.5789 9.67903 55.1329 10.002L64.5963 15.5065C65.147 15.8314 65.6034 16.2945 65.9203 16.85C66.2371 17.4054 66.4035 18.034 66.4028 18.6735L66.3657 29.62C66.3612 30.2593 66.1898 30.8863 65.8684 31.4389C65.5471 31.9915 65.0869 32.4506 64.5335 32.7707Z" fill="#FFF19F"/>
<path d="M60.2257 29.4586L54.3571 32.819C54.0137 33.0164 53.6243 33.1197 53.2283 33.1184C52.8322 33.1171 52.4435 33.0114 52.1014 32.8118L46.2542 29.4107C45.9127 29.2114 45.6293 28.926 45.4324 28.5831C45.2355 28.2402 45.1319 27.8516 45.1318 27.4562L45.1549 20.6908C45.1571 20.2946 45.2632 19.9058 45.4626 19.5633C45.6619 19.2208 45.9476 18.9366 46.2911 18.7391L52.1582 15.3794C52.5017 15.1817 52.8913 15.0782 53.2877 15.0793C53.684 15.0804 54.073 15.1861 54.4154 15.3857L60.2643 18.7878C60.6047 18.9886 60.8869 19.2748 61.0827 19.6181C61.2786 19.9614 61.3814 20.3499 61.381 20.7452L61.3581 27.5107C61.3554 27.9059 61.2495 28.2935 61.0509 28.6352C60.8523 28.9769 60.5678 29.2607 60.2257 29.4586Z" fill="#FFEB6F"/>
<path d="M5.56227 32.5704L-3.93344 38.0078C-4.48901 38.3272 -5.11902 38.4942 -5.75983 38.4922C-6.40065 38.4901 -7.02958 38.319 -7.58307 37.996L-17.0438 32.4932C-17.5963 32.1707 -18.0546 31.7092 -18.3732 31.1545C-18.6918 30.5998 -18.8595 29.9713 -18.8596 29.3316L-18.8225 18.385C-18.8187 17.744 -18.6469 17.1152 -18.3242 16.5613C-18.0016 16.0074 -17.5393 15.5478 -16.9836 15.2283L-7.49065 9.7924C-6.9348 9.47255 -6.30438 9.30507 -5.66308 9.30688C-5.02177 9.30869 -4.39233 9.47973 -3.8383 9.80272L5.62505 15.307C6.17584 15.632 6.6322 16.0951 6.94906 16.6506C7.26592 17.2061 7.43228 17.8347 7.43163 18.4742L7.39453 29.4207C7.38988 30.0598 7.21837 30.6866 6.897 31.2391C6.57563 31.7915 6.11553 32.2505 5.56227 32.5704Z" fill="#FFF19F"/>
<path d="M1.25528 29.2585L-4.61341 32.6189C-4.95676 32.8164 -5.34611 32.9197 -5.74218 32.9184C-6.13824 32.9172 -6.52696 32.8114 -6.86905 32.6118L-12.7163 29.2108C-13.0578 29.0114 -13.3412 28.7261 -13.5381 28.3832C-13.735 28.0402 -13.8386 27.6517 -13.8386 27.2563L-13.8156 20.4907C-13.8134 20.0945 -13.7073 19.7057 -13.5079 19.3632C-13.3086 19.0208 -13.0229 18.7366 -12.6793 18.539L-6.8123 15.1792C-6.46876 14.9815 -6.07913 14.8781 -5.68279 14.8792C-5.28645 14.8803 -4.89741 14.986 -4.55501 15.1857L1.29383 18.5877C1.63426 18.7885 1.91634 19.0747 2.1122 19.418C2.30806 19.7612 2.41088 20.1497 2.41051 20.5449L2.38763 27.3105C2.38499 27.7057 2.27912 28.0934 2.0805 28.4351C1.88188 28.7768 1.5974 29.0606 1.25528 29.2585Z" fill="#FFEB6F"/>
<path d="M49.8367 58.7285L40.3411 64.1662C39.7855 64.4856 39.1555 64.6527 38.5147 64.6506C37.8739 64.6485 37.2449 64.4774 36.6915 64.1544L27.2307 58.6515C26.6782 58.3291 26.2199 57.8676 25.9013 57.3129C25.5827 56.7582 25.4149 56.1297 25.4148 55.49L25.452 44.5435C25.4558 43.9025 25.6276 43.2737 25.9503 42.7198C26.2729 42.1658 26.7352 41.7062 27.2909 41.3867L36.7839 35.9508C37.3397 35.6309 37.9702 35.4634 38.6115 35.4652C39.2528 35.467 39.8822 35.6381 40.4363 35.9611L49.8996 41.4655C50.4504 41.7905 50.9067 42.2536 51.2236 42.8091C51.5405 43.3645 51.7068 43.9931 51.7062 44.6326L51.6691 55.5791C51.6643 56.2181 51.4927 56.8449 51.1713 57.3973C50.8499 57.9496 50.3899 58.4085 49.8367 58.7285Z" fill="#FFF19F"/>
<path d="M45.5297 55.4164L39.6608 58.777C39.3175 58.9744 38.9282 59.0777 38.5321 59.0764C38.1361 59.0751 37.7474 58.9694 37.4054 58.7698L31.5581 55.3687C31.2166 55.1694 30.9332 54.8841 30.7363 54.5411C30.5393 54.1982 30.4357 53.8096 30.4358 53.4142L30.4587 46.6487C30.4609 46.2524 30.567 45.8636 30.7664 45.5212C30.9657 45.1787 31.2514 44.8945 31.5949 44.6969L37.4622 41.3373C37.8057 41.1395 38.1953 41.036 38.5916 41.0371C38.988 41.0382 39.377 41.1439 39.7194 41.3436L45.5683 44.7456C45.9087 44.9464 46.1908 45.2326 46.3867 45.576C46.5825 45.9193 46.6854 46.3078 46.685 46.703L46.662 53.4684C46.6594 53.8636 46.5535 54.2513 46.3549 54.593C46.1563 54.9347 45.8718 55.2186 45.5297 55.4164Z" fill="#FFEB6F"/>
<path d="M15.85 55.4164L9.98116 58.777C9.63782 58.9744 9.24846 59.0777 8.85243 59.0764C8.4564 59.0751 8.06774 58.9694 7.72568 58.7698L1.87845 55.3687C1.53688 55.1694 1.2535 54.8841 1.05658 54.5411C0.859652 54.1982 0.756062 53.8096 0.756104 53.4142L0.778984 46.6487C0.781204 46.2524 0.887296 45.8636 1.08666 45.5212C1.28603 45.1787 1.57174 44.8945 1.91523 44.6969L7.78246 41.3373C8.12597 41.1395 8.51558 41.036 8.91194 41.0371C9.30829 41.0382 9.69732 41.1439 10.0397 41.3436L15.8886 44.7456C16.229 44.9464 16.5111 45.2326 16.707 45.576C16.9028 45.9193 17.0057 46.3078 17.0053 46.703L16.9824 53.4684C16.9797 53.8636 16.8738 54.2513 16.6752 54.593C16.4766 54.9347 16.1921 55.2186 15.85 55.4164Z" fill="#FFDD0F"/>
<path d="M42.8679 53.3694L39.2403 55.4463C39.0281 55.5683 38.7875 55.6321 38.5427 55.6313C38.298 55.6305 38.0577 55.5652 37.8463 55.4418L34.2332 53.3399C34.0221 53.2167 33.847 53.0403 33.7253 52.8284C33.6036 52.6164 33.5395 52.3763 33.5396 52.1319L33.5537 47.9504C33.5552 47.7056 33.6208 47.4654 33.7441 47.2538C33.8673 47.0423 34.0438 46.8667 34.256 46.7447L37.8821 44.6682C38.0945 44.546 38.3353 44.482 38.5803 44.4827C38.8253 44.4834 39.0658 44.5487 39.2774 44.6721L42.8922 46.7747C43.1026 46.8988 43.2769 47.0757 43.398 47.2879C43.5191 47.5001 43.5826 47.7402 43.5824 47.9844L43.5682 52.1659C43.5665 52.4101 43.5009 52.6497 43.378 52.8607C43.2552 53.0718 43.0793 53.2472 42.8679 53.3694Z" fill="#FFDD0F"/>
<path d="M20.0669 58.6276L10.5712 64.0648C10.0156 64.3843 9.38565 64.5514 8.74485 64.5493C8.10404 64.5472 7.47514 64.3761 6.92168 64.0531L-2.53902 58.5502C-3.0915 58.2278 -3.54986 57.7662 -3.86847 57.2115C-4.18708 56.6569 -4.35483 56.0284 -4.35498 55.3887L-4.31788 44.4422C-4.31407 43.8012 -4.14225 43.1724 -3.8196 42.6184C-3.49695 42.0645 -3.03472 41.6049 -2.47901 41.2853L7.01395 35.8494C7.5698 35.5296 8.20022 35.3621 8.84153 35.3639C9.48283 35.3657 10.1123 35.5368 10.6663 35.8598L20.1296 41.3642C20.6805 41.6891 21.1369 42.1522 21.4537 42.7077C21.7706 43.2632 21.9369 43.8917 21.9362 44.5312L21.8991 55.4777C21.8945 56.1169 21.7231 56.7437 21.4017 57.2962C21.0803 57.8487 20.6202 58.3077 20.0669 58.6276Z" fill="#FFF19F"/>
<path d="M49.8367 6.61423L40.3411 12.0514C39.7855 12.3708 39.1555 12.5379 38.5147 12.5359C37.8739 12.5338 37.2449 12.3626 36.6915 12.0396L27.2307 6.5368C26.6781 6.2143 26.2197 5.75262 25.9011 5.19778C25.5825 4.64293 25.4148 4.01428 25.4148 3.37446L25.452 -7.57203C25.4558 -8.21305 25.6276 -8.84188 25.9503 -9.39579C26.2729 -9.9497 26.7352 -10.4093 27.2909 -10.7289L36.7839 -16.1648C37.3397 -16.4846 37.9702 -16.6521 38.6115 -16.6503C39.2528 -16.6485 39.8822 -16.4775 40.4363 -16.1545L49.8996 -10.65C50.4504 -10.3251 50.9068 -9.86198 51.2236 -9.30651C51.5405 -8.75105 51.7068 -8.12247 51.7062 -7.48299L51.6691 3.4635C51.6645 4.10278 51.4931 4.7298 51.1717 5.28243C50.8503 5.83507 50.3901 6.29416 49.8367 6.61423Z" fill="#FFF19F"/>
<path d="M45.5297 3.36989L39.6608 6.72966C39.3175 6.92704 38.9282 7.03032 38.5321 7.02904C38.1361 7.02777 37.7474 6.92199 37.4054 6.7224L31.5581 3.32133C31.2166 3.12204 30.9332 2.83671 30.7363 2.49378C30.5393 2.15084 30.4357 1.76228 30.4358 1.36683L30.4587 -5.39869C30.461 -5.79482 30.5672 -6.18341 30.7665 -6.52573C30.9659 -6.86804 31.2515 -7.15212 31.5949 -7.34965L37.4622 -10.7093C37.8057 -10.907 38.1953 -11.0106 38.5916 -11.0095C38.988 -11.0084 39.377 -10.9026 39.7194 -10.703L45.5683 -7.30093C45.9087 -7.10013 46.1908 -6.81392 46.3867 -6.4706C46.5825 -6.12729 46.6854 -5.73878 46.685 -5.34352L46.662 1.42183C46.6594 1.81706 46.5535 2.20475 46.3549 2.54645C46.1563 2.88815 45.8718 3.17201 45.5297 3.36989Z" fill="#FFEB6F"/>
<path d="M15.8153 3.30205L9.94669 6.66182C9.60331 6.85918 9.21394 6.96244 8.81788 6.96117C8.42183 6.9599 8.03311 6.85413 7.69101 6.65456L1.84378 3.25349C1.50227 3.05414 1.21894 2.76879 1.02203 2.42587C0.825111 2.08295 0.721475 1.69442 0.721436 1.29899L0.744513 -5.46653C0.746825 -5.86267 0.852946 -6.25128 1.05231 -6.5936C1.25168 -6.93593 1.53731 -7.22 1.88072 -7.41748L7.7478 -10.7771C8.0913 -10.9748 8.48091 -11.0784 8.87727 -11.0773C9.27362 -11.0762 9.66265 -10.9705 10.005 -10.7708L15.8539 -7.36877C16.1943 -7.16795 16.4765 -6.88174 16.6723 -6.53843C16.8682 -6.19512 16.9711 -5.80662 16.9708 -5.41136L16.9482 1.35497C16.9454 1.75008 16.8393 2.13759 16.6406 2.47911C16.4419 2.82064 16.1574 3.10431 15.8153 3.30205Z" fill="#FFDD0F"/>
<path d="M42.8679 1.25512L39.2403 3.33205C39.0281 3.45405 38.7875 3.51788 38.5427 3.51708C38.298 3.51629 38.0577 3.45091 37.8463 3.32754L34.2332 1.22561C34.0221 1.10238 33.847 0.926017 33.7253 0.714074C33.6036 0.502131 33.5396 0.262004 33.5396 0.0176094L33.5537 -4.16385C33.5552 -4.40867 33.6208 -4.64884 33.7441 -4.8604C33.8673 -5.07196 34.0438 -5.24752 34.256 -5.36958L37.8821 -7.44603C38.0945 -7.56822 38.3353 -7.63221 38.5803 -7.63153C38.8253 -7.63085 39.0658 -7.56552 39.2774 -7.44216L42.8922 -5.33958C43.1026 -5.21545 43.2769 -5.03854 43.398 -4.82636C43.5191 -4.61419 43.5826 -4.37409 43.5824 -4.12981L43.5682 0.0516441C43.5665 0.295873 43.5009 0.535393 43.378 0.746484C43.2552 0.957576 43.0793 1.13291 42.8679 1.25512Z" fill="#FFDD0F"/>
<path d="M20.1226 6.51339L10.6268 11.9506C10.0713 12.27 9.44131 12.4371 8.80051 12.435C8.15971 12.433 7.5308 12.2618 6.97735 11.9388L-2.48336 6.43597C-3.03596 6.11347 -3.49439 5.65179 -3.81301 5.09694C-4.13162 4.5421 -4.29931 3.91345 -4.29932 3.27362L-4.26222 -7.67286C-4.2584 -8.31388 -4.08659 -8.9427 -3.76394 -9.49661C-3.44129 -10.0505 -2.97905 -10.5102 -2.42334 -10.8297L7.06962 -16.2656C7.62547 -16.5855 8.25589 -16.753 8.89719 -16.7511C9.53849 -16.7493 10.168 -16.5783 10.722 -16.2553L20.1853 -10.7508C20.7361 -10.426 21.1926 -9.96285 21.5094 -9.40738C21.8263 -8.85191 21.9926 -8.22332 21.9919 -7.58382L21.9548 3.36266C21.9503 4.00195 21.779 4.62898 21.4576 5.18162C21.1362 5.73427 20.676 6.19335 20.1226 6.51339Z" fill="#FFF19F"/>
<path d="M1.18697 49.3729L-4.6825 52.7333C-5.02587 52.9307 -5.41525 53.034 -5.81131 53.0327C-6.20736 53.0314 -6.59605 52.9257 -6.93814 52.7261L-12.7854 49.325C-13.1269 49.1257 -13.4103 48.8404 -13.6072 48.4974C-13.8042 48.1545 -13.9078 47.766 -13.9077 47.3705L-13.8847 40.605C-13.8825 40.2087 -13.7765 39.8199 -13.5771 39.4774C-13.3777 39.1349 -13.092 38.8507 -12.7484 38.6532L-6.8814 35.2936C-6.53789 35.0958 -6.14824 34.9923 -5.75188 34.9934C-5.35553 34.9945 -4.9665 35.1002 -4.6241 35.2999L1.22474 38.7019C1.56518 38.9027 1.84728 39.1889 2.04314 39.5323C2.239 39.8756 2.34181 40.2641 2.34141 40.6593L2.31853 47.4247C2.31601 47.8199 2.21027 48.2075 2.0118 48.5492C1.81332 48.891 1.52897 49.1749 1.18697 49.3729Z" fill="#FFDD0F"/>
<path d="M15.7392 55.4164L9.87032 58.777C9.52698 58.9744 9.13762 59.0777 8.74159 59.0764C8.34556 59.0751 7.9569 58.9694 7.61484 58.7698L1.76761 55.3687C1.42605 55.1694 1.14266 54.8841 0.945737 54.5411C0.748812 54.1982 0.645222 53.8096 0.645264 53.4142L0.668144 46.6487C0.670364 46.2524 0.776456 45.8636 0.975824 45.5212C1.17519 45.1787 1.4609 44.8945 1.80439 44.6969L7.67162 41.3373C8.01513 41.1395 8.40474 41.036 8.8011 41.0371C9.19745 41.0382 9.58648 41.1439 9.92888 41.3436L15.7777 44.7456C16.1182 44.9464 16.4003 45.2326 16.5961 45.576C16.792 45.9193 16.8948 46.3078 16.8944 46.703L16.8715 53.4684C16.8689 53.8636 16.763 54.2513 16.5644 54.593C16.3658 54.9347 16.0813 55.2186 15.7392 55.4164Z" fill="#FFEB6F"/>
<path d="M15.7392 3.43695L9.87032 6.79754C9.52698 6.99492 9.13762 7.09819 8.74159 7.09691C8.34556 7.09564 7.9569 6.98986 7.61484 6.79028L1.76761 3.38921C1.42605 3.18992 1.14266 2.90458 0.945737 2.56165C0.748812 2.21871 0.645222 1.83015 0.645264 1.4347L0.668144 -5.33082C0.670364 -5.72709 0.776456 -6.11585 0.975824 -6.45832C1.17519 -6.80079 1.4609 -7.08499 1.80439 -7.28259L7.67162 -10.6422C8.01513 -10.84 8.40474 -10.9435 8.8011 -10.9424C9.19745 -10.9413 9.58648 -10.8356 9.92888 -10.6359L15.7777 -7.23387C16.1182 -7.03307 16.4003 -6.74685 16.5961 -6.40354C16.792 -6.06022 16.8948 -5.67172 16.8944 -5.27646L16.8715 1.4889C16.8689 1.88413 16.763 2.27181 16.5644 2.61351C16.3658 2.95521 16.0813 3.23907 15.7392 3.43695Z" fill="#FFEB6F"/>
</g>
<defs>
<clipPath id="clip0_63_5303">
<rect width="48" height="48" rx="24" transform="matrix(1 0 0 -1 0 48)" fill="white"/>
</clipPath>
</defs>
</svg>
