<svg xmlns="http://www.w3.org/2000/svg" width="405" height="56" viewBox="73 16 1966 548"
  preserveAspectRatio="none">
  <defs>
    <linearGradient id="g" x1="0" y1="0" x2="0" y2="1">
      <stop offset="0%" stop-color="#8bcbe4" />
      <stop offset="100%" stop-color="#4f93a8" />
    </linearGradient>
  </defs>
  <g fill="url(#g)" fill-rule="evenodd">
    <path
      d="M 1807.00 563.50 L 345.00 563.50 L 124.00 562.50 L 116.00 560.50 L 99.00 552.50 L 87.50 542.00 L 76.50 524.00 L 73.50 512.00 L 73.50 133.00 L 75.50 123.00 L 82.50 108.00 L 93.00 96.50 L 106.00 88.50 L 117.00 85.50 L 134.00 85.50 L 151.00 91.50 L 165.50 104.00 L 174.50 120.00 L 177.50 133.00 L 178.00 405.50 L 187.50 393.00 L 195.50 372.00 L 195.50 354.00 L 183.50 326.00 L 183.50 315.00 L 189.50 302.00 L 202.00 293.50 L 209.00 292.50 L 222.00 296.50 L 229.50 304.00 L 232.50 311.00 L 233.50 326.00 L 223.50 347.00 L 220.50 362.00 L 222.50 378.00 L 229.00 390.50 L 234.50 369.00 L 248.50 345.00 L 255.50 319.00 L 259.00 313.50 L 266.00 309.50 L 272.00 309.50 L 279.50 315.00 L 290.50 346.00 L 311.50 371.00 L 312.50 138.00 L 315.50 127.00 L 327.50 107.00 L 345.00 92.50 L 365.00 85.50 L 385.00 85.50 L 393.00 87.50 L 412.00 97.50 L 419.50 104.00 L 428.50 116.00 L 436.50 135.00 L 438.50 160.00 L 437.50 447.00 L 439.00 450.50 L 516.50 450.00 L 517.50 193.00 L 521.50 179.00 L 527.50 167.00 L 542.00 151.50 L 555.00 143.50 L 576.00 138.50 L 586.00 138.50 L 606.00 143.50 L 618.00 150.50 L 627.50 159.00 L 639.50 179.00 L 644.50 204.00 L 645.00 347.50 L 651.50 336.00 L 667.50 319.00 L 675.50 302.00 L 677.50 294.00 L 677.50 272.00 L 672.50 254.00 L 664.50 238.00 L 663.50 223.00 L 669.50 209.00 L 678.00 201.50 L 685.00 198.50 L 699.00 198.50 L 705.00 201.50 L 714.50 210.00 L 719.50 221.00 L 718.50 238.00 L 710.50 255.00 L 705.50 275.00 L 707.50 300.00 L 713.50 316.00 L 718.50 323.00 L 732.00 336.50 L 740.50 323.00 L 742.50 313.00 L 747.50 302.00 L 754.00 296.50 L 762.00 295.50 L 770.50 301.00 L 776.50 318.00 L 786.00 334.50 L 787.50 85.00 L 794.50 67.00 L 810.00 49.50 L 825.00 41.50 L 847.00 38.50 L 866.00 43.50 L 878.50 52.00 L 890.50 67.00 L 898.50 90.00 L 899.00 450.50 L 976.00 450.50 L 977.50 449.00 L 977.50 141.00 L 982.50 124.00 L 991.50 109.00 L 1009.00 93.50 L 1032.00 85.50 L 1055.00 86.50 L 1062.00 88.50 L 1078.00 97.50 L 1086.50 105.00 L 1094.50 116.00 L 1100.50 128.00 L 1103.50 139.00 L 1105.00 420.50 L 1115.50 405.00 L 1120.50 384.00 L 1119.50 373.00 L 1108.50 347.00 L 1108.50 332.00 L 1113.50 322.00 L 1121.00 315.50 L 1128.00 312.50 L 1139.00 312.50 L 1144.00 314.50 L 1151.50 320.00 L 1157.50 331.00 L 1157.50 347.00 L 1147.50 368.00 L 1145.50 381.00 L 1147.50 399.00 L 1153.00 409.50 L 1158.50 390.00 L 1172.50 362.00 L 1176.50 345.00 L 1181.50 338.00 L 1187.00 334.50 L 1193.00 334.50 L 1199.50 338.00 L 1203.50 344.00 L 1208.50 363.00 L 1213.50 374.00 L 1230.50 393.00 L 1231.50 293.00 L 1238.50 276.00 L 1260.50 248.00 L 1265.50 234.00 L 1265.50 211.00 L 1248.50 173.00 L 1246.50 164.00 L 1247.50 150.00 L 1253.50 135.00 L 1265.00 122.50 L 1283.00 114.50 L 1300.00 114.50 L 1312.00 119.50 L 1321.50 127.00 L 1329.50 138.00 L 1334.50 155.00 L 1334.50 164.00 L 1331.50 176.00 L 1316.50 208.00 L 1315.50 232.00 L 1323.50 252.00 L 1343.50 276.00 L 1350.50 295.00 L 1352.00 450.50 L 1448.50 450.00 L 1442.50 433.00 L 1443.50 410.00 L 1451.50 392.00 L 1470.50 368.00 L 1476.50 355.00 L 1479.50 342.00 L 1479.50 324.00 L 1477.50 314.00 L 1457.50 275.00 L 1455.50 267.00 L 1455.50 248.00 L 1458.50 239.00 L 1467.00 228.50 L 1479.00 221.50 L 1491.00 218.50 L 1507.00 220.50 L 1524.00 228.50 L 1537.50 242.00 L 1543.50 255.00 L 1544.50 266.00 L 1542.50 276.00 L 1523.50 315.00 L 1521.50 337.00 L 1523.50 351.00 L 1528.50 364.00 L 1551.50 394.00 L 1557.50 408.00 L 1559.50 430.00 L 1552.50 450.00 L 1688.00 450.50 L 1689.50 141.00 L 1698.50 117.00 L 1707.50 105.00 L 1716.00 97.50 L 1732.00 88.50 L 1744.00 85.50 L 1755.00 84.50 L 1769.00 86.50 L 1784.00 92.50 L 1798.50 104.00 L 1810.50 121.00 L 1816.50 139.00 L 1818.00 330.50 L 1829.50 318.00 L 1834.50 308.00 L 1838.50 293.00 L 1837.50 266.00 L 1826.50 241.00 L 1824.50 224.00 L 1826.50 216.00 L 1831.50 208.00 L 1841.00 200.50 L 1846.00 198.50 L 1863.00 199.50 L 1871.50 205.00 L 1878.50 215.00 L 1880.50 221.00 L 1880.50 234.00 L 1867.50 268.00 L 1866.50 291.00 L 1871.50 310.00 L 1875.50 318.00 L 1892.00 336.50 L 1894.50 335.00 L 1900.50 324.00 L 1906.50 304.00 L 1913.00 297.50 L 1918.00 295.50 L 1926.00 297.50 L 1932.50 304.00 L 1938.50 320.00 L 1941.50 323.00 L 1942.50 210.00 L 1949.50 190.00 L 1964.00 172.50 L 1979.00 164.50 L 1997.00 164.50 L 2013.00 170.50 L 2030.50 189.00 L 2035.50 200.00 L 2038.50 213.00 L 2038.50 507.00 L 2031.50 531.00 L 2025.50 540.00 L 2012.00 552.50 L 2001.00 558.50 L 1987.00 562.50 L 1807.00 563.50 Z" />
    <path
      d="M 584.00 88.50 L 573.00 87.50 L 566.00 84.50 L 557.50 76.00 L 551.50 61.00 L 551.50 44.00 L 556.50 30.00 L 566.00 20.50 L 575.00 16.50 L 586.00 16.50 L 595.00 20.50 L 603.50 29.00 L 609.50 48.00 L 608.50 64.00 L 604.50 74.00 L 595.00 84.50 L 584.00 88.50 Z" />
    <path
      d="M 1295.00 88.50 L 1282.00 87.50 L 1273.00 82.50 L 1265.50 73.00 L 1261.50 62.00 L 1261.50 43.00 L 1265.50 32.00 L 1276.00 20.50 L 1285.00 16.50 L 1296.00 16.50 L 1305.00 20.50 L 1315.50 33.00 L 1319.50 50.00 L 1318.50 62.00 L 1313.50 75.00 L 1305.00 84.50 L 1295.00 88.50 Z" />
    <path
      d="M 1497.00 183.50 L 1484.00 182.50 L 1474.00 176.50 L 1468.50 169.00 L 1464.50 158.00 L 1464.50 138.00 L 1467.50 128.00 L 1477.00 116.50 L 1491.00 111.50 L 1500.00 112.50 L 1508.00 116.50 L 1515.50 125.00 L 1520.50 137.00 L 1520.50 158.00 L 1514.50 172.00 L 1505.00 180.50 L 1497.00 183.50 Z" />
    <path
      d="M 1192.00 310.50 L 1183.00 309.50 L 1175.00 305.50 L 1167.50 295.00 L 1165.50 286.00 L 1166.50 278.00 L 1170.50 270.00 L 1178.00 263.50 L 1186.00 260.50 L 1194.00 260.50 L 1204.00 265.50 L 1210.50 273.00 L 1213.50 281.00 L 1212.50 293.00 L 1207.50 302.00 L 1201.00 307.50 L 1192.00 310.50 Z" />
    <path
      d="M 272.00 284.50 L 265.00 284.50 L 254.00 279.50 L 249.50 275.00 L 244.50 262.00 L 245.50 252.00 L 248.50 246.00 L 256.00 238.50 L 263.00 235.50 L 275.00 235.50 L 280.00 237.50 L 289.50 247.00 L 292.50 257.00 L 291.50 267.00 L 286.50 276.00 L 282.00 280.50 L 272.00 284.50 Z" />
    <path
      d="M 765.00 276.50 L 752.00 276.50 L 747.00 274.50 L 738.50 267.00 L 734.50 258.00 L 734.50 247.00 L 738.50 238.00 L 751.00 228.50 L 761.00 227.50 L 768.00 229.50 L 777.50 238.00 L 780.50 244.00 L 780.50 262.00 L 770.00 274.50 L 765.00 276.50 Z" />
    <path
      d="M 1919.00 278.50 L 1904.00 275.50 L 1895.50 267.00 L 1892.50 257.00 L 1892.50 250.00 L 1895.50 241.00 L 1901.00 234.50 L 1912.00 229.50 L 1921.00 229.50 L 1931.00 234.50 L 1939.50 248.00 L 1939.50 260.00 L 1933.50 271.00 L 1928.00 275.50 L 1919.00 278.50 Z" />
  </g>
</svg>