<svg width="103" height="231" viewBox="0 0 103 231" fill="none" xmlns="http://www.w3.org/2000/svg">
<path d="M65.5998 230.7V100.9C65.5998 93.9999 60.5998 88.3999 54.3998 88.3999H47.9998C41.7998 88.3999 36.7998 93.9999 36.7998 100.9V230.7H65.5998Z" fill="#7C4D29"/>
<path opacity="0.6" d="M65.5998 192.5V97.4999C65.5998 92.4999 60.5998 88.3999 54.3998 88.3999H47.9998C41.7998 88.3999 36.7998 92.4999 36.7998 97.4999V192.5H65.5998Z" fill="#56331B"/>
<path d="M102.5 151.6C102.5 163.6 92.7 173.4 80.7 173.4H21.8C9.79999 173.4 0 163.6 0 151.6V22.1999C0 10.1999 9.79999 0.399902 21.8 0.399902H80.7C92.7 0.399902 102.5 10.1999 102.5 22.1999V151.6Z" fill="#65AD18"/>
<path d="M80.7 0.399902H21.8C9.79999 0.399902 0 10.1999 0 22.1999V113.8C0 125.8 9.79999 135.6 21.8 135.6H80.7C92.7 135.6 102.5 125.8 102.5 113.8V22.1999C102.5 10.0999 92.7 0.399902 80.7 0.399902Z" fill="#7FC62E"/>
<path d="M40.4996 47.5999C40.4996 49.9999 38.4996 51.9999 36.0996 51.9999H20.4996C18.0996 51.9999 16.0996 49.9999 16.0996 47.5999C16.0996 45.1999 18.0996 43.2 20.4996 43.2H36.0996C38.5996 43.3 40.4996 45.1999 40.4996 47.5999Z" fill="#A5E84D"/>
<path d="M60.1002 67.9998C60.1002 70.3998 58.1002 72.3998 55.7002 72.3998H40.1002C37.7002 72.3998 35.7002 70.3998 35.7002 67.9998C35.7002 65.5998 37.7002 63.5999 40.1002 63.5999H55.7002C58.2002 63.5999 60.1002 65.5998 60.1002 67.9998Z" fill="#A5E84D"/>
<path d="M40.4996 116.7C40.4996 119.1 38.4996 121.1 36.0996 121.1H20.4996C18.0996 121.1 16.0996 119.1 16.0996 116.7C16.0996 114.3 18.0996 112.3 20.4996 112.3H36.0996C38.5996 112.3 40.4996 114.3 40.4996 116.7Z" fill="#65AD18"/>
<path d="M75.5996 121.1C75.5996 123.5 74.3996 125.5 72.7996 125.5H62.8996C61.3996 125.5 60.0996 123.5 60.0996 121.1C60.0996 118.7 61.2996 116.7 62.8996 116.7H72.7996C74.2996 116.7 75.5996 118.7 75.5996 121.1Z" fill="#65AD18"/>
<path d="M65.8 35.9998C65.8 38.3998 64.4 40.3998 62.6 40.3998H51.2C49.4 40.3998 48 38.3998 48 35.9998C48 33.5998 49.4 31.5999 51.2 31.5999H62.6C64.3 31.5999 65.8 33.5998 65.8 35.9998Z" fill="#A5E84D"/>
</svg>
