<svg width="263" height="48" viewBox="0 0 263 48" fill="none" xmlns="http://www.w3.org/2000/svg">
<g clip-path="url(#clip0_3386_2985)">
<path d="M265 15.2261H0V47.3095H265V15.2261Z" fill="#7C4D29"/>
<path d="M28.5579 24.5238C28.5579 26.8809 26.3956 28.7797 23.7113 28.7797H13.7197C11.0354 28.7797 8.87305 26.8809 8.87305 24.5238C8.87305 22.1666 11.0354 20.2678 13.7197 20.2678H23.7113C26.3956 20.2678 28.5579 22.1666 28.5579 24.5238Z" fill="#56331B"/>
<path d="M105.061 24.5238C105.061 26.8809 102.898 28.7797 100.214 28.7797H90.2226C87.5383 28.7797 85.376 26.8809 85.376 24.5238C85.376 22.1666 87.5383 20.2678 90.2226 20.2678H100.214C102.898 20.2678 105.061 22.1666 105.061 24.5238Z" fill="#56331B"/>
<path d="M124.745 36.8983C124.745 39.2554 122.583 41.1543 119.899 41.1543H109.907C107.223 41.1543 105.061 39.2554 105.061 36.8983C105.061 34.5411 107.223 32.6423 109.907 32.6423H119.899C122.583 32.6423 124.745 34.5411 124.745 36.8983Z" fill="#56331B"/>
<path d="M219.069 36.8983C219.069 39.2554 216.906 41.1543 214.222 41.1543H204.23C201.546 41.1543 199.384 39.2554 199.384 36.8983C199.384 34.5411 201.546 32.6423 204.23 32.6423H214.222C216.906 32.6423 219.069 34.5411 219.069 36.8983Z" fill="#56331B"/>
<path d="M51.4495 36.8983C51.4495 39.2554 49.2872 41.1543 46.6029 41.1543H27.9619C25.2776 41.1543 23.1152 39.2554 23.1152 36.8983C23.1152 34.5411 25.2776 32.6423 27.9619 32.6423H46.6029C49.2126 32.6423 51.4495 34.5411 51.4495 36.8983Z" fill="#56331B"/>
<path d="M253.89 24.5238C253.89 26.8809 251.728 28.7797 249.043 28.7797H230.402C227.718 28.7797 225.556 26.8809 225.556 24.5238C225.556 22.1666 227.718 20.2678 230.402 20.2678H249.043C251.728 20.2678 253.89 22.1666 253.89 24.5238Z" fill="#56331B"/>
<path d="M168.29 28.7799C168.29 31.137 166.128 33.0358 163.444 33.0358H144.803C142.118 33.0358 139.956 31.137 139.956 28.7799C139.956 26.4227 142.118 24.5239 144.803 24.5239H163.444C166.128 24.5239 168.29 26.4227 168.29 28.7799Z" fill="#56331B"/>
<path d="M265 7.3689H0V15.2915H265V7.3689Z" fill="#56331B"/>
<path d="M265 0.689941H0V8.61256H265V0.689941Z" fill="#7FC62E"/>
<path d="M225.108 0.689941H39.8916V33.0353H225.108V0.689941Z" fill="#4DAFD6"/>
<path d="M225.108 0.689941H39.8916V7.36853H225.108V0.689941Z" fill="#279DC1"/>
<path d="M119.078 24.523C119.078 26.6183 117.139 28.3861 114.678 28.3861H101.406C99.0201 28.3861 97.0068 26.6837 97.0068 24.523C97.0068 22.4278 98.9455 20.6599 101.406 20.6599H114.678C117.139 20.7254 119.078 22.4278 119.078 24.523Z" fill="#279DC1"/>
<path d="M216.981 16.8626C216.981 18.9579 215.042 20.7257 212.582 20.7257H199.309C196.923 20.7257 194.91 19.0233 194.91 16.8626C194.91 14.7674 196.849 12.9995 199.309 12.9995H212.582C215.042 12.9995 216.981 14.7674 216.981 16.8626Z" fill="#279DC1"/>
<path d="M152.409 15.2254C152.409 17.3207 150.47 19.0885 148.01 19.0885H134.737C132.351 19.0885 130.338 17.3861 130.338 15.2254C130.338 13.1302 132.277 11.3623 134.737 11.3623H148.01C150.47 11.4278 152.409 13.1302 152.409 15.2254Z" fill="#279DC1"/>
<path d="M84.1079 16.8626C84.1079 18.9579 82.1692 20.7257 79.7086 20.7257H55.6991C53.313 20.7257 51.2998 19.0233 51.2998 16.8626C51.2998 14.7674 53.2385 12.9995 55.6991 12.9995H79.7086C82.0947 12.9995 84.1079 14.7674 84.1079 16.8626Z" fill="#279DC1"/>
<path d="M182.01 25.6368C182.01 27.732 180.072 29.4999 177.611 29.4999H153.601C151.215 29.4999 149.202 27.7975 149.202 25.6368C149.202 23.5415 151.141 21.7737 153.601 21.7737H177.611C180.072 21.7737 182.01 23.5415 182.01 25.6368Z" fill="#279DC1"/>
<path d="M263 67.0629C263 83.2949 246.802 96.3085 226.947 96.3085H32.0528C12.1977 96.3085 -4 83.155 -4 67.0629V2.69458C-4 -13.5374 12.1977 -26.551 32.0528 -26.551H226.947C246.802 -26.551 263 -13.3975 263 2.69458V67.0629Z" fill="#279DC1"/>
<path d="M226.947 -26.6909H32.0528C12.1977 -26.6909 -4 -13.5374 -4 2.55469V33.7593C-4 49.9914 12.1977 63.0049 32.0528 63.0049H226.947C246.802 63.0049 263 49.8514 263 33.7593V2.55469C263 -13.5374 246.802 -26.6909 226.947 -26.6909Z" fill="#4DAFD6"/>
<path d="M53.476 18.2265C53.476 21.4449 50.1668 24.1036 46.3351 24.1036H20.3841C16.3782 24.1036 13.2432 21.4449 13.2432 18.2265C13.2432 15.0081 16.5524 12.3494 20.3841 12.3494H46.161C50.1668 12.3494 53.476 15.0081 53.476 18.2265Z" fill="#73D2EF"/>
<path d="M85.8712 45.653C85.8712 48.8714 82.562 51.5301 78.7303 51.5301H52.9534C48.9475 51.5301 45.8125 48.8714 45.8125 45.653C45.8125 42.4346 49.1217 39.7759 52.9534 39.7759H78.7303C82.7362 39.7759 85.8712 42.2946 85.8712 45.653Z" fill="#73D2EF"/>
<path d="M184.624 24.1022C184.624 27.3206 181.315 29.9793 177.483 29.9793H151.706C147.7 29.9793 144.565 27.3206 144.565 24.1022C144.565 20.8838 147.875 18.2251 151.706 18.2251H177.483C181.489 18.2251 184.624 20.8838 184.624 24.1022Z" fill="#2297B2"/>
<path d="M242.796 29.9814C242.796 33.1998 240.706 35.8585 238.267 35.8585H221.896C219.283 35.8585 217.367 33.1998 217.367 29.9814C217.367 26.7629 219.457 24.1042 221.896 24.1042H238.267C240.706 24.1042 242.796 26.7629 242.796 29.9814Z" fill="#2297B2"/>
<path d="M95.2753 2.694C95.2753 5.91241 92.8369 8.57111 90.0502 8.57111H71.0659C68.105 8.57111 65.8408 5.91241 65.8408 2.694C65.8408 -0.524418 68.2792 -3.18311 71.0659 -3.18311H90.0502C92.8369 -3.18311 95.2753 -0.664349 95.2753 2.694Z" fill="#73D2EF"/>
</g>
<defs>
<clipPath id="clip0_3386_2985">
<rect y="0.689941" width="263" height="47" rx="8" fill="white"/>
</clipPath>
</defs>
</svg>
