<svg width="122" height="168" viewBox="0 0 122 168" fill="none" xmlns="http://www.w3.org/2000/svg">
<path d="M76.0998 167.7V37.9004C76.0998 31.0004 71.0998 25.4004 64.8998 25.4004H58.4998C52.2998 25.4004 47.2998 31.0004 47.2998 37.9004V167.7H76.0998Z" fill="#7C4D29"/>
<path opacity="0.6" d="M76.0998 143.7V35.8004C76.0998 30.1004 71.0998 25.4004 64.8998 25.4004H58.4998C52.2998 25.4004 47.2998 30.0004 47.2998 35.8004V143.7H76.0998Z" fill="#56331B"/>
<path d="M121.3 96.5002C121.3 110.5 109.9 121.9 95.8996 121.9H25.4996C11.4996 121.9 0.0996094 110.5 0.0996094 96.5002V26.1002C0.0996094 12.1002 11.4996 0.700195 25.4996 0.700195H95.8996C109.9 0.700195 121.3 12.1002 121.3 26.1002V96.5002Z" fill="#4D8907"/>
<path d="M95.8996 0.800293H25.4996C11.4996 0.800293 0.0996094 12.2003 0.0996094 26.2003V71.1003C0.0996094 85.1003 11.4996 96.5003 25.4996 96.5003H95.8996C109.9 96.5003 121.3 85.1003 121.3 71.1003V26.2003C121.3 12.1003 109.9 0.800293 95.8996 0.800293Z" fill="#65AD18"/>
<path opacity="0.4" d="M38.9 31.7001C38.9 34.5001 36.6 36.8001 33.8 36.8001H15.6C12.8 36.8001 10.5 34.5001 10.5 31.7001C10.5 28.9001 12.8 26.6001 15.6 26.6001H33.8C36.6 26.6001 38.9 28.9001 38.9 31.7001Z" fill="#4D8907"/>
<path opacity="0.4" d="M61.7994 55.4003C61.7994 58.2003 59.4994 60.5003 56.6994 60.5003H38.4994C35.6994 60.5003 33.3994 58.2003 33.3994 55.4003C33.3994 52.6003 35.6994 50.3003 38.4994 50.3003H56.6994C59.4994 50.4003 61.7994 52.6003 61.7994 55.4003Z" fill="#4D8907"/>
<path d="M96.9 79.2001C96.9 82.0001 94.6 84.3001 91.8 84.3001H73.6C70.8 84.3001 68.5 82.0001 68.5 79.2001C68.5 76.4001 70.8 74.1001 73.6 74.1001H91.8C94.7 74.1001 96.9 76.4001 96.9 79.2001Z" fill="#4D8907"/>
<path opacity="0.4" d="M68.2996 18.1C68.2996 20.9 66.5996 23.2 64.5996 23.2H51.2996C49.1996 23.2 47.5996 20.9 47.5996 18.1C47.5996 15.3 49.2996 13 51.2996 13H64.5996C66.6996 13.1 68.2996 15.3 68.2996 18.1Z" fill="#4D8907"/>
<path opacity="0.4" d="M107.3 41.9003C107.3 44.7003 105.6 47.0003 103.6 47.0003H90.2996C88.1996 47.0003 86.5996 44.7003 86.5996 41.9003C86.5996 39.1003 88.2996 36.8003 90.2996 36.8003H103.6C105.6 36.8003 107.3 39.1003 107.3 41.9003Z" fill="#4D8907"/>
</svg>
