<svg width="127" height="266" viewBox="0 0 127 266" fill="none" xmlns="http://www.w3.org/2000/svg">
<path d="M78.1994 265.7V36.8999C78.1994 29.9999 73.1994 24.3999 66.9994 24.3999H60.5994C54.3994 24.3999 49.3994 29.9999 49.3994 36.8999V265.7H78.1994Z" fill="#7C4D29"/>
<path opacity="0.6" d="M78.1994 56.5998V34.6998C78.1994 28.9998 73.1994 24.2998 66.9994 24.2998H60.5994C54.3994 24.2998 49.3994 28.8998 49.3994 34.6998V56.5998H78.1994Z" fill="#56331B"/>
<path opacity="0.6" d="M78.1994 85.0996H49.3994V128.6H78.1994V85.0996Z" fill="#56331B"/>
<path opacity="0.6" d="M78.1994 170.6H49.3994V218.6H78.1994V170.6Z" fill="#56331B"/>
<path d="M126.7 191.3C126.7 200.8 119.1 208.5 109.7 208.5H17.7998C8.39981 208.5 0.799805 200.8 0.799805 191.3V153.5C0.799805 144 8.39981 136.3 17.7998 136.3H109.7C119.1 136.3 126.7 144 126.7 153.5V191.3Z" fill="#65AD18"/>
<path d="M109.7 136.3H17.7998C8.39981 136.3 0.799805 144 0.799805 153.5V171.8C0.799805 181.3 8.39981 189 17.7998 189H109.7C119.1 189 126.7 181.3 126.7 171.8V153.5C126.7 144 119.1 136.3 109.7 136.3Z" fill="#7FC62E"/>
<path d="M27.8994 162.7C27.8994 164.6 26.3994 166.1 24.4994 166.1H12.2994C10.3994 166.1 8.89941 164.6 8.89941 162.7C8.89941 160.8 10.3994 159.3 12.2994 159.3H24.4994C26.3994 159.2 27.8994 160.8 27.8994 162.7Z" fill="#A5E84D"/>
<path d="M43.2002 178.7C43.2002 180.6 41.7002 182.1 39.8002 182.1H27.6002C25.7002 182.1 24.2002 180.6 24.2002 178.7C24.2002 176.8 25.7002 175.3 27.6002 175.3H39.8002C41.7002 175.3 43.2002 176.8 43.2002 178.7Z" fill="#A5E84D"/>
<path d="M89.7998 166.1C89.7998 168 88.2998 169.5 86.3998 169.5H74.1998C72.2998 169.5 70.7998 168 70.7998 166.1C70.7998 164.2 72.2998 162.7 74.1998 162.7H86.3998C88.2998 162.7 89.7998 164.2 89.7998 166.1Z" fill="#65AD18"/>
<path d="M117.1 169.5C117.1 171.4 116.1 172.9 114.9 172.9H107.2C106 172.9 105 171.4 105 169.5C105 167.6 106 166.1 107.2 166.1H114.9C116.2 166.1 117.1 167.6 117.1 169.5Z" fill="#65AD18"/>
<path d="M47.6002 153.5C47.6002 155.4 46.5002 156.9 45.1002 156.9H36.2002C34.8002 156.9 33.7002 155.4 33.7002 153.5C33.7002 151.6 34.8002 150.1 36.2002 150.1H45.1002C46.5002 150.1 47.6002 151.6 47.6002 153.5Z" fill="#A5E84D"/>
<path d="M116.4 103.3C116.4 112.8 108.8 120.5 99.4002 120.5H28.2002C18.8002 120.5 11.2002 112.8 11.2002 103.3V80.9998C11.2002 71.4998 18.8002 63.7998 28.2002 63.7998H99.4002C108.8 63.7998 116.4 71.4998 116.4 80.9998V103.3Z" fill="#65AD18"/>
<path d="M99.4002 63.7998H28.2002C18.8002 63.7998 11.2002 71.4998 11.2002 80.9998V83.8998C11.2002 93.3998 18.8002 101.1 28.2002 101.1H99.4002C108.8 101.1 116.4 93.3998 116.4 83.8998V80.9998C116.4 71.4998 108.8 63.7998 99.4002 63.7998Z" fill="#7FC62E"/>
<path d="M42.2998 82.6998C42.2998 84.5998 40.7998 86.0998 38.8998 86.0998H26.6998C24.7998 86.0998 23.2998 84.5998 23.2998 82.6998C23.2998 80.7998 24.7998 79.2998 26.6998 79.2998H38.8998C40.7998 79.2998 42.2998 80.7998 42.2998 82.6998Z" fill="#A5E84D"/>
<path d="M104.2 86.1999C104.2 88.0999 102.7 89.5999 100.8 89.5999H88.6002C86.7002 89.5999 85.2002 88.0999 85.2002 86.1999C85.2002 84.2999 86.7002 82.7999 88.6002 82.7999H100.8C102.7 82.6999 104.2 84.2999 104.2 86.1999Z" fill="#65AD18"/>
<path d="M62.0006 73.4996C62.0006 75.3996 60.9006 76.8996 59.5006 76.8996H50.6006C49.2006 76.8996 48.1006 75.3996 48.1006 73.4996C48.1006 71.5996 49.2006 70.0996 50.6006 70.0996H59.5006C60.9006 70.0996 62.0006 71.5996 62.0006 73.4996Z" fill="#A5E84D"/>
<path d="M103.5 30.4C103.5 39.9 95.8996 47.6 86.4996 47.6H41.0996C31.6996 47.6 24.0996 39.9 24.0996 30.4V17.2C24.0996 7.7 31.6996 0 41.0996 0H86.4996C95.8996 0 103.5 7.7 103.5 17.2V30.4Z" fill="#65AD18"/>
<path d="M41.0996 0C31.8996 0 24.3996 7.40001 24.0996 16.6C24.3996 25.8 31.8996 33.2 41.0996 33.2H86.4996C95.6996 33.2 103.2 25.8 103.5 16.6C103.2 7.40001 95.6996 0 86.4996 0H41.0996Z" fill="#7FC62E"/>
<path d="M68.6992 19.1998C68.6992 21.0998 67.1992 22.5998 65.2992 22.5998H53.0992C51.1992 22.5998 49.6992 21.0998 49.6992 19.1998C49.6992 17.2998 51.1992 15.7998 53.0992 15.7998H65.2992C67.1992 15.7998 68.6992 17.2998 68.6992 19.1998Z" fill="#A5E84D"/>
<path d="M53.6998 8.6002C53.6998 10.5002 52.5998 12.0002 51.1998 12.0002H42.2998C40.8998 12.0002 39.7998 10.5002 39.7998 8.6002C39.7998 6.7002 40.8998 5.2002 42.2998 5.2002H51.1998C52.5998 5.2002 53.6998 6.7002 53.6998 8.6002Z" fill="#A5E84D"/>
</svg>
