<svg width="145" height="219" viewBox="0 0 145 219" fill="none" xmlns="http://www.w3.org/2000/svg">
<path d="M110.6 218.7V96.3997C110.6 89.8997 105.3 84.6997 98.9 84.6997H92.2C85.7 84.6997 80.5 89.9997 80.5 96.3997V218.7H110.6Z" fill="#7C4D29"/>
<path d="M102 142.3H54.3002V62.1999C54.3002 58.1999 51.0002 54.8999 47.0002 54.8999C43.0002 54.8999 39.7002 58.1999 39.7002 62.1999V149.6C39.7002 153 42.0002 155.8 45.2002 156.7C45.8002 156.9 46.4002 156.9 47.0002 156.9H102V142.3Z" fill="#7C4D29"/>
<g opacity="0.6">
<path d="M110.6 119.5V96.3997C110.6 89.8997 105.3 84.6997 98.9 84.6997H92.2C85.7 84.6997 80.5 89.9997 80.5 96.3997V119.5H110.6Z" fill="#56331B"/>
<path d="M54.3002 134.3V62.1999C54.3002 58.1999 51.0002 54.8999 47.0002 54.8999C43.0002 54.8999 39.7002 58.1999 39.7002 62.1999V134.3H54.3002Z" fill="#56331B"/>
</g>
<path d="M144.3 84.4002C144.3 96.7002 134.3 106.6 122.1 106.6H60.4998C48.1998 106.6 38.2998 96.6002 38.2998 84.4002V22.9002C38.2998 10.6002 48.2998 0.700195 60.4998 0.700195H122C134.3 0.700195 144.2 10.7002 144.2 22.9002V84.4002H144.3Z" fill="#4D8907"/>
<path opacity="0.4" d="M72.1994 27.7C72.1994 30.2 70.1994 32.1 67.7994 32.1H51.7994C49.2994 32.1 47.3994 30.1 47.3994 27.7C47.3994 25.2 49.3994 23.3 51.7994 23.3H67.6994C70.1994 23.2 72.1994 25.2 72.1994 27.7Z" fill="#4D8907"/>
<path d="M122 0.600098H60.4998C48.1998 0.600098 38.2998 10.6001 38.2998 22.8001V28.4001H74.4998C86.7998 28.4001 96.6998 38.4001 96.6998 50.6001V84.3001H122C134.3 84.3001 144.2 74.3001 144.2 62.1001V22.8001C144.3 10.6001 134.3 0.600098 122 0.600098Z" fill="#65AD18"/>
<path opacity="0.4" d="M92.1994 48.4C92.1994 50.9 90.1994 52.8 87.7994 52.8H71.7994C69.2994 52.8 67.3994 50.8 67.3994 48.4C67.3994 45.9 69.3994 44 71.7994 44H87.6994C90.1994 44 92.1994 46 92.1994 48.4Z" fill="#4D8907"/>
<path d="M122.9 69.2C122.9 71.7 120.9 73.6 118.5 73.6H102.6C100.1 73.6 98.2002 71.6 98.2002 69.2C98.2002 66.7 100.2 64.8 102.6 64.8H118.5C121 64.7 122.9 66.7 122.9 69.2Z" fill="#4D8907"/>
<path opacity="0.4" d="M97.9002 15.7999C97.9002 18.2999 96.4002 20.1999 94.6002 20.1999H83.0002C81.2002 20.1999 79.7002 18.1999 79.7002 15.7999C79.7002 13.2999 81.2002 11.3999 83.0002 11.3999H94.7002C96.5002 11.3999 97.9002 13.3999 97.9002 15.7999Z" fill="#4D8907"/>
<path opacity="0.4" d="M132 36.5999C132 39.0999 130.5 40.9999 128.7 40.9999H117C115.2 40.9999 113.7 38.9999 113.7 36.5999C113.7 34.0999 115.2 32.1999 117 32.1999H128.7C130.6 32.0999 132 34.0999 132 36.5999Z" fill="#4D8907"/>
<path d="M84.6998 106.5C84.6998 116.2 76.7998 124.1 67.0998 124.1H18.3998C8.6998 124.1 0.799805 116.2 0.799805 106.5V57.8002C0.799805 48.1002 8.6998 40.2002 18.3998 40.2002H67.0998C76.7998 40.2002 84.6998 48.1002 84.6998 57.8002V106.5Z" fill="#4D8907"/>
<path d="M67.0998 40.2002H18.3998C8.6998 40.2002 0.799805 48.1002 0.799805 57.8002V88.9002C0.799805 98.6002 8.6998 106.5 18.3998 106.5H67.0998C76.7998 106.5 84.6998 98.6002 84.6998 88.9002V57.8002C84.6998 48.1002 76.7998 40.2002 67.0998 40.2002Z" fill="#65AD18"/>
<path opacity="0.4" d="M27.6 61.6001C27.6 63.5001 26 65.1001 24.1 65.1001H11.5C9.6 65.1001 8 63.5001 8 61.6001C8 59.7001 9.6 58.1001 11.5 58.1001H24.1C26 58.1001 27.6 59.7001 27.6 61.6001Z" fill="#4D8907"/>
<path opacity="0.4" d="M43.4998 78.1001C43.4998 80.0001 41.8998 81.6001 39.9998 81.6001H27.2998C25.3998 81.6001 23.7998 80.0001 23.7998 78.1001C23.7998 76.2001 25.3998 74.6001 27.2998 74.6001H39.8998C41.8998 74.5001 43.4998 76.1001 43.4998 78.1001Z" fill="#4D8907"/>
<path d="M67.8002 94.5C67.8002 96.4 66.2002 98 64.3002 98H51.7002C49.8002 98 48.2002 96.4 48.2002 94.5C48.2002 92.6 49.8002 91 51.7002 91H64.3002C66.2002 91 67.8002 92.6 67.8002 94.5Z" fill="#4D8907"/>
<path opacity="0.4" d="M47.9996 52.2002C47.9996 54.1002 46.7996 55.7002 45.3996 55.7002H36.1996C34.7996 55.7002 33.5996 54.1002 33.5996 52.2002C33.5996 50.3002 34.7996 48.7002 36.1996 48.7002H45.3996C46.8996 48.7002 47.9996 50.3002 47.9996 52.2002Z" fill="#4D8907"/>
<path opacity="0.4" d="M74.9996 68.7002C74.9996 70.6002 73.7996 72.2002 72.3996 72.2002H63.1996C61.7996 72.2002 60.5996 70.6002 60.5996 68.7002C60.5996 66.8002 61.7996 65.2002 63.1996 65.2002H72.3996C73.8996 65.1002 74.9996 66.7002 74.9996 68.7002Z" fill="#4D8907"/>
<path opacity="0.6" d="M106.1 144C106.1 146.2 104.3 148 102.1 148C99.8996 148 98.0996 146.2 98.0996 144V131.7C98.0996 129.5 99.8996 127.7 102.1 127.7C104.3 127.7 106.1 129.5 106.1 131.7V144Z" fill="#56331B"/>
<path opacity="0.6" d="M106.1 169.6C106.1 171.8 104.3 173.6 102.1 173.6C99.8996 173.6 98.0996 171.8 98.0996 169.6V157.3C98.0996 155.1 99.8996 153.3 102.1 153.3C104.3 153.3 106.1 155.1 106.1 157.3V169.6Z" fill="#56331B"/>
<path opacity="0.6" d="M92.8994 206.2C92.8994 208.4 91.0994 210.2 88.8994 210.2C86.6994 210.2 84.8994 208.4 84.8994 206.2V193.9C84.8994 191.7 86.6994 189.9 88.8994 189.9C91.0994 189.9 92.8994 191.7 92.8994 193.9V206.2Z" fill="#56331B"/>
</svg>
