<svg width="268" height="320" viewBox="0 0 268 320" fill="none" xmlns="http://www.w3.org/2000/svg">
<g clip-path="url(#clip0_305_919)">
<path d="M147.766 316.555H111.061C104.013 316.555 98.3379 310.88 98.3379 303.832V146.211C98.3379 139.163 104.013 133.488 111.061 133.488H147.766C154.814 133.488 160.489 139.163 160.489 146.211V303.832C160.489 310.88 154.814 316.555 147.766 316.555Z" fill="#7C4D29" stroke="#422918" stroke-width="6.0278" stroke-miterlimit="10"/>
<path d="M151.701 207.447L145.386 200.765C143.28 198.568 143.372 195.09 145.569 193.076L213.67 128.912C215.866 126.806 219.345 126.898 221.358 129.095L227.674 135.777C229.779 137.973 229.688 141.452 227.491 143.465L159.39 207.63C157.285 209.735 153.807 209.644 151.701 207.447Z" fill="#7C4D29" stroke="#422918" stroke-width="3.3846" stroke-miterlimit="10"/>
<path d="M109.871 191.154V247.081" stroke="#422918" stroke-width="6.2733" stroke-miterlimit="10" stroke-linecap="round"/>
<path d="M109.871 257.058V291.932" stroke="#422918" stroke-width="7.0232" stroke-miterlimit="10" stroke-linecap="round"/>
<path d="M215.501 136.692L194.997 156.097" stroke="#422918" stroke-width="3.3846" stroke-miterlimit="10" stroke-linecap="round"/>
<path d="M188.315 169.827L202.228 156.738" stroke="#422918" stroke-width="3.3846" stroke-miterlimit="10" stroke-linecap="round"/>
<path d="M222.64 94.1292C222.64 86.1658 217.331 79.2093 209.368 75.4564C206.256 61.5433 191.885 51.017 174.677 51.017C171.931 51.017 169.185 51.2916 166.622 51.8408C168.544 47.9049 169.643 43.6028 169.643 39.1177C169.551 19.438 149.231 3.51123 124.059 3.51123C98.9789 3.51123 78.5669 19.438 78.5669 39.1177C78.5669 43.3282 79.5738 47.3557 81.2214 51.1085C80.3061 51.017 79.3907 51.017 78.5669 51.017C61.3587 51.017 46.988 61.5433 43.8758 75.4564C35.9124 79.2093 30.6035 86.1658 30.6035 94.1292C30.6035 104.198 39.0246 112.619 50.4662 114.999C46.0726 117.928 43.2351 122.413 43.2351 127.447C43.2351 136.326 52.0223 143.466 62.9148 143.466C65.8438 143.466 68.5898 142.916 71.0612 142.001C71.6104 150.148 79.4823 156.646 89.1848 156.646H161.405C171.29 156.646 179.345 149.873 179.528 141.543C182.274 142.733 185.478 143.466 188.865 143.466C199.757 143.466 208.544 136.326 208.544 127.447C208.544 122.504 205.798 118.202 201.588 115.182C213.67 113.077 222.64 104.472 222.64 94.1292Z" fill="#80BA36" stroke="#39A935" stroke-width="6.0541" stroke-miterlimit="10"/>
<path d="M209.276 73.8089C209.093 73.0766 208.91 72.3443 208.636 71.7036C207.446 72.0697 206.256 72.3443 204.974 72.6189C209.276 75.548 211.931 79.9416 211.931 84.8844C211.931 93.7631 203.144 100.903 192.251 100.903C188.865 100.903 185.661 100.17 182.915 98.9805C182.64 107.402 174.677 114.084 164.791 114.084H92.48C82.7775 114.084 74.9056 107.585 74.3564 99.4382C71.885 100.354 69.139 100.903 66.21 100.903C55.3175 100.903 46.5303 93.7631 46.5303 84.8844C46.5303 79.8501 49.3678 75.3649 53.7614 72.4359C50.7408 71.7951 47.9033 70.6967 45.3404 69.3237C44.6996 70.7883 44.1504 72.3443 43.8758 73.9004C35.9124 77.6533 30.6035 84.6098 30.6035 92.5732C30.6035 102.642 39.0246 111.063 50.4662 113.443C46.0726 116.372 43.2351 120.857 43.2351 125.891C43.2351 134.77 52.0223 141.91 62.9148 141.91C65.8438 141.91 68.5898 141.36 71.0612 140.445C71.6104 148.592 79.4823 155.09 89.1848 155.09H161.405C171.29 155.09 179.345 148.317 179.528 139.987C182.274 141.177 185.478 141.91 188.865 141.91C199.757 141.91 208.544 134.77 208.544 125.891C208.544 120.948 205.798 116.646 201.588 113.626C213.487 111.521 222.457 102.916 222.457 92.5732C222.64 84.5183 217.24 77.5617 209.276 73.8089Z" fill="#5BA332"/>
<path opacity="0.76" d="M150.604 19.7128C150.604 26.8524 141.085 15.4108 127.904 15.4108C114.723 15.4108 102.641 26.8524 102.641 19.7128C102.641 12.5732 113.35 6.80664 126.622 6.80664C139.895 6.80664 150.604 12.5732 150.604 19.7128Z" fill="#B8D484"/>
<path opacity="0.76" d="M104.105 71.8867C104.105 79.0263 94.5856 67.5846 81.4048 67.5846C68.224 67.5846 56.1416 79.0263 56.1416 71.8867C56.1416 64.7471 66.851 58.9805 80.1233 58.9805C93.3956 58.9805 104.105 64.7471 104.105 71.8867Z" fill="#B8D484"/>
<path opacity="0.76" d="M201.587 71.8867C201.587 79.0263 192.068 67.5846 178.887 67.5846C165.706 67.5846 153.624 79.0263 153.624 71.8867C153.624 64.7471 164.333 58.9805 177.606 58.9805C190.878 58.9805 201.587 64.7471 201.587 71.8867Z" fill="#B8D484"/>
<path d="M94.1272 107.035C91.0151 107.035 87.9945 107.585 85.157 108.5C80.5803 99.0721 70.8778 92.5732 59.6192 92.5732C44.15 92.5732 31.5184 105.022 31.2438 120.399C31.0608 120.399 30.8777 120.399 30.6947 120.399C15.0425 120.399 2.31934 133.122 2.31934 148.775C2.31934 164.427 15.0425 177.15 30.6947 177.15C31.5184 177.15 32.3423 177.15 33.166 177.058C37.8342 186.395 47.4452 192.802 58.6123 192.802C74.2645 192.802 86.9876 180.079 86.9876 164.427C86.9876 163.878 86.9876 163.42 86.9876 162.962C89.2759 163.603 91.7473 163.878 94.3103 163.878C109.962 163.878 122.686 151.155 122.686 135.502C122.686 119.85 109.871 107.035 94.1272 107.035Z" fill="#80BA36" stroke="#39AA35" stroke-width="4.8681" stroke-miterlimit="10"/>
<path d="M85.3396 111.704C73.6233 111.704 64.0124 121.223 64.0124 133.031C64.0124 134.678 64.1954 136.326 64.5616 137.882C63.0055 137.516 61.4494 137.333 59.8018 137.333C56.9643 137.333 54.2183 137.882 51.7469 138.889C47.994 133.214 41.4952 129.553 34.1725 129.553C22.4562 129.553 13.0283 138.981 13.0283 150.697C13.0283 162.413 22.4562 171.841 34.1725 171.841C37.01 171.841 39.756 171.292 42.2274 170.285C45.9803 175.96 52.4792 179.621 59.8018 179.621C71.5181 179.621 80.946 170.193 80.946 158.477C80.946 156.83 80.7629 155.273 80.3968 153.717C81.9529 154.084 83.6005 154.267 85.2481 154.267C96.9643 154.267 106.575 144.747 106.575 132.939C106.667 121.223 97.1474 111.704 85.3396 111.704Z" fill="#80BA36"/>
<path d="M94.0357 105.937C91.3813 105.937 88.9099 106.303 86.4385 106.944C86.3469 107.402 86.2554 107.768 86.1639 108.225C97.7886 109.049 106.942 118.843 106.942 130.926C106.942 143.466 96.9648 153.717 84.6993 153.717C82.9602 153.717 81.2211 153.534 79.665 153.077C80.0311 154.724 80.2142 156.372 80.2142 158.203C80.2142 170.651 70.3286 180.811 58.1547 180.811C50.4659 180.811 43.784 176.784 39.848 170.743C38.7496 171.2 37.5597 171.566 36.3698 171.841C35.8206 173.855 34.9052 175.685 33.5322 177.333C38.475 185.846 47.7199 191.612 58.3377 191.612C74.0815 191.612 86.8961 178.889 86.8961 163.237C86.8961 162.688 86.8961 162.23 86.8961 161.772C89.276 162.413 91.6559 162.688 94.2188 162.688C109.963 162.688 122.777 149.965 122.777 134.312C122.777 118.66 109.779 105.937 94.0357 105.937Z" fill="#5BA332" stroke="#39AA35" stroke-width="1.2199" stroke-miterlimit="10"/>
<path opacity="0.76" d="M77.8347 112.985C77.8347 119.209 70.7866 109.232 60.901 109.232C51.0154 109.232 42.1367 119.209 42.1367 112.985C42.1367 106.761 50.1001 101.727 59.9857 101.727C69.8713 101.727 77.8347 106.761 77.8347 112.985Z" fill="#B8D484"/>
<path d="M97.6971 100.262C100.809 100.262 103.83 100.811 106.667 101.726C111.244 92.2982 120.946 85.7993 132.205 85.7993C147.674 85.7993 160.306 98.2478 160.58 113.625C160.763 113.625 160.947 113.625 161.13 113.625C176.782 113.625 189.505 126.349 189.505 142.001C189.505 157.653 176.782 170.376 161.13 170.376C160.306 170.376 159.482 170.376 158.658 170.285C153.99 179.621 144.379 186.028 133.212 186.028C117.56 186.028 104.837 173.305 104.837 157.653C104.837 157.104 104.837 156.646 104.837 156.188C102.548 156.829 100.077 157.104 97.514 157.104C81.8618 157.104 69.1387 144.381 69.1387 128.728C69.1387 113.076 82.0449 100.262 97.6971 100.262Z" fill="#80BA36" stroke="#39AA35" stroke-width="4.8681" stroke-miterlimit="10"/>
<path d="M106.484 105.021C118.2 105.021 127.811 114.541 127.811 126.349C127.811 127.996 127.628 129.644 127.262 131.2C128.818 130.834 130.374 130.651 132.022 130.651C134.859 130.651 137.605 131.2 140.076 132.207C143.829 126.532 150.328 122.87 157.651 122.87C169.367 122.87 178.795 132.298 178.795 144.015C178.795 155.731 169.367 165.159 157.651 165.159C154.813 165.159 152.067 164.61 149.596 163.603C145.843 169.278 139.344 172.939 132.022 172.939C120.305 172.939 110.877 163.511 110.877 151.795C110.877 150.147 111.06 148.591 111.427 147.035C109.87 147.401 108.223 147.584 106.575 147.584C94.859 147.584 85.248 138.065 85.248 126.257C85.248 114.541 94.7675 105.021 106.484 105.021Z" fill="#80BA36"/>
<path d="M97.8801 99.1631C100.535 99.1631 103.006 99.5292 105.477 100.17C105.569 100.628 105.66 100.994 105.752 101.451C94.1273 102.275 84.9739 112.069 84.9739 124.152C84.9739 136.692 94.9511 146.943 107.217 146.943C108.956 146.943 110.695 146.76 112.251 146.303C111.885 147.95 111.702 149.598 111.702 151.429C111.702 163.877 121.587 174.037 133.761 174.037C141.45 174.037 148.132 170.01 152.068 163.969C153.166 164.426 154.356 164.792 155.546 165.067C156.095 167.081 157.011 168.911 158.384 170.559C153.441 179.072 144.196 184.838 133.578 184.838C117.834 184.838 105.02 172.115 105.02 156.463C105.02 155.914 105.02 155.456 105.02 154.998C102.64 155.639 100.26 155.914 97.6971 155.914C81.9533 155.914 69.1387 143.191 69.1387 127.538C69.1387 111.886 82.1364 99.1631 97.8801 99.1631Z" fill="#5BA332" stroke="#39AA35" stroke-width="1.2199" stroke-miterlimit="10"/>
<path opacity="0.76" d="M114.081 106.211C114.081 112.435 121.129 102.458 131.015 102.458C140.9 102.458 149.779 112.435 149.779 106.211C149.779 99.987 141.816 94.9526 131.93 94.9526C122.044 94.9526 114.081 99.987 114.081 106.211Z" fill="#B8D484"/>
<path d="M173.395 100.994C176.507 100.994 179.528 101.543 182.366 102.459C186.942 93.0306 196.645 86.5317 207.903 86.5317C223.372 86.5317 236.004 98.9803 236.279 114.358C236.462 114.358 236.645 114.358 236.828 114.358C252.48 114.358 265.203 127.081 265.203 142.733C265.203 158.385 252.48 171.108 236.828 171.108C236.004 171.108 235.18 171.108 234.356 171.017C229.688 180.353 220.077 186.761 208.91 186.761C193.258 186.761 180.535 174.038 180.535 158.385C180.535 157.836 180.535 157.379 180.535 156.921C178.247 157.562 175.775 157.836 173.212 157.836C157.56 157.836 144.837 145.113 144.837 129.461C144.837 113.809 157.652 100.994 173.395 100.994Z" fill="#80BA36" stroke="#39AA35" stroke-width="4.8681" stroke-miterlimit="10"/>
<path d="M182.183 105.662C193.899 105.662 203.51 115.182 203.51 126.989C203.51 128.637 203.327 130.285 202.961 131.841C204.517 131.474 206.073 131.291 207.72 131.291C210.558 131.291 213.304 131.841 215.775 132.847C219.528 127.172 226.027 123.511 233.35 123.511C245.066 123.511 254.494 132.939 254.494 144.655C254.494 156.372 245.066 165.799 233.35 165.799C230.512 165.799 227.766 165.25 225.295 164.243C221.542 169.918 215.043 173.58 207.72 173.58C196.004 173.58 186.576 164.152 186.576 152.436C186.576 150.788 186.759 149.232 187.125 147.676C185.569 148.042 183.922 148.225 182.274 148.225C170.558 148.225 160.947 138.706 160.947 126.898C160.855 115.273 170.375 105.662 182.183 105.662Z" fill="#80BA36"/>
<path d="M173.487 99.8955C176.141 99.8955 178.612 100.262 181.084 100.902C181.175 101.36 181.267 101.726 181.358 102.184C169.734 103.008 160.58 112.802 160.58 124.884C160.58 137.424 170.557 147.676 182.823 147.676C184.562 147.676 186.301 147.493 187.857 147.035C187.491 148.683 187.308 150.33 187.308 152.161C187.308 164.61 197.194 174.77 209.368 174.77C217.056 174.77 223.738 170.742 227.674 164.701C228.773 165.159 229.963 165.525 231.153 165.799C231.702 167.813 232.617 169.644 233.99 171.291C229.047 179.804 219.802 185.571 209.185 185.571C193.441 185.571 180.626 172.848 180.626 157.195C180.626 156.646 180.626 156.188 180.626 155.731C178.246 156.372 175.866 156.646 173.303 156.646C157.56 156.646 144.745 143.923 144.745 128.271C144.745 112.619 157.743 99.8955 173.487 99.8955Z" fill="#5BA332" stroke="#39AA35" stroke-width="1.2199" stroke-miterlimit="10"/>
<path opacity="0.76" d="M189.688 106.944C189.688 113.168 196.736 103.191 206.621 103.191C216.507 103.191 225.385 113.168 225.385 106.944C225.385 100.719 217.422 95.6851 207.536 95.6851C197.651 95.6851 189.688 100.719 189.688 106.944Z" fill="#B8D484"/>
</g>
<defs>
<clipPath id="clip0_305_919">
<rect width="267.46" height="318.536" fill="white" transform="translate(0.03125 0.765137)"/>
</clipPath>
</defs>
</svg>
