<svg width="362" height="356" viewBox="0 0 362 356" fill="none" xmlns="http://www.w3.org/2000/svg">
<g clip-path="url(#clip0_305_950)">
<path d="M187.277 97.0253C187.277 91.3502 183.982 86.3159 179.131 83.6614C177.209 73.6843 168.421 66.1786 157.895 66.1786C156.156 66.1786 154.508 66.3616 152.952 66.7278C154.142 63.8902 154.783 60.8696 154.783 57.666C154.783 43.5699 142.334 32.2197 127.048 32.2197C111.671 32.2197 99.3138 43.5699 99.3138 57.666C99.3138 60.6866 99.9546 63.5241 100.961 66.2701C100.412 66.2701 99.863 66.1786 99.3138 66.1786C88.7875 66.1786 80.0003 73.6843 78.0781 83.6614C73.2268 86.3159 69.9316 91.2587 69.9316 97.0253C69.9316 104.165 75.0575 110.206 82.1056 111.945C79.3596 114.05 77.712 117.254 77.712 120.824C77.712 127.14 83.1124 132.266 89.7944 132.266C91.5335 132.266 93.2726 131.899 94.7372 131.259C95.1033 137.117 99.863 141.785 105.813 141.785H149.932C155.973 141.785 160.916 136.934 161.007 130.984C162.746 131.899 164.669 132.357 166.682 132.357C173.364 132.357 178.765 127.231 178.765 120.915C178.765 117.437 177.117 114.234 174.463 112.22C181.877 110.572 187.277 104.348 187.277 97.0253Z" fill="#80BA36" stroke="#39A935" stroke-width="4" stroke-miterlimit="10"/>
<path d="M179.223 82.4717C179.131 81.9225 178.948 81.4648 178.856 80.9156C178.124 81.1902 177.392 81.3733 176.568 81.5564C179.131 83.6616 180.87 86.7738 180.87 90.252C180.87 96.5678 175.47 101.694 168.788 101.694C166.683 101.694 164.76 101.236 163.113 100.321C162.93 106.362 158.078 111.122 152.037 111.122H107.918C101.969 111.122 97.2088 106.453 96.8427 100.595C95.2866 101.236 93.639 101.602 91.8999 101.602C85.218 101.602 79.8175 96.4763 79.8175 90.1605C79.8175 86.5907 81.5566 83.387 84.2111 81.2818C82.3804 80.8241 80.6413 80.0918 79.0852 79.085C78.7191 80.1834 78.353 81.1902 78.1699 82.3802C73.3186 85.0346 70.0234 89.9774 70.0234 95.744C70.0234 102.884 75.1493 108.925 82.1974 110.664C79.4514 112.769 77.8038 115.973 77.8038 119.543C77.8038 125.858 83.2042 130.984 89.8862 130.984C91.6253 130.984 93.3644 130.618 94.829 129.977C95.1951 135.836 99.9548 140.504 105.904 140.504H150.024C156.065 140.504 161.008 135.653 161.099 129.703C162.838 130.618 164.76 131.076 166.774 131.076C173.456 131.076 178.856 125.95 178.856 119.634C178.856 116.156 177.209 112.952 174.554 110.939C181.877 109.474 187.278 103.25 187.278 95.8355C187.278 90.1605 184.074 85.1262 179.223 82.4717Z" fill="#5BA332"/>
<path opacity="0.76" d="M143.341 43.7532C143.341 48.879 137.575 40.641 129.428 40.641C121.282 40.641 114.051 48.879 114.051 43.7532C114.051 38.6273 120.641 34.5083 128.696 34.5083C136.751 34.5083 143.341 38.6273 143.341 43.7532Z" fill="#B8D484"/>
<path opacity="0.76" d="M114.966 81.0984C114.966 86.2242 109.2 77.9862 101.053 77.9862C92.9069 77.9862 85.6758 86.2242 85.6758 81.0984C85.6758 75.9725 92.2662 71.8535 100.321 71.8535C108.376 71.8535 114.966 75.9725 114.966 81.0984Z" fill="#B8D484"/>
<path opacity="0.76" d="M174.463 81.0984C174.463 86.2242 168.696 77.9862 160.549 77.9862C152.403 77.9862 145.172 86.2242 145.172 81.0984C145.172 75.9725 151.762 71.8535 159.817 71.8535C167.872 71.8535 174.463 75.9725 174.463 81.0984Z" fill="#B8D484"/>
<path d="M196.064 209.062L192.22 200.641C190.938 197.895 192.22 194.691 194.966 193.41L280.183 154.783C282.929 153.501 286.133 154.783 287.415 157.529L291.259 165.95C292.54 168.696 291.259 171.9 288.513 173.181L203.295 211.808C200.549 212.998 197.346 211.808 196.064 209.062Z" fill="#7C4D29" stroke="#422918" stroke-width="3.3846" stroke-miterlimit="10"/>
<path d="M91.6252 191.487L95.4696 183.066C96.7511 180.32 99.9548 179.13 102.701 180.32L187.918 219.039C190.664 220.32 191.854 223.524 190.664 226.27L186.82 234.691C185.538 237.437 182.335 238.627 179.589 237.437L94.3712 198.719C91.6252 197.437 90.3438 194.233 91.6252 191.487Z" fill="#7C4D29" stroke="#422918" stroke-width="3.3846" stroke-miterlimit="10"/>
<path d="M194.325 353.502H166.865C160.55 353.502 155.424 348.376 155.424 342.06V181.877C155.424 175.561 160.55 170.435 166.865 170.435H194.325C200.641 170.435 205.767 175.561 205.767 181.877V342.06C205.767 348.376 200.641 353.502 194.325 353.502Z" fill="#7C4D29" stroke="#422918" stroke-width="5.426" stroke-miterlimit="10"/>
<path d="M171.168 228.101V283.936" stroke="#422918" stroke-width="7.3561" stroke-miterlimit="10" stroke-linecap="round"/>
<path d="M171.168 294.005V328.879" stroke="#422918" stroke-width="8.2355" stroke-miterlimit="10" stroke-linecap="round"/>
<path d="M166.499 107.644C164.211 107.644 162.014 108.01 159.909 108.742C156.522 101.877 149.474 97.1172 141.328 97.1172C130.069 97.1172 120.824 106.179 120.641 117.438C120.458 117.438 120.367 117.438 120.184 117.438C108.742 117.438 99.4971 126.682 99.4971 138.124C99.4971 149.566 108.742 158.811 120.184 158.811C120.824 158.811 121.374 158.811 121.923 158.719C125.309 165.493 132.358 170.161 140.412 170.161C151.854 170.161 161.099 160.916 161.099 149.474C161.099 149.108 161.099 148.742 161.099 148.376C162.747 148.833 164.577 149.108 166.408 149.108C177.85 149.108 187.094 139.863 187.094 128.422C187.094 116.98 177.941 107.644 166.499 107.644Z" fill="#80BA36" stroke="#39AA35" stroke-width="3.5468" stroke-miterlimit="10"/>
<path d="M160.092 111.122C151.488 111.122 144.623 118.078 144.623 126.591C144.623 127.781 144.806 128.971 145.08 130.16C143.982 129.886 142.792 129.794 141.602 129.794C139.497 129.794 137.575 130.252 135.744 130.984C132.998 126.865 128.238 124.119 122.929 124.119C114.417 124.119 107.552 130.984 107.552 139.497C107.552 148.009 114.417 154.874 122.929 154.874C125.035 154.874 126.957 154.417 128.787 153.685C131.533 157.804 136.293 160.55 141.602 160.55C150.115 160.55 156.98 153.685 156.98 145.172C156.98 143.982 156.797 142.792 156.614 141.694C157.712 141.968 158.902 142.151 160.183 142.151C168.788 142.151 175.653 135.195 175.653 126.682C175.653 118.078 168.696 111.122 160.092 111.122Z" fill="#80BA36"/>
<path d="M166.408 106.911C164.486 106.911 162.655 107.186 160.916 107.643C160.825 107.918 160.825 108.284 160.733 108.559C169.154 109.108 175.836 116.339 175.836 125.126C175.836 134.28 168.605 141.694 159.635 141.694C158.353 141.694 157.163 141.511 155.973 141.236C156.248 142.426 156.431 143.708 156.431 144.897C156.431 153.959 149.2 161.373 140.321 161.373C134.738 161.373 129.886 158.444 126.957 154.051C126.133 154.417 125.31 154.691 124.394 154.875C124.028 156.339 123.296 157.712 122.289 158.902C125.859 165.126 132.632 169.337 140.321 169.337C151.763 169.337 161.099 160.092 161.099 148.65C161.099 148.284 161.099 147.918 161.099 147.552C162.838 148.01 164.577 148.284 166.408 148.284C177.85 148.284 187.186 139.039 187.186 127.598C187.186 116.156 177.941 106.911 166.408 106.911Z" fill="#5BA332" stroke="#39AA35" stroke-width="0.8888" stroke-miterlimit="10"/>
<path opacity="0.76" d="M154.6 112.037C154.6 116.613 149.474 109.291 142.335 109.291C135.195 109.291 128.696 116.522 128.696 112.037C128.696 107.552 134.554 103.799 141.694 103.799C148.834 103.799 154.6 107.46 154.6 112.037Z" fill="#B8D484"/>
<path d="M214.371 78.0781C212.083 78.0781 209.886 78.4442 207.781 79.1765C204.394 72.3115 197.346 67.5518 189.2 67.5518C177.941 67.5518 168.696 76.6135 168.513 87.8721C168.33 87.8721 168.239 87.8721 168.056 87.8721C156.614 87.8721 147.369 97.117 147.369 108.559C147.369 120 156.614 129.245 168.056 129.245C168.696 129.245 169.246 129.245 169.795 129.154C173.182 135.927 180.23 140.595 188.285 140.595C199.726 140.595 208.971 131.35 208.971 119.909C208.971 119.543 208.971 119.177 208.971 118.81C210.619 119.268 212.449 119.543 214.28 119.543C225.722 119.543 234.966 110.298 234.966 98.8561C234.966 87.4145 225.813 78.0781 214.371 78.0781Z" fill="#80BA36" stroke="#39AA35" stroke-width="3.5468" stroke-miterlimit="10"/>
<path d="M207.964 81.5562C199.36 81.5562 192.495 88.5127 192.495 97.0253C192.495 98.2152 192.678 99.4051 192.952 100.595C191.854 100.32 190.664 100.229 189.474 100.229C187.369 100.229 185.447 100.687 183.616 101.419C180.87 97.2999 176.11 94.5539 170.801 94.5539C162.289 94.5539 155.424 101.419 155.424 109.931C155.424 118.444 162.289 125.309 170.801 125.309C172.907 125.309 174.829 124.851 176.66 124.119C179.406 128.238 184.165 130.984 189.474 130.984C197.987 130.984 204.852 124.119 204.852 115.607C204.852 114.417 204.669 113.227 204.486 112.128C205.584 112.403 206.774 112.586 208.055 112.586C216.66 112.586 223.525 105.629 223.525 97.1168C223.433 88.4211 216.477 81.5562 207.964 81.5562Z" fill="#80BA36"/>
<path d="M214.28 77.2544C212.358 77.2544 210.527 77.529 208.788 77.9867C208.697 78.2613 208.697 78.6274 208.605 78.902C217.026 79.4512 223.708 86.6823 223.708 95.4695C223.708 104.623 216.477 112.037 207.507 112.037C206.225 112.037 205.035 111.854 203.845 111.579C204.12 112.769 204.303 114.051 204.303 115.241C204.303 124.302 197.072 131.717 188.193 131.717C182.61 131.717 177.758 128.788 174.829 124.394C174.006 124.76 173.182 125.035 172.266 125.218C171.9 126.682 171.168 128.055 170.161 129.245C173.731 135.47 180.504 139.68 188.193 139.68C199.635 139.68 208.971 130.435 208.971 118.994C208.971 118.627 208.971 118.261 208.971 117.895C210.71 118.353 212.45 118.627 214.28 118.627C225.722 118.627 235.058 109.383 235.058 97.9409C235.058 86.4993 225.722 77.2544 214.28 77.2544Z" fill="#5BA332" stroke="#39AA35" stroke-width="0.8888" stroke-miterlimit="10"/>
<path opacity="0.76" d="M202.472 82.4719C202.472 87.0485 197.346 79.7259 190.207 79.7259C183.067 79.7259 176.568 86.957 176.568 82.4719C176.568 77.9868 182.427 74.2339 189.566 74.2339C196.614 74.2339 202.472 77.8952 202.472 82.4719Z" fill="#B8D484"/>
<path opacity="0.76" d="M169.062 93.2724C172.906 95.6523 164.028 96.2015 160.275 102.334C156.522 108.467 159.36 117.803 155.515 115.423C151.671 113.044 151.579 106.179 155.241 100.046C158.993 94.0047 165.218 90.8926 169.062 93.2724Z" fill="#B8D484"/>
<path d="M214.371 114.508C212.083 114.508 209.886 114.874 207.781 115.607C204.394 108.742 197.346 103.982 189.2 103.982C177.941 103.982 168.696 113.044 168.513 124.302C168.33 124.302 168.239 124.302 168.056 124.302C156.614 124.302 147.369 133.547 147.369 144.989C147.369 156.43 156.614 165.675 168.056 165.675C168.696 165.675 169.246 165.675 169.795 165.584C173.182 172.357 180.23 177.025 188.285 177.025C199.726 177.025 208.971 167.781 208.971 156.339C208.971 155.973 208.971 155.607 208.971 155.241C210.619 155.698 212.449 155.973 214.28 155.973C225.722 155.973 234.966 146.728 234.966 135.286C234.966 123.845 225.813 114.508 214.371 114.508Z" fill="#80BA36" stroke="#39AA35" stroke-width="3.5468" stroke-miterlimit="10"/>
<path d="M207.964 117.987C199.36 117.987 192.495 124.943 192.495 133.456C192.495 134.646 192.678 135.836 192.952 137.026C191.854 136.751 190.664 136.66 189.474 136.66C187.369 136.66 185.447 137.117 183.616 137.85C180.87 133.731 176.11 130.985 170.801 130.985C162.289 130.985 155.424 137.85 155.424 146.362C155.424 154.875 162.289 161.74 170.801 161.74C172.907 161.74 174.829 161.282 176.66 160.55C179.406 164.669 184.165 167.415 189.474 167.415C197.987 167.415 204.852 160.55 204.852 152.037C204.852 150.847 204.669 149.657 204.486 148.559C205.584 148.834 206.774 149.017 208.055 149.017C216.66 149.017 223.525 142.06 223.525 133.547C223.433 124.852 216.477 117.987 207.964 117.987Z" fill="#80BA36"/>
<path d="M214.28 113.685C212.358 113.685 210.527 113.959 208.788 114.417C208.697 114.691 208.697 115.058 208.605 115.332C217.026 115.881 223.708 123.113 223.708 131.9C223.708 141.053 216.477 148.467 207.507 148.467C206.225 148.467 205.035 148.284 203.845 148.01C204.12 149.199 204.303 150.481 204.303 151.671C204.303 160.733 197.072 168.147 188.193 168.147C182.61 168.147 177.758 165.218 174.829 160.824C174.006 161.19 173.182 161.465 172.266 161.648C171.9 163.113 171.168 164.486 170.161 165.675C173.731 171.9 180.504 176.11 188.193 176.11C199.635 176.11 208.971 166.865 208.971 155.424C208.971 155.058 208.971 154.691 208.971 154.325C210.71 154.783 212.45 155.058 214.28 155.058C225.722 155.058 235.058 145.813 235.058 134.371C235.058 122.929 225.722 113.685 214.28 113.685Z" fill="#5BA332" stroke="#39AA35" stroke-width="0.8888" stroke-miterlimit="10"/>
<path opacity="0.76" d="M202.472 118.902C202.472 123.479 197.346 116.156 190.207 116.156C183.067 116.156 176.568 123.387 176.568 118.902C176.568 114.325 182.427 110.664 189.566 110.664C196.614 110.664 202.472 114.325 202.472 118.902Z" fill="#B8D484"/>
<path opacity="0.76" d="M169.062 129.703C172.906 132.082 164.028 132.632 160.275 138.764C156.522 144.897 159.36 154.234 155.515 151.854C151.671 149.474 151.579 142.609 155.241 136.476C158.993 130.435 165.218 127.323 169.062 129.703Z" fill="#B8D484"/>
<path d="M242.472 83.8447C240.184 83.8447 237.987 84.2108 235.882 84.9431C232.495 78.0781 225.447 73.3184 217.3 73.3184C206.042 73.3184 196.797 82.3802 196.614 93.6388C196.431 93.6388 196.339 93.6388 196.156 93.6388C184.715 93.6388 175.47 102.884 175.47 114.325C175.47 125.767 184.715 135.012 196.156 135.012C196.797 135.012 197.346 135.012 197.895 134.92C201.282 141.694 208.33 146.362 216.385 146.362C227.827 146.362 237.072 137.117 237.072 125.675C237.072 125.309 237.072 124.943 237.072 124.577C238.719 125.035 240.55 125.309 242.381 125.309C253.822 125.309 263.067 116.064 263.067 104.623C263.067 93.1811 253.914 83.8447 242.472 83.8447Z" fill="#80BA36" stroke="#39AA35" stroke-width="3.5468" stroke-miterlimit="10"/>
<path d="M236.065 87.3228C227.46 87.3228 220.595 94.2793 220.595 102.792C220.595 103.982 220.778 105.172 221.053 106.362C219.955 106.087 218.765 105.996 217.575 105.996C215.47 105.996 213.547 106.453 211.717 107.185C208.971 103.066 204.211 100.32 198.902 100.32C190.389 100.32 183.524 107.185 183.524 115.698C183.524 124.211 190.389 131.076 198.902 131.076C201.007 131.076 202.929 130.618 204.76 129.886C207.506 134.005 212.266 136.751 217.575 136.751C226.087 136.751 232.952 129.886 232.952 121.373C232.952 120.183 232.769 118.993 232.586 117.895C233.685 118.169 234.875 118.353 236.156 118.353C244.76 118.353 251.625 111.396 251.625 102.883C251.625 94.2793 244.669 87.3228 236.065 87.3228Z" fill="#80BA36"/>
<path d="M242.381 83.1123C240.459 83.1123 238.628 83.3869 236.889 83.8446C236.797 84.1192 236.797 84.4853 236.706 84.7599C245.127 85.3091 251.809 92.5402 251.809 101.327C251.809 110.481 244.578 117.895 235.607 117.895C234.326 117.895 233.136 117.712 231.946 117.437C232.221 118.627 232.404 119.909 232.404 121.099C232.404 130.16 225.172 137.575 216.294 137.575C210.71 137.575 205.859 134.646 202.93 130.252C202.106 130.618 201.282 130.893 200.367 131.076C200.001 132.54 199.269 133.913 198.262 135.103C201.832 141.327 208.605 145.538 216.294 145.538C227.735 145.538 237.072 136.293 237.072 124.851C237.072 124.485 237.072 124.119 237.072 123.753C238.811 124.211 240.55 124.485 242.381 124.485C253.822 124.485 263.159 115.24 263.159 103.799C263.159 92.3572 253.914 83.1123 242.381 83.1123Z" fill="#5BA332" stroke="#39AA35" stroke-width="0.8888" stroke-miterlimit="10"/>
<path opacity="0.76" d="M230.573 88.238C230.573 92.8147 225.447 85.492 218.307 85.492C211.168 85.492 204.669 92.7231 204.669 88.238C204.669 83.7529 210.527 80 217.667 80C224.806 80 230.573 83.6613 230.573 88.238Z" fill="#B8D484"/>
<path d="M290.344 54.2793C288.056 54.2793 285.859 54.6454 283.754 55.3777C280.367 48.5127 273.319 43.7529 265.173 43.7529C253.914 43.7529 244.669 52.8147 244.486 64.0733C244.303 64.0733 244.211 64.0733 244.028 64.0733C232.587 64.0733 223.342 73.3182 223.342 84.7598C223.342 96.2015 232.587 105.446 244.028 105.446C244.669 105.446 245.218 105.446 245.767 105.355C249.154 112.128 256.202 116.796 264.257 116.796C275.699 116.796 284.944 107.552 284.944 96.11C284.944 95.7438 284.944 95.3777 284.944 95.0116C286.591 95.4692 288.422 95.7438 290.253 95.7438C301.694 95.7438 310.939 86.499 310.939 75.0573C310.939 63.6157 301.786 54.2793 290.344 54.2793Z" fill="#80BA36" stroke="#39AA35" stroke-width="3.5468" stroke-miterlimit="10"/>
<path d="M283.937 57.7573C275.332 57.7573 268.467 64.7139 268.467 73.2264C268.467 74.4164 268.651 75.6063 268.925 76.7962C267.827 76.5216 266.637 76.4301 265.447 76.4301C263.342 76.4301 261.419 76.8878 259.589 77.62C256.843 73.5011 252.083 70.7551 246.774 70.7551C238.261 70.7551 231.396 77.62 231.396 86.1326C231.396 94.6452 238.261 101.51 246.774 101.51C248.879 101.51 250.802 101.053 252.632 100.32C255.378 104.439 260.138 107.185 265.447 107.185C273.959 107.185 280.824 100.32 280.824 91.8077C280.824 90.6178 280.641 89.4278 280.458 88.3294C281.557 88.604 282.747 88.7871 284.028 88.7871C292.632 88.7871 299.497 81.8306 299.497 73.318C299.406 64.6223 292.449 57.7573 283.937 57.7573Z" fill="#80BA36"/>
<path d="M290.253 53.4556C288.331 53.4556 286.5 53.7302 284.761 54.1878C284.669 54.4624 284.669 54.8286 284.578 55.1032C292.999 55.6524 299.681 62.8835 299.681 71.6707C299.681 80.824 292.45 88.2382 283.479 88.2382C282.198 88.2382 281.008 88.0551 279.818 87.7805C280.093 88.9705 280.276 90.2519 280.276 91.4419C280.276 100.504 273.045 107.918 264.166 107.918C258.582 107.918 253.731 104.989 250.802 100.595C249.978 100.961 249.154 101.236 248.239 101.419C247.873 102.884 247.141 104.257 246.134 105.446C249.704 111.671 256.477 115.881 264.166 115.881C275.608 115.881 284.944 106.636 284.944 95.1947C284.944 94.8286 284.944 94.4625 284.944 94.0963C286.683 94.554 288.422 94.8286 290.253 94.8286C301.694 94.8286 311.031 85.5837 311.031 74.1421C311.031 62.7004 301.694 53.4556 290.253 53.4556Z" fill="#5BA332" stroke="#39AA35" stroke-width="0.8888" stroke-miterlimit="10"/>
<path opacity="0.76" d="M278.445 58.6731C278.445 63.2497 273.319 55.9271 266.179 55.9271C259.04 55.9271 252.541 63.1582 252.541 58.6731C252.541 54.1879 258.399 50.4351 265.539 50.4351C272.678 50.4351 278.445 54.0964 278.445 58.6731Z" fill="#B8D484"/>
<path opacity="0.76" d="M245.035 69.4736C248.879 71.8535 240 72.4027 236.248 78.5354C232.495 84.6681 235.332 94.0045 231.488 91.6247C227.643 89.2448 227.552 82.3798 231.213 76.2471C234.966 70.2059 241.19 67.0937 245.035 69.4736Z" fill="#B8D484"/>
<path d="M290.344 90.7094C288.056 90.7094 285.859 91.0756 283.754 91.8078C280.367 84.9428 273.319 80.1831 265.173 80.1831C253.914 80.1831 244.669 89.2449 244.486 100.503C244.303 100.503 244.211 100.503 244.028 100.503C232.587 100.503 223.342 109.748 223.342 121.19C223.342 132.632 232.587 141.877 244.028 141.877C244.669 141.877 245.218 141.877 245.767 141.785C249.154 148.558 256.202 153.227 264.257 153.227C275.699 153.227 284.944 143.982 284.944 132.54C284.944 132.174 284.944 131.808 284.944 131.442C286.591 131.899 288.422 132.174 290.253 132.174C301.694 132.174 310.939 122.929 310.939 111.487C310.939 100.046 301.786 90.7094 290.344 90.7094Z" fill="#80BA36" stroke="#39AA35" stroke-width="3.5468" stroke-miterlimit="10"/>
<path d="M283.937 94.188C275.332 94.188 268.467 101.145 268.467 109.657C268.467 110.847 268.651 112.037 268.925 113.227C267.827 112.952 266.637 112.861 265.447 112.861C263.342 112.861 261.419 113.318 259.589 114.051C256.843 109.932 252.083 107.186 246.774 107.186C238.261 107.186 231.396 114.051 231.396 122.563C231.396 131.076 238.261 137.941 246.774 137.941C248.879 137.941 250.802 137.483 252.632 136.751C255.378 140.87 260.138 143.616 265.447 143.616C273.959 143.616 280.824 136.751 280.824 128.238C280.824 127.048 280.641 125.859 280.458 124.76C281.557 125.035 282.747 125.218 284.028 125.218C292.632 125.218 299.497 118.261 299.497 109.749C299.406 101.053 292.449 94.188 283.937 94.188Z" fill="#80BA36"/>
<path d="M290.253 89.8857C288.331 89.8857 286.5 90.1603 284.761 90.618C284.669 90.8926 284.669 91.2587 284.578 91.5333C292.999 92.0825 299.681 99.3137 299.681 108.101C299.681 117.254 292.45 124.668 283.479 124.668C282.198 124.668 281.008 124.485 279.818 124.211C280.093 125.401 280.276 126.682 280.276 127.872C280.276 136.934 273.045 144.348 264.166 144.348C258.582 144.348 253.731 141.419 250.802 137.025C249.978 137.392 249.154 137.666 248.239 137.849C247.873 139.314 247.141 140.687 246.134 141.877C249.704 148.101 256.477 152.311 264.166 152.311C275.608 152.311 284.944 143.067 284.944 131.625C284.944 131.259 284.944 130.893 284.944 130.527C286.683 130.984 288.422 131.259 290.253 131.259C301.694 131.259 311.031 122.014 311.031 110.572C311.031 99.1306 301.694 89.8857 290.253 89.8857Z" fill="#5BA332" stroke="#39AA35" stroke-width="0.8888" stroke-miterlimit="10"/>
<path opacity="0.76" d="M278.445 95.1032C278.445 99.6799 273.319 92.3572 266.179 92.3572C259.04 92.3572 252.541 99.5884 252.541 95.1032C252.541 90.5266 258.399 86.8652 265.539 86.8652C272.678 86.8652 278.445 90.5266 278.445 95.1032Z" fill="#B8D484"/>
<path opacity="0.76" d="M245.035 105.904C248.879 108.284 240 108.833 236.248 114.966C232.495 121.099 235.332 130.435 231.488 128.055C227.643 125.675 227.552 118.81 231.213 112.678C234.966 106.637 241.19 103.524 245.035 105.904Z" fill="#B8D484"/>
<path d="M204.943 41.7392C202.654 41.7392 200.458 42.1054 198.352 42.8376C194.966 35.9726 187.918 31.2129 179.771 31.2129C168.513 31.2129 159.268 40.2747 159.085 51.5333C158.902 51.5333 158.81 51.5333 158.627 51.5333C147.185 51.5333 137.94 60.7781 137.94 72.2198C137.94 83.6615 147.185 92.9063 158.627 92.9063C159.268 92.9063 159.817 92.9063 160.366 92.8148C163.753 99.5882 170.801 104.256 178.856 104.256C190.297 104.256 199.542 95.0116 199.542 83.5699C199.542 83.2038 199.542 82.8377 199.542 82.4715C201.19 82.9292 203.021 83.2038 204.851 83.2038C216.293 83.2038 225.538 73.9589 225.538 62.5173C225.538 51.0756 216.384 41.7392 204.943 41.7392Z" fill="#80BA36" stroke="#39AA35" stroke-width="3.5468" stroke-miterlimit="10"/>
<path d="M198.535 45.2173C189.931 45.2173 183.066 52.1738 183.066 60.6864C183.066 61.8763 183.249 63.0663 183.524 64.2562C182.425 63.9816 181.235 63.8901 180.045 63.8901C177.94 63.8901 176.018 64.3477 174.187 65.08C171.441 60.961 166.682 58.215 161.373 58.215C152.86 58.215 145.995 65.08 145.995 73.5926C145.995 82.1052 152.86 88.9702 161.373 88.9702C163.478 88.9702 165.4 88.5125 167.231 87.7803C169.977 91.8993 174.737 94.6453 180.045 94.6453C188.558 94.6453 195.423 87.7803 195.423 79.2677C195.423 78.0777 195.24 76.8878 195.057 75.7894C196.155 76.064 197.345 76.2471 198.627 76.2471C207.231 76.2471 214.096 69.2905 214.096 60.7779C214.096 52.1738 207.139 45.2173 198.535 45.2173Z" fill="#80BA36"/>
<path d="M204.851 41.0068C202.929 41.0068 201.099 41.2814 199.359 41.7391C199.268 42.0137 199.268 42.3798 199.176 42.6544C207.597 43.2036 214.279 50.4348 214.279 59.222C214.279 68.3753 207.048 75.7895 198.078 75.7895C196.797 75.7895 195.607 75.6064 194.417 75.3318C194.691 76.5217 194.874 77.8032 194.874 78.9931C194.874 88.0549 187.643 95.4691 178.764 95.4691C173.181 95.4691 168.33 92.5401 165.401 88.1465C164.577 88.5126 163.753 88.7872 162.838 88.9703C162.472 90.4348 161.739 91.8078 160.732 92.9977C164.302 99.222 171.076 103.433 178.764 103.433C190.206 103.433 199.543 94.1877 199.543 82.746C199.543 82.3799 199.543 82.0137 199.543 81.6476C201.282 82.1053 203.021 82.3799 204.851 82.3799C216.293 82.3799 225.63 73.135 225.63 61.6934C225.63 50.2517 216.385 41.0068 204.851 41.0068Z" fill="#5BA332" stroke="#39AA35" stroke-width="0.8888" stroke-miterlimit="10"/>
<path opacity="0.76" d="M193.044 46.1325C193.044 50.7092 187.918 43.3865 180.778 43.3865C173.639 43.3865 167.14 50.6177 167.14 46.1325C167.14 41.6474 172.998 37.8945 180.137 37.8945C187.277 37.8945 193.044 41.5559 193.044 46.1325Z" fill="#B8D484"/>
<path d="M252.815 12.1738C250.527 12.1738 248.33 12.5399 246.224 13.2722C242.838 6.40719 235.79 1.64746 227.643 1.64746C216.385 1.64746 207.14 10.7093 206.957 21.9678C206.774 21.9678 206.682 21.9678 206.499 21.9678C195.057 21.9678 185.812 31.2127 185.812 42.6544C185.812 54.096 195.057 63.3409 206.499 63.3409C207.14 63.3409 207.689 63.3409 208.238 63.2494C211.625 70.0228 218.673 74.691 226.728 74.691C238.17 74.691 247.414 65.4462 247.414 54.0045C247.414 53.6384 247.414 53.2722 247.414 52.9061C249.062 53.3638 250.893 53.6384 252.723 53.6384C264.165 53.6384 273.41 44.3935 273.41 32.9518C273.41 21.5102 264.257 12.1738 252.815 12.1738Z" fill="#80BA36" stroke="#39AA35" stroke-width="3.5468" stroke-miterlimit="10"/>
<path d="M246.407 15.6519C237.803 15.6519 230.938 22.6084 230.938 31.121C230.938 32.3109 231.121 33.5008 231.396 34.6908C230.297 34.4162 229.107 34.3246 227.918 34.3246C225.812 34.3246 223.89 34.7823 222.059 35.5146C219.313 31.3956 214.554 28.6496 209.245 28.6496C200.732 28.6496 193.867 35.5146 193.867 44.0272C193.867 52.5398 200.732 59.4048 209.245 59.4048C211.35 59.4048 213.272 58.9471 215.103 58.2148C217.849 62.3338 222.609 65.0798 227.918 65.0798C236.43 65.0798 243.295 58.2148 243.295 49.7022C243.295 48.5123 243.112 47.3224 242.929 46.224C244.027 46.4986 245.217 46.6816 246.499 46.6816C255.103 46.6816 261.968 39.7251 261.968 31.2125C261.876 22.5168 254.92 15.6519 246.407 15.6519Z" fill="#80BA36"/>
<path d="M252.724 11.3501C250.801 11.3501 248.971 11.6247 247.232 12.0824C247.14 12.357 247.14 12.7231 247.048 12.9977C255.47 13.5469 262.151 20.778 262.151 29.5652C262.151 38.7185 254.92 46.1327 245.95 46.1327C244.669 46.1327 243.479 45.9497 242.289 45.6751C242.563 46.865 242.746 48.1465 242.746 49.3364C242.746 58.3982 235.515 65.8124 226.637 65.8124C221.053 65.8124 216.202 62.8833 213.273 58.4897C212.449 58.8559 211.625 59.1305 210.71 59.3135C210.344 60.7781 209.611 62.1511 208.604 63.341C212.174 69.5653 218.948 73.7758 226.637 73.7758C238.078 73.7758 247.415 64.5309 247.415 53.0893C247.415 52.7231 247.415 52.357 247.415 51.9909C249.154 52.4485 250.893 52.7231 252.724 52.7231C264.165 52.7231 273.502 43.4783 273.502 32.0366C273.502 20.595 264.165 11.3501 252.724 11.3501Z" fill="#5BA332" stroke="#39AA35" stroke-width="0.8888" stroke-miterlimit="10"/>
<path opacity="0.76" d="M240.916 16.5676C240.916 21.1442 235.79 13.8216 228.65 13.8216C221.511 13.8216 215.012 21.0527 215.012 16.5676C215.012 12.0825 220.87 8.32959 228.009 8.32959C235.058 8.32959 240.916 11.9909 240.916 16.5676Z" fill="#B8D484"/>
<path opacity="0.76" d="M207.505 27.3681C211.35 29.748 202.471 30.2972 198.718 36.4299C194.965 42.5627 197.803 51.899 193.958 49.5192C190.114 47.1393 190.023 40.2743 193.684 34.1416C197.437 28.1004 203.661 24.9883 207.505 27.3681Z" fill="#B8D484"/>
<path d="M252.815 48.604C250.527 48.604 248.33 48.9701 246.224 49.7024C242.838 42.8374 235.79 38.0776 227.643 38.0776C216.385 38.0776 207.14 47.1394 206.957 58.398C206.774 58.398 206.682 58.398 206.499 58.398C195.057 58.398 185.812 67.6429 185.812 79.0845C185.812 90.5262 195.057 99.7711 206.499 99.7711C207.14 99.7711 207.689 99.7711 208.238 99.6795C211.625 106.453 218.673 111.121 226.728 111.121C238.17 111.121 247.414 101.876 247.414 90.4347C247.414 90.0685 247.414 89.7024 247.414 89.3363C249.062 89.7939 250.893 90.0685 252.723 90.0685C264.165 90.0685 273.41 80.8237 273.41 69.382C273.41 57.9404 264.257 48.604 252.815 48.604Z" fill="#80BA36" stroke="#39AA35" stroke-width="3.5468" stroke-miterlimit="10"/>
<path d="M246.407 52.0825C237.803 52.0825 230.938 59.039 230.938 67.5516C230.938 68.7416 231.121 69.9315 231.396 71.1214C230.297 70.8468 229.107 70.7553 227.918 70.7553C225.812 70.7553 223.89 71.213 222.059 71.9452C219.313 67.8262 214.554 65.0802 209.245 65.0802C200.732 65.0802 193.867 71.9452 193.867 80.4578C193.867 88.9704 200.732 95.8354 209.245 95.8354C211.35 95.8354 213.272 95.3778 215.103 94.6455C217.849 98.7645 222.609 101.51 227.918 101.51C236.43 101.51 243.295 94.6455 243.295 86.1329C243.295 84.943 243.112 83.753 242.929 82.6546C244.027 82.9292 245.217 83.1123 246.499 83.1123C255.103 83.1123 261.968 76.1558 261.968 67.6432C261.876 58.9475 254.92 52.0825 246.407 52.0825Z" fill="#80BA36"/>
<path d="M252.724 47.7803C250.801 47.7803 248.971 48.0549 247.232 48.5125C247.14 48.7871 247.14 49.1533 247.048 49.4279C255.47 49.9771 262.151 57.2082 262.151 65.9954C262.151 75.1487 254.92 82.5629 245.95 82.5629C244.669 82.5629 243.479 82.3798 242.289 82.1052C242.563 83.2952 242.746 84.5766 242.746 85.7666C242.746 94.8284 235.515 102.243 226.637 102.243C221.053 102.243 216.202 99.3135 213.273 94.9199C212.449 95.286 211.625 95.5606 210.71 95.7437C210.344 97.2082 209.611 98.5812 208.604 99.7712C212.174 105.995 218.948 110.206 226.637 110.206C238.078 110.206 247.415 100.961 247.415 89.5194C247.415 89.1533 247.415 88.7872 247.415 88.421C249.154 88.8787 250.893 89.1533 252.724 89.1533C264.165 89.1533 273.502 79.9085 273.502 68.4668C273.502 57.0251 264.165 47.7803 252.724 47.7803Z" fill="#5BA332" stroke="#39AA35" stroke-width="0.8888" stroke-miterlimit="10"/>
<path opacity="0.76" d="M240.916 52.9978C240.916 57.5744 235.79 50.2518 228.65 50.2518C221.511 50.2518 215.012 57.4829 215.012 52.9978C215.012 48.5126 220.87 44.7598 228.009 44.7598C235.058 44.7598 240.916 48.4211 240.916 52.9978Z" fill="#B8D484"/>
<path opacity="0.76" d="M207.505 63.7983C211.35 66.1782 202.471 66.7274 198.718 72.8601C194.965 78.9928 197.803 88.3292 193.958 85.9494C190.114 83.5695 190.023 76.7045 193.684 70.5718C197.437 64.5306 203.661 61.4184 207.505 63.7983Z" fill="#B8D484"/>
<path d="M68.558 144.257C66.2697 144.257 64.0729 144.623 61.9676 145.355C58.5809 138.49 51.5328 133.73 43.3864 133.73C32.1278 133.73 22.8829 142.792 22.6999 154.051C22.5168 154.051 22.4253 154.051 22.2422 154.051C10.8005 154.051 1.55566 163.296 1.55566 174.737C1.55566 186.179 10.8005 195.424 22.2422 195.424C22.8829 195.424 23.4321 195.424 23.9813 195.332C27.368 202.106 34.4161 206.774 42.471 206.774C53.9127 206.774 63.1576 197.529 63.1576 186.087C63.1576 185.721 63.1576 185.355 63.1576 184.989C64.8052 185.447 66.6358 185.721 68.4665 185.721C79.9082 185.721 89.153 176.477 89.153 165.035C89.153 153.593 79.9997 144.257 68.558 144.257Z" fill="#80BA36" stroke="#39AA35" stroke-width="3.5468" stroke-miterlimit="10"/>
<path d="M62.1505 147.735C53.5463 147.735 46.6813 154.691 46.6813 163.204C46.6813 164.394 46.8644 165.584 47.139 166.774C46.0406 166.499 44.8507 166.408 43.6607 166.408C41.5555 166.408 39.6333 166.865 37.8026 167.598C35.0566 163.479 30.2969 160.733 24.9879 160.733C16.4753 160.733 9.61035 167.598 9.61035 176.11C9.61035 184.623 16.4753 191.488 24.9879 191.488C27.0932 191.488 29.0154 191.03 30.8461 190.298C33.5921 194.417 38.3518 197.163 43.6607 197.163C52.1733 197.163 59.0383 190.298 59.0383 181.785C59.0383 180.595 58.8553 179.405 58.6722 178.307C59.7706 178.582 60.9605 178.765 62.242 178.765C70.8461 178.765 77.7111 171.808 77.7111 163.296C77.7111 154.691 70.7546 147.735 62.1505 147.735Z" fill="#80BA36"/>
<path d="M68.4667 143.524C66.5445 143.524 64.7138 143.799 62.9747 144.257C62.8832 144.531 62.8832 144.897 62.7916 145.172C71.2127 145.721 77.8946 152.952 77.8946 161.74C77.8946 170.893 70.6635 178.307 61.6932 178.307C60.4118 178.307 59.2218 178.124 58.0319 177.849C58.3065 179.039 58.4896 180.321 58.4896 181.511C58.4896 190.573 51.2584 197.987 42.3797 197.987C36.7962 197.987 31.9449 195.058 29.0159 190.664C28.1921 191.03 27.3683 191.305 26.4529 191.488C26.0868 192.952 25.3545 194.325 24.3477 195.515C27.9175 201.74 34.6909 205.95 42.3797 205.95C53.8214 205.95 63.1578 196.705 63.1578 185.264C63.1578 184.897 63.1578 184.531 63.1578 184.165C64.8969 184.623 66.636 184.897 68.4667 184.897C79.9084 184.897 89.2448 175.653 89.2448 164.211C89.2448 152.769 79.9999 143.524 68.4667 143.524Z" fill="#5BA332" stroke="#39AA35" stroke-width="0.8888" stroke-miterlimit="10"/>
<path opacity="0.76" d="M56.6588 148.65C56.6588 153.227 51.5329 145.904 44.3933 145.904C37.2537 145.904 30.7549 153.135 30.7549 148.65C30.7549 144.073 36.613 140.412 43.7526 140.412C50.8922 140.412 56.6588 144.073 56.6588 148.65Z" fill="#B8D484"/>
<path d="M116.43 114.691C114.142 114.691 111.945 115.057 109.84 115.79C106.453 108.925 99.4049 104.165 91.2584 104.165C79.9998 104.165 70.755 113.227 70.5719 124.485C70.3889 124.485 70.2973 124.485 70.1143 124.485C58.6726 124.485 49.4277 133.73 49.4277 145.172C49.4277 156.614 58.6726 165.858 70.1143 165.858C70.755 165.858 71.3042 165.858 71.8534 165.767C75.2401 172.54 82.2882 177.209 90.3431 177.209C101.785 177.209 111.03 167.964 111.03 156.522C111.03 156.156 111.03 155.79 111.03 155.424C112.677 155.881 114.508 156.156 116.339 156.156C127.78 156.156 137.025 146.911 137.025 135.469C137.117 123.936 127.872 114.691 116.43 114.691Z" fill="#80BA36" stroke="#39AA35" stroke-width="3.5468" stroke-miterlimit="10"/>
<path d="M110.023 118.169C101.418 118.169 94.5534 125.126 94.5534 133.639C94.5534 134.828 94.7365 136.018 95.0111 137.208C93.9127 136.934 92.7227 136.842 91.5328 136.842C89.4275 136.842 87.5053 137.3 85.6747 138.032C82.9287 133.913 78.1689 131.167 72.86 131.167C64.3474 131.167 57.4824 138.032 57.4824 146.545C57.4824 155.057 64.3474 161.922 72.86 161.922C74.9653 161.922 76.8875 161.465 78.7181 160.732C81.4641 164.851 86.2239 167.597 91.5328 167.597C100.045 167.597 106.91 160.732 106.91 152.22C106.91 151.03 106.727 149.84 106.544 148.742C107.643 149.016 108.833 149.199 110.114 149.199C118.718 149.199 125.583 142.243 125.583 133.73C125.492 125.034 118.535 118.169 110.023 118.169Z" fill="#80BA36"/>
<path d="M116.339 113.868C114.417 113.868 112.586 114.142 110.847 114.6C110.755 114.875 110.755 115.241 110.664 115.515C119.085 116.064 125.767 123.296 125.767 132.083C125.767 141.236 118.536 148.65 109.565 148.65C108.284 148.65 107.094 148.467 105.904 148.193C106.179 149.383 106.362 150.664 106.362 151.854C106.362 160.916 99.1305 168.33 90.2518 168.33C84.6683 168.33 79.817 165.401 76.8879 161.007C76.0641 161.373 75.2403 161.648 74.325 161.831C73.9589 163.296 73.2266 164.669 72.2197 165.859C75.7895 172.083 82.563 176.293 90.2518 176.293C101.693 176.293 111.03 167.049 111.03 155.607C111.03 155.241 111.03 154.875 111.03 154.508C112.769 154.966 114.508 155.241 116.339 155.241C127.78 155.241 137.117 145.996 137.117 134.554C137.117 123.113 127.78 113.868 116.339 113.868Z" fill="#5BA332" stroke="#39AA35" stroke-width="0.8888" stroke-miterlimit="10"/>
<path opacity="0.76" d="M104.531 119.085C104.531 123.662 99.405 116.339 92.2654 116.339C85.1258 116.339 78.627 123.57 78.627 119.085C78.627 114.509 84.4851 110.847 91.6247 110.847C98.7643 110.847 104.531 114.509 104.531 119.085Z" fill="#B8D484"/>
<path opacity="0.76" d="M71.1207 129.886C74.9651 132.266 66.0863 132.815 62.3335 138.948C58.5806 145.08 61.4181 154.417 57.5737 152.037C53.7293 149.657 53.6378 142.792 57.2991 136.659C61.052 130.618 67.2763 127.506 71.1207 129.886Z" fill="#B8D484"/>
<path d="M116.43 151.122C114.142 151.122 111.945 151.488 109.84 152.22C106.453 145.355 99.4049 140.595 91.2584 140.595C79.9998 140.595 70.755 149.657 70.5719 160.916C70.3889 160.916 70.2973 160.916 70.1143 160.916C58.6726 160.916 49.4277 170.16 49.4277 181.602C49.4277 193.044 58.6726 202.289 70.1143 202.289C70.755 202.289 71.3042 202.289 71.8534 202.197C75.2401 208.971 82.2882 213.639 90.3431 213.639C101.785 213.639 111.03 204.394 111.03 192.952C111.03 192.586 111.03 192.22 111.03 191.854C112.677 192.312 114.508 192.586 116.339 192.586C127.78 192.586 137.025 183.341 137.025 171.9C137.025 160.458 127.872 151.122 116.43 151.122Z" fill="#80BA36" stroke="#39AA35" stroke-width="3.5468" stroke-miterlimit="10"/>
<path d="M110.023 154.6C101.418 154.6 94.5534 161.557 94.5534 170.069C94.5534 171.259 94.7365 172.449 95.0111 173.639C93.9127 173.364 92.7227 173.273 91.5328 173.273C89.4275 173.273 87.5053 173.731 85.6747 174.463C82.9287 170.344 78.1689 167.598 72.86 167.598C64.3474 167.598 57.4824 174.463 57.4824 182.975C57.4824 191.488 64.3474 198.353 72.86 198.353C74.9653 198.353 76.8875 197.895 78.7181 197.163C81.4641 201.282 86.2239 204.028 91.5328 204.028C100.045 204.028 106.91 197.163 106.91 188.65C106.91 187.461 106.727 186.271 106.544 185.172C107.643 185.447 108.833 185.63 110.114 185.63C118.718 185.63 125.583 178.673 125.583 170.161C125.492 161.465 118.535 154.6 110.023 154.6Z" fill="#80BA36"/>
<path d="M116.339 150.298C114.417 150.298 112.586 150.572 110.847 151.03C110.755 151.305 110.755 151.671 110.664 151.945C119.085 152.495 125.767 159.726 125.767 168.513C125.767 177.666 118.536 185.08 109.565 185.08C108.284 185.08 107.094 184.897 105.904 184.623C106.179 185.813 106.362 187.094 106.362 188.284C106.362 197.346 99.1305 204.76 90.2518 204.76C84.6683 204.76 79.817 201.831 76.8879 197.437C76.0641 197.804 75.2403 198.078 74.325 198.261C73.9589 199.726 73.2266 201.099 72.2197 202.289C75.7895 208.513 82.563 212.724 90.2518 212.724C101.693 212.724 111.03 203.479 111.03 192.037C111.03 191.671 111.03 191.305 111.03 190.939C112.769 191.396 114.508 191.671 116.339 191.671C127.78 191.671 137.117 182.426 137.117 170.984C137.117 159.543 127.78 150.298 116.339 150.298Z" fill="#5BA332" stroke="#39AA35" stroke-width="0.8888" stroke-miterlimit="10"/>
<path opacity="0.76" d="M104.531 155.515C104.531 160.092 99.405 152.769 92.2654 152.769C85.1258 152.769 78.627 160 78.627 155.515C78.627 151.03 84.4851 147.277 91.6247 147.277C98.7643 147.277 104.531 150.939 104.531 155.515Z" fill="#B8D484"/>
<path opacity="0.76" d="M71.1207 166.316C74.9651 168.696 66.0863 169.245 62.3335 175.378C58.5806 181.51 61.4181 190.847 57.5737 188.467C53.7293 186.087 53.6378 179.222 57.2991 173.089C61.052 167.048 67.2763 163.936 71.1207 166.316Z" fill="#B8D484"/>
<path d="M290.985 138.765C288.696 138.765 286.5 139.131 284.394 139.863C281.008 132.998 273.96 128.238 265.813 128.238C254.555 128.238 245.31 137.3 245.127 148.559C244.944 148.559 244.852 148.559 244.669 148.559C233.227 148.559 223.982 157.804 223.982 169.245C223.982 180.687 233.227 189.932 244.669 189.932C245.31 189.932 245.859 189.932 246.408 189.84C249.795 196.614 256.843 201.282 264.898 201.282C276.339 201.282 285.584 192.037 285.584 180.595C285.584 180.229 285.584 179.863 285.584 179.497C287.232 179.955 289.063 180.229 290.893 180.229C302.335 180.229 311.58 170.984 311.58 159.543C311.58 148.101 302.426 138.765 290.985 138.765Z" fill="#80BA36" stroke="#39AA35" stroke-width="3.5468" stroke-miterlimit="10"/>
<path d="M284.577 142.243C275.973 142.243 269.108 149.199 269.108 157.712C269.108 158.902 269.291 160.092 269.566 161.282C268.467 161.007 267.277 160.915 266.088 160.915C263.982 160.915 262.06 161.373 260.229 162.105C257.483 157.986 252.724 155.24 247.415 155.24C238.902 155.24 232.037 162.105 232.037 170.618C232.037 179.131 238.902 185.996 247.415 185.996C249.52 185.996 251.442 185.538 253.273 184.806C256.019 188.925 260.779 191.671 266.088 191.671C274.6 191.671 281.465 184.806 281.465 176.293C281.465 175.103 281.282 173.913 281.099 172.815C282.197 173.089 283.387 173.272 284.669 173.272C293.273 173.272 300.138 166.316 300.138 157.803C300.138 149.199 293.181 142.243 284.577 142.243Z" fill="#80BA36"/>
<path d="M290.893 138.032C288.971 138.032 287.141 138.307 285.401 138.764C285.31 139.039 285.31 139.405 285.218 139.68C293.639 140.229 300.321 147.46 300.321 156.247C300.321 165.401 293.09 172.815 284.12 172.815C282.839 172.815 281.649 172.632 280.459 172.357C280.733 173.547 280.916 174.829 280.916 176.019C280.916 185.08 273.685 192.495 264.806 192.495C259.223 192.495 254.372 189.565 251.443 185.172C250.619 185.538 249.795 185.813 248.88 185.996C248.514 187.46 247.781 188.833 246.774 190.023C250.344 196.247 257.118 200.458 264.806 200.458C276.248 200.458 285.585 191.213 285.585 179.771C285.585 179.405 285.585 179.039 285.585 178.673C287.324 179.131 289.063 179.405 290.893 179.405C302.335 179.405 311.672 170.16 311.672 158.719C311.672 147.277 302.427 138.032 290.893 138.032Z" fill="#5BA332" stroke="#39AA35" stroke-width="0.8888" stroke-miterlimit="10"/>
<path opacity="0.76" d="M279.086 143.158C279.086 147.735 273.96 140.412 266.82 140.412C259.68 140.412 253.182 147.643 253.182 143.158C253.182 138.581 259.04 134.92 266.179 134.92C273.319 134.92 279.086 138.581 279.086 143.158Z" fill="#B8D484"/>
<path d="M338.857 109.199C336.569 109.199 334.372 109.565 332.266 110.298C328.88 103.433 321.832 98.6729 313.685 98.6729C302.427 98.6729 293.182 107.735 292.999 118.993C292.816 118.993 292.724 118.993 292.541 118.993C281.099 118.993 271.854 128.238 271.854 139.68C271.854 151.121 281.099 160.366 292.541 160.366C293.182 160.366 293.731 160.366 294.28 160.275C297.667 167.048 304.715 171.716 312.77 171.716C324.212 171.716 333.456 162.472 333.456 151.03C333.456 150.664 333.456 150.298 333.456 149.931C335.104 150.389 336.935 150.664 338.765 150.664C350.207 150.664 359.452 141.419 359.452 129.977C359.543 118.444 350.299 109.199 338.857 109.199Z" fill="#80BA36" stroke="#39AA35" stroke-width="3.5468" stroke-miterlimit="10"/>
<path d="M332.449 112.677C323.845 112.677 316.98 119.634 316.98 128.146C316.98 129.336 317.163 130.526 317.438 131.716C316.339 131.442 315.15 131.35 313.96 131.35C311.854 131.35 309.932 131.808 308.101 132.54C305.355 128.421 300.596 125.675 295.287 125.675C286.774 125.675 279.909 132.54 279.909 141.053C279.909 149.565 286.774 156.43 295.287 156.43C297.392 156.43 299.314 155.972 301.145 155.24C303.891 159.359 308.651 162.105 313.96 162.105C322.472 162.105 329.337 155.24 329.337 146.728C329.337 145.538 329.154 144.348 328.971 143.249C330.069 143.524 331.259 143.707 332.541 143.707C341.145 143.707 348.01 136.751 348.01 128.238C347.918 119.542 340.962 112.677 332.449 112.677Z" fill="#80BA36"/>
<path d="M338.766 108.375C336.843 108.375 335.013 108.65 333.274 109.108C333.182 109.382 333.182 109.748 333.09 110.023C341.512 110.572 348.193 117.803 348.193 126.591C348.193 135.744 340.962 143.158 331.992 143.158C330.711 143.158 329.521 142.975 328.331 142.7C328.605 143.89 328.788 145.172 328.788 146.362C328.788 155.424 321.557 162.838 312.679 162.838C307.095 162.838 302.244 159.909 299.315 155.515C298.491 155.881 297.667 156.156 296.752 156.339C296.386 157.803 295.653 159.176 294.646 160.366C298.216 166.591 304.99 170.801 312.679 170.801C324.12 170.801 333.457 161.556 333.457 150.115C333.457 149.749 333.457 149.382 333.457 149.016C335.196 149.474 336.935 149.749 338.766 149.749C350.207 149.749 359.544 140.504 359.544 129.062C359.544 117.62 350.207 108.375 338.766 108.375Z" fill="#5BA332" stroke="#39AA35" stroke-width="0.8888" stroke-miterlimit="10"/>
<path opacity="0.76" d="M326.958 113.593C326.958 118.17 321.832 110.847 314.692 110.847C307.553 110.847 301.054 118.078 301.054 113.593C301.054 109.016 306.912 105.355 314.051 105.355C321.191 105.355 326.958 109.016 326.958 113.593Z" fill="#B8D484"/>
<path opacity="0.76" d="M293.547 124.394C297.392 126.773 288.513 127.323 284.76 133.455C281.007 139.588 283.845 148.924 280 146.545C276.156 144.165 276.065 137.3 279.726 131.167C283.479 125.126 289.703 122.014 293.547 124.394Z" fill="#B8D484"/>
<path d="M338.857 145.629C336.569 145.629 334.372 145.995 332.266 146.728C328.88 139.863 321.832 135.103 313.685 135.103C302.427 135.103 293.182 144.165 292.999 155.423C292.816 155.423 292.724 155.423 292.541 155.423C281.099 155.423 271.854 164.668 271.854 176.11C271.854 187.552 281.099 196.796 292.541 196.796C293.182 196.796 293.731 196.796 294.28 196.705C297.667 203.478 304.715 208.147 312.77 208.147C324.212 208.147 333.456 198.902 333.456 187.46C333.456 187.094 333.456 186.728 333.456 186.362C335.104 186.819 336.935 187.094 338.765 187.094C350.207 187.094 359.452 177.849 359.452 166.407C359.452 154.966 350.299 145.629 338.857 145.629Z" fill="#80BA36" stroke="#39AA35" stroke-width="3.5468" stroke-miterlimit="10"/>
<path d="M332.449 149.108C323.845 149.108 316.98 156.064 316.98 164.577C316.98 165.767 317.163 166.957 317.438 168.147C316.339 167.872 315.15 167.781 313.96 167.781C311.854 167.781 309.932 168.238 308.101 168.971C305.355 164.852 300.596 162.106 295.287 162.106C286.774 162.106 279.909 168.971 279.909 177.483C279.909 185.996 286.774 192.861 295.287 192.861C297.392 192.861 299.314 192.403 301.145 191.671C303.891 195.79 308.651 198.536 313.96 198.536C322.472 198.536 329.337 191.671 329.337 183.158C329.337 181.968 329.154 180.778 328.971 179.68C330.069 179.955 331.259 180.138 332.541 180.138C341.145 180.138 348.01 173.181 348.01 164.669C347.918 155.973 340.962 149.108 332.449 149.108Z" fill="#80BA36"/>
<path d="M338.766 144.806C336.843 144.806 335.013 145.08 333.274 145.538C333.182 145.813 333.182 146.179 333.09 146.453C341.512 147.002 348.193 154.234 348.193 163.021C348.193 172.174 340.962 179.588 331.992 179.588C330.711 179.588 329.521 179.405 328.331 179.131C328.605 180.321 328.788 181.602 328.788 182.792C328.788 191.854 321.557 199.268 312.679 199.268C307.095 199.268 302.244 196.339 299.315 191.945C298.491 192.311 297.667 192.586 296.752 192.769C296.386 194.234 295.653 195.607 294.646 196.797C298.216 203.021 304.99 207.231 312.679 207.231C324.12 207.231 333.457 197.986 333.457 186.545C333.457 186.179 333.457 185.813 333.457 185.446C335.196 185.904 336.935 186.179 338.766 186.179C350.207 186.179 359.544 176.934 359.544 165.492C359.544 154.051 350.207 144.806 338.766 144.806Z" fill="#5BA332" stroke="#39AA35" stroke-width="0.8888" stroke-miterlimit="10"/>
<path opacity="0.76" d="M326.958 150.023C326.958 154.6 321.832 147.277 314.692 147.277C307.553 147.277 301.054 154.508 301.054 150.023C301.054 145.538 306.912 141.785 314.051 141.785C321.191 141.785 326.958 145.446 326.958 150.023Z" fill="#B8D484"/>
<path opacity="0.76" d="M293.547 160.824C297.392 163.204 288.513 163.753 284.76 169.886C281.007 176.018 283.845 185.355 280 182.975C276.156 180.595 276.065 173.73 279.726 167.597C283.479 161.556 289.703 158.444 293.547 160.824Z" fill="#B8D484"/>
</g>
<defs>
<clipPath id="clip0_305_950">
<rect width="361.099" height="355.973" fill="white"/>
</clipPath>
</defs>
</svg>
