<svg width="57" height="57" viewBox="0 0 57 57" fill="none" xmlns="http://www.w3.org/2000/svg">
<circle cx="28.5" cy="28.5" r="28.5" fill="#32ADE6"/>
<path d="M44.1936 29C45.7436 29 47.0224 30.2639 46.7817 31.7951C46.3415 34.5952 45.2439 37.2656 43.5623 39.5801C41.328 42.6554 38.1775 44.9444 34.5623 46.119C30.9471 47.2937 27.0529 47.2937 23.4377 46.119C19.8225 44.9444 16.672 42.6554 14.4377 39.5801C12.2034 36.5049 11 32.8012 11 29C11 25.1988 12.2034 21.4951 14.4377 18.4199C16.672 15.3446 19.8225 13.0556 23.4377 11.881C26.1586 10.9969 29.0375 10.7782 31.8366 11.2249C33.3671 11.4691 34.174 13.0759 33.6951 14.55C33.2162 16.024 31.6278 16.7958 30.0838 16.6602C28.435 16.5154 26.7642 16.7017 25.1721 17.219C22.6842 18.0274 20.5161 19.6026 18.9785 21.7189C17.4409 23.8353 16.6127 26.3841 16.6127 29C16.6127 31.6159 17.4409 34.1647 18.9785 36.2811C20.5161 38.3974 22.6842 39.9726 25.1721 40.781C27.66 41.5894 30.34 41.5894 32.8279 40.781C35.3158 39.9726 37.4839 38.3974 39.0215 36.2811C40.0055 34.9267 40.699 33.3953 41.0708 31.7825C41.4189 30.2722 42.6437 29 44.1936 29Z" fill="white"/>
</svg>
