<?xml version="1.0" encoding="utf-8" ?>
<svg xmlns="http://www.w3.org/2000/svg" xmlns:xlink="http://www.w3.org/1999/xlink" width="262" height="262">
	<path fill="#2C2923" transform="matrix(0.255859 0 0 0.255859 0 3.05176e-05)" d="M79.9905 112.019L79.9879 122.767C79.9855 124.47 80.2105 126.361 79.698 127.99L64.003 127.993L64.1215 112.141L79.9905 112.019Z"/>
	<path fill="#181819" transform="matrix(0.255859 0 0 0.255859 0 3.05176e-05)" d="M896.494 80.0941C898.775 80.1023 910.324 79.488 911.655 80.4477L911.688 103.208C911.7 105.843 911.249 109.487 911.996 112.001L896.485 111.928L896.295 111.491C895.782 109.902 895.465 84.0302 896.058 82C896.187 81.5596 896.519 81.2067 896.75 80.81L896.494 80.0941Z"/>
	<path fill="#2C2923" transform="matrix(0.255859 0 0 0.255859 0 3.05176e-05)" d="M911.996 112.001L943.895 112.123L943.993 144.001L912.166 143.929C911.541 138.914 912.022 133.082 912.001 127.987L911.996 112.001Z"/>
	<path fill="#21610D" transform="matrix(0.255859 0 0 0.255859 0 3.05176e-05)" d="M895.911 112.034L896.485 111.928L911.996 112.001L912.001 127.987C912.022 133.082 911.541 138.914 912.166 143.929L943.993 144.001L959.797 144.172L959.956 368.076L928.027 368.035L895.985 368.025L895.996 288.006L911.978 287.984L911.942 144.327C910.356 143.784 908.428 144.03 906.757 144.028L895.987 144.024L895.98 128.019L895.911 112.034Z"/>
	<path fill="#436726" transform="matrix(0.255859 0 0 0.255859 0 3.05176e-05)" d="M895.911 112.034L896.485 111.928L911.996 112.001L912.001 127.987L895.98 128.019L895.911 112.034Z"/>
	<path fill="#2C2923" transform="matrix(0.255859 0 0 0.255859 0 3.05176e-05)" d="M943.993 144.001L959.797 144.172L959.956 368.076L928.027 368.035L927.974 271.998L944.036 272.02L943.993 144.001Z"/>
	<path fill="#2C2923" transform="matrix(0.255859 0 0 0.255859 0 3.05176e-05)" d="M79.9905 112.019L80.0821 80.0923L896.494 80.0941L896.75 80.81C896.519 81.2067 896.187 81.5596 896.058 82C895.465 84.0302 895.782 109.902 896.295 111.491L896.485 111.928L895.911 112.034L112.115 111.988L95.9636 111.999L79.9905 112.019Z"/>
	<path fill="#59B01D" transform="matrix(0.255859 0 0 0.255859 0 3.05176e-05)" d="M112.115 111.988L895.911 112.034L895.98 128.019L895.987 144.024L906.757 144.028C908.428 144.03 910.356 143.784 911.942 144.327L911.978 287.984L895.996 288.006L896.01 224.042L896.05 175.951L873.726 175.993C870.97 175.993 867.45 176.413 864.774 175.79L864.046 175.607L864.064 143.933L112.028 144.051L112.049 176.13C108.647 175.712 104.833 176.047 101.369 176.041L79.976 176.006L79.877 144.045L80.0188 128.13L79.698 127.99C80.2105 126.361 79.9855 124.47 79.9879 122.767L79.9905 112.019L95.9636 111.999L112.115 111.988Z"/>
	<path fill="#436726" transform="matrix(0.255859 0 0 0.255859 0 3.05176e-05)" d="M79.9905 112.019L95.9636 111.999L95.9861 128.107C91.1399 127.683 84.7978 127.403 80.0188 128.13L79.698 127.99C80.2105 126.361 79.9855 124.47 79.9879 122.767L79.9905 112.019Z"/>
	<path fill="#21610D" transform="matrix(0.255859 0 0 0.255859 0 3.05176e-05)" d="M112.049 176.13L112.028 144.051L864.064 143.933L864.046 175.607L864.774 175.79C867.45 176.413 870.97 175.993 873.726 175.993L896.05 175.951L896.01 224.042L863.944 224.043L863.99 191.976L79.9795 192.033L79.976 176.006L101.369 176.041C104.833 176.047 108.647 175.712 112.049 176.13Z"/>
	<path fill="#181819" transform="matrix(0.255859 0 0 0.255859 0 3.05176e-05)" d="M79.698 127.99L80.0188 128.13L79.877 144.045L79.976 176.006L79.9795 192.033L863.99 191.976L863.944 224.043L896.01 224.042L895.996 288.006L895.985 368.025L928.027 368.035L959.956 368.076L991.798 368.173L991.639 655.757L959.912 655.851L959.758 879.853L943.91 879.918L943.642 911.761L911.863 911.901L911.551 943.739L80.2974 943.703L80.1692 911.684L64.5096 911.612L64.3612 896.135C62.8835 895.049 36.2495 895.682 32.4101 895.681L32.0772 128.094L64.003 127.993L79.698 127.99Z"/>
	<path fill="#2C2923" transform="matrix(0.255859 0 0 0.255859 0 3.05176e-05)" d="M64.3612 896.135L65.0414 896.13L80.0832 895.916L80.1692 911.684L64.5096 911.612L64.3612 896.135Z"/>
	<path fill="#4E8A23" transform="matrix(0.255859 0 0 0.255859 0 3.05176e-05)" d="M79.698 127.99L80.0188 128.13L79.877 144.045L64.0089 144.034L64.003 127.993L79.698 127.99Z"/>
	<path fill="#436726" transform="matrix(0.255859 0 0 0.255859 0 3.05176e-05)" d="M64.0089 144.034L79.877 144.045L79.976 176.006L64.0088 175.98L64.0089 144.034Z"/>
	<path fill="#49382B" transform="matrix(0.255859 0 0 0.255859 0 3.05176e-05)" d="M64.0127 864.033L95.9875 863.999L95.985 879.957L64.0105 879.991L64.0127 864.033Z"/>
	<path fill="#68574B" transform="matrix(0.255859 0 0 0.255859 0 3.05176e-05)" d="M64.0046 847.975L96.0327 848.038L95.9875 863.999L64.0127 864.033L64.0046 847.975Z"/>
	<path fill="#59B01D" transform="matrix(0.255859 0 0 0.255859 0 3.05176e-05)" d="M928.004 399.99L960.007 399.997L960.01 624.003L751.986 624.01L752.008 591.998L927.753 591.995C928.803 589.928 928.031 556.665 928.03 551.993L928.004 399.99Z"/>
	<path fill="#98EF3F" transform="matrix(0.255859 0 0 0.255859 0 3.05176e-05)" d="M720.049 400.054L928.004 399.99L928.03 551.993C928.031 556.665 928.803 589.928 927.753 591.995L752.008 591.998L719.983 592.014L720 575.993L704.054 575.942L704.061 432.048L719.986 431.985L720.049 400.054Z"/>
	<path fill="#68574B" transform="matrix(0.255859 0 0 0.255859 0 3.05176e-05)" d="M63.9831 256.087L63.9731 192.02L79.9795 192.033L80.0458 215.953C80.0485 218.202 80.5258 221.898 79.9908 224.004L784.007 223.994L799.98 223.981L832.089 223.986L848.012 223.997L848.012 240.006L848.04 255.981L831.993 255.996L160.04 256.052L159.977 815.973L127.968 815.981L127.962 847.996L96.0327 848.038L64.0046 847.975L63.9831 256.087Z"/>
	<path fill="#867265" transform="matrix(0.255859 0 0 0.255859 0 3.05176e-05)" d="M799.98 223.981L832.089 223.986L848.012 223.997L848.012 240.006L832.064 240.025L799.996 240.034L799.98 223.981Z"/>
	<path fill="#867265" transform="matrix(0.255859 0 0 0.255859 0 3.05176e-05)" d="M79.9908 224.004L784.007 223.994L784 240.005L79.9431 240.058L79.9908 224.004Z"/>
	<path fill="#49382B" transform="matrix(0.255859 0 0 0.255859 0 3.05176e-05)" d="M63.9831 256.087L95.9926 256.023L96.0327 848.038L64.0046 847.975L63.9831 256.087Z"/>
	<path fill="#49382B" transform="matrix(0.255859 0 0 0.255859 0 3.05176e-05)" d="M848.04 255.981L864.007 255.997L864.014 288.013L864.036 368.018L720.019 368.025L720.049 400.054L719.986 431.985L704.061 432.048L704.054 575.942L704.023 624.002L720.024 623.996L720.027 655.999L832.09 655.953L856.246 655.942C858.128 655.942 862.453 655.429 864.041 656.228L864.007 847.979L127.962 847.996L127.968 815.981L159.977 815.973L160.04 256.052L831.993 255.996L848.04 255.981Z"/>
	<path fill="#181819" transform="matrix(0.255859 0 0 0.255859 0 3.05176e-05)" d="M704.061 432.048L704.015 400.019L720.049 400.054L719.986 431.985L704.061 432.048Z"/>
	<path fill="#867265" transform="matrix(0.255859 0 0 0.255859 0 3.05176e-05)" d="M848.04 255.981L864.007 255.997L864.014 288.013L848.001 288.028L848.007 271.993L831.99 272.031L831.993 255.996L848.04 255.981Z"/>
	<path fill="#181819" transform="matrix(0.255859 0 0 0.255859 0 3.05176e-05)" d="M704.054 575.942L672.037 575.987L672.011 432.027L704.061 432.048L704.054 575.942Z"/>
</svg>
