<svg width="115" height="105" viewBox="0 0 115 105" fill="none" xmlns="http://www.w3.org/2000/svg">
<path d="M91.625 78.6107C86.6978 89.2337 87.0338 99.8567 92.297 102.317C97.5602 104.777 105.959 98.0675 110.886 87.4445C115.813 76.8215 115.478 66.1985 110.214 63.7385C104.839 61.2784 96.5523 67.9877 91.625 78.6107Z" fill="#65AD18"/>
<path d="M89.3852 41.821H83.5621V105H89.3852V41.821Z" fill="#65AD18"/>
<path d="M110.786 24.6727C110.911 19.4249 106.752 15.0694 101.497 14.9445C96.2416 14.8196 91.8799 18.9725 91.7547 24.2202C91.6296 29.468 95.7885 33.8234 101.044 33.9484C106.299 34.0733 110.661 29.9204 110.786 24.6727Z" fill="#279DC1"/>
<path d="M86.25 29.4087C80.9868 29.4087 76.7314 33.6579 76.7314 38.9135C76.7314 44.1691 80.9868 48.4183 86.25 48.4183C91.5132 48.4183 95.7686 44.1691 95.7686 38.9135C95.7686 33.7697 91.5132 29.4087 86.25 29.4087Z" fill="#279DC1"/>
<path d="M81.2106 24.0414C81.2106 18.7858 76.9552 14.5366 71.692 14.5366C66.4288 14.5366 62.1735 18.7858 62.1735 24.0414C62.1735 29.297 66.4288 33.5462 71.692 33.5462C76.9552 33.5462 81.2106 29.297 81.2106 24.0414Z" fill="#279DC1"/>
<path d="M86.6978 19.0096C91.961 19.0096 96.2163 14.7604 96.2163 9.50479C96.2163 4.2492 91.961 0 86.6978 0C81.4346 0 77.1792 4.2492 77.1792 9.50479C77.1792 14.7604 81.3226 19.0096 86.6978 19.0096Z" fill="#279DC1"/>
<path d="M86.474 33.7701C91.7373 33.7701 95.9926 29.5209 95.9926 24.2653C95.9926 19.0097 91.7373 14.7605 86.474 14.7605C81.2108 14.7605 76.9555 19.0097 76.9555 24.2653C76.8435 29.5209 81.2108 33.7701 86.474 33.7701Z" fill="#FFE236"/>
<path d="M22.7559 78.6104C27.6831 89.2334 27.3472 99.8564 22.084 102.317C16.8208 104.777 8.42209 98.0673 3.49483 87.4443C-1.43243 76.8213 -1.09651 66.1983 4.1667 63.7382C9.42991 61.2782 17.8286 67.9874 22.7559 78.6104Z" fill="#65AD18"/>
<path d="M31.939 78.6104C27.0118 89.2334 27.3477 99.8564 32.611 102.317C37.8742 104.777 46.2729 98.0673 51.2001 87.4443C56.1274 76.8213 55.7915 66.1983 50.5283 63.7382C45.1531 61.2782 36.8663 67.9874 31.939 78.6104Z" fill="#65AD18"/>
<path d="M30.2592 49.4248H24.436V105H30.2592V49.4248Z" fill="#65AD18"/>
<path d="M46.2724 23.035C46.2724 22.9232 46.2724 22.8113 46.2724 22.6995C46.2724 18.7858 43.2489 15.6548 39.5535 15.6548C35.858 15.6548 32.8345 18.7858 32.8345 22.6995C32.8345 18.7858 29.8109 15.6548 26.1155 15.6548C22.42 15.6548 19.3965 18.7858 19.3965 22.6995C19.3965 18.7858 16.3729 15.6548 12.6775 15.6548C8.98204 15.6548 5.9585 18.7858 5.9585 22.6995C5.9585 22.8113 5.9585 22.9232 5.9585 23.035C6.29445 42.0446 15.1411 57.3641 26.1155 57.3641C37.2018 57.3641 46.0485 42.0446 46.2724 23.035Z" fill="#FFE236"/>
</svg>
